<svg width="282" height="39" viewBox="0 0 282 39" fill="none" xmlns="http://www.w3.org/2000/svg">
<path d="M38.1265 9.22074C37.8515 9.17156 37.6295 8.96334 37.5761 8.70415C37.4821 8.24068 37.9067 7.83933 38.3992 7.92836C38.6734 7.97754 38.895 8.18576 38.9483 8.44495C39.0424 8.90842 38.6178 9.30977 38.1261 9.22074H38.1265Z" fill="url(#paint0_linear_25_7)"/>
<path d="M35.2173 4.83534C34.8315 4.77611 34.5208 4.48245 34.456 4.1195C34.3505 3.5189 34.8951 3.00446 35.5323 3.10283C35.9181 3.16314 36.23 3.45572 36.2936 3.81974C36.3991 4.42034 35.8541 4.93478 35.2173 4.83534Z" fill="url(#paint1_linear_25_7)"/>
<path d="M38.5174 11.4599C38.5528 11.3881 38.5707 11.3102 38.5707 11.2312L38.5688 9.79053C39.0971 9.67313 39.5092 9.25024 39.5781 8.73651C39.6878 7.91908 38.9546 7.22981 38.0886 7.33464C37.4975 7.40572 37.0207 7.85518 36.9464 8.41234C36.8584 9.06715 37.3124 9.63903 37.9412 9.78693L37.9431 11.1012C37.9431 11.1802 37.9252 11.2581 37.8898 11.3288L36.8813 13.3765H35.6961L35.69 5.40899C36.3321 5.28585 36.8386 4.77895 36.922 4.15968C37.0508 3.19937 36.1889 2.38876 35.1701 2.51117C34.4754 2.59482 33.916 3.12434 33.828 3.77915C33.7225 4.57073 34.2892 5.25892 35.0623 5.40791L35.0696 13.3765H32.305V8.31469H32.2996V8.30392H19.5647V13.3805H10.7773V0H41.1255L41.1266 13.3765H37.5725L38.517 11.4599H38.5174Z" fill="url(#paint2_linear_25_7)"/>
<path d="M21.3508 33.2634C21.2986 33.5226 21.0765 33.7319 20.8016 33.7811C20.3099 33.8698 19.8841 33.4684 19.9786 33.0053C20.0319 32.7468 20.2535 32.5379 20.5277 32.4887C21.0194 32.4 21.4452 32.8003 21.3508 33.2638V33.2634Z" fill="url(#paint3_linear_25_7)"/>
<path d="M15.7015 36.0004C15.6375 36.364 15.3271 36.657 14.9409 36.7173C14.3037 36.8167 13.7591 36.3023 13.8635 35.7017C13.9275 35.338 14.239 35.0451 14.6248 34.9848C15.262 34.8853 15.8066 35.3998 15.7011 36.0004H15.7015Z" fill="url(#paint4_linear_25_7)"/>
<path d="M41.1283 38.769H10.7778V25.3857H19.5652V30.4457H32.3001L32.3055 25.3828H35.5294L35.5233 33.9154L26.8616 33.9104C26.7999 33.9104 26.7393 33.8975 26.6826 33.8731L24.4588 32.898C24.3826 32.8646 24.3 32.8478 24.2162 32.8478L21.9558 32.8467C21.8313 32.3488 21.3838 31.9603 20.8376 31.8954C19.9716 31.7909 19.2392 32.4809 19.3493 33.2983C19.4247 33.8544 19.9015 34.3039 20.4926 34.3749C21.1861 34.4586 21.794 34.0317 21.9509 33.4383L24.0775 33.4394C24.1613 33.4394 24.244 33.4563 24.3202 33.4896L26.5451 34.4647C26.6007 34.4895 26.6612 34.502 26.7229 34.502L36.1505 34.507V34.5052L36.1566 25.3832H37.2779L37.2706 35.5621L16.3124 35.5564C16.1817 34.95 15.6451 34.4729 14.9881 34.394C13.9694 34.2715 13.1075 35.0832 13.237 36.0435C13.325 36.6984 13.8867 37.2268 14.5799 37.3094C15.4197 37.4099 16.1509 36.8764 16.3101 36.148L37.8952 36.1538V36.1527H37.8971L37.9055 25.3832H41.1283L41.1294 38.7694L41.1283 38.769Z" fill="url(#paint5_linear_25_7)"/>
<path d="M2.92145 14.6514C2.53565 14.5921 2.22373 14.2985 2.16013 13.9345C2.05463 13.3349 2.59925 12.8205 3.23641 12.9189C3.62222 12.9792 3.93413 13.2718 3.99774 13.6358C4.10323 14.2364 3.55861 14.7508 2.92145 14.6514Z" fill="url(#paint6_linear_25_7)"/>
<path d="M5.83057 19.9734C5.5556 19.9242 5.33356 19.716 5.28024 19.4568C5.18617 18.9934 5.61082 18.592 6.1025 18.681C6.37748 18.7302 6.59951 18.9384 6.65283 19.1976C6.7469 19.6611 6.32225 20.0625 5.83057 19.9734Z" fill="url(#paint7_linear_25_7)"/>
<path d="M30.3432 10.1782V28.5811H21.5223V23.5408H8.8209V38.7661H5.15787L5.14949 25.1688C5.14949 25.1107 5.16206 25.0536 5.18834 25.0001L6.22197 22.9028C6.25739 22.8307 6.27529 22.7531 6.27529 22.6742L6.27339 20.5435C6.80163 20.4261 7.21371 20.0032 7.28264 19.4895C7.39157 18.6721 6.65919 17.9828 5.79313 18.0876C5.20205 18.1587 4.72522 18.6082 4.65096 19.1653C4.56298 19.8201 5.01696 20.392 5.64574 20.5399L5.64765 22.5446C5.64765 22.6235 5.62899 22.7014 5.59433 22.7722L4.5607 24.8701C4.53442 24.9233 4.52109 24.9807 4.52109 25.0389L4.53061 38.7665H3.41053L3.39491 15.2257C4.03703 15.1026 4.54356 14.5957 4.6262 13.9764C4.75607 13.0161 3.89383 12.2055 2.87505 12.3279C2.18037 12.4116 1.6209 12.9411 1.53293 13.5959C1.42629 14.3875 1.99414 15.0757 2.76727 15.2246L2.78288 38.7665H0V0H8.8209V15.2254H21.5223V10.1782H30.3432Z" fill="url(#paint8_linear_25_7)"/>
<path d="M251.209 7.02651L250.881 6.72854C249.617 5.69787 247.894 5.10014 246.298 5.10014H239.249L234.948 5.10481V5.10373L227.801 5.10014C225.606 5.05634 223.826 5.84003 222.836 6.71706L222.399 7.14103C221.202 8.32428 220.59 10.4262 220.59 12.0607L220.613 20.1535C220.613 21.5924 220.928 23.3138 222.076 24.3961L222.404 24.7397C223.625 25.9373 225.357 26.7329 227.909 26.767L234.625 26.7756L234.717 34.1773C237.28 34.1773 237.34 34.1924 239.389 34.1551L239.348 26.7896L246.57 26.7788C248.396 26.8014 250.115 26.0267 251.112 25.0488L251.385 24.7397C252.691 23.4585 253.281 22.025 253.285 19.6265L253.262 12.5278C253.251 9.70641 252.625 8.42623 251.209 7.02615L251.209 7.02651ZM234.617 9.47989L234.625 22.3958H227.786C226.29 22.3958 225.076 21.2521 225.076 19.8416L225.053 12.252C225.053 10.7213 226.37 9.48024 227.994 9.48024H234.617L234.617 9.47989ZM245.859 22.3958H239.322L239.249 9.47989H245.768C247.441 9.47989 248.798 10.7586 248.798 12.3364L248.821 19.6032C248.821 21.1454 247.494 22.3958 245.858 22.3958H245.859Z" fill="#FFFEFD"/>
<path d="M256.85 5V9.37651H266.282V29.122H270.925V9.37651H280.138V5H256.85Z" fill="#FFFEFD"/>
<path d="M92.5076 5.02876C85.0067 5.03091 78.9306 10.5903 78.9424 17.4403L78.9626 29.2251C81.5276 29.2139 81.5448 29.2649 83.4951 29.2272L83.5023 21.0188H96.8638L96.8763 29.2247C99.4425 29.2136 99.4547 29.2409 101.41 29.2269L101.414 5.02625L92.5068 5.02876H92.5076ZM83.4982 16.6455C84.1494 12.4772 88.2161 9.2685 92.965 9.2685H96.8634L96.8615 16.6408L83.4978 16.6455H83.4982Z" fill="#FFFEFD"/>
<path d="M68.97 5.10592L68.9639 14.9618V16.4688L54.9611 16.4735L54.9653 5.09802C52.4033 5.09802 53.0755 5.10556 50.389 5.10556L50.3779 29.2387C52.0859 29.2387 53.6147 29.2394 54.9641 29.2408L54.9721 20.8464H68.9639V29.2387C71.53 29.2387 71.5613 29.2408 73.4869 29.2128L73.4876 5.09802C70.9214 5.09802 71.0597 5.10556 68.97 5.10556V5.10592Z" fill="#FFFEFD"/>
<path d="M125.616 5.10592L125.61 14.9618V16.4688L111.607 16.4735L111.611 5.09802C109.049 5.09802 109.721 5.10556 107.035 5.10556L107.024 29.2387C108.732 29.2387 110.261 29.2394 111.61 29.2408L111.618 20.8464H125.61V29.2387C128.176 29.2387 128.207 29.2408 130.133 29.2128L130.134 5.09802C127.567 5.09802 127.706 5.10556 125.616 5.10556V5.10592Z" fill="#FFFEFD"/>
<path d="M137.858 7.07099C136.222 8.61359 135.302 10.7058 135.302 12.8871V29.2408H150.642C152.767 29.2408 154.806 28.4449 156.308 27.0283C157.781 25.6404 158.608 23.7585 158.608 21.7959V5.10046H142.905C141.012 5.10046 139.196 5.80948 137.858 7.07099H137.858ZM153.961 9.48021V21.3522C153.961 23.2901 152.295 24.861 150.239 24.861H139.949V12.9054C139.949 11.0135 141.576 9.47985 143.583 9.47985H153.962L153.961 9.48021Z" fill="#FFFEFD"/>
<path d="M194.597 7.07099C192.96 8.61359 192.041 10.7058 192.041 12.8871V29.2408H207.381C209.506 29.2408 211.544 28.4449 213.047 27.0283C214.519 25.6404 215.346 23.7585 215.346 21.7959V5.10046H199.644C197.751 5.10046 195.936 5.80948 194.597 7.07099H194.597ZM210.7 9.48021V21.3525C210.7 23.2904 209.033 24.8614 206.977 24.8614H196.687V12.9057C196.687 11.0138 198.314 9.48021 200.321 9.48021H210.7Z" fill="#FFFEFD"/>
<path d="M166.631 6.83334C164.83 8.39425 163.812 10.5917 163.812 12.8874V29.2411H179.151C180.213 29.2411 181.255 29.0422 182.218 28.666C183.43 28.1928 184.517 27.44 185.371 26.4506C186.536 25.1008 187.117 23.3848 187.117 21.6448V21.0223H182.47V21.3522C182.47 23.29 180.804 24.861 178.748 24.861H168.458V12.9057C168.458 11.0138 170.085 9.48021 172.092 9.48021H182.47V12.7496C185.036 12.7496 187.117 10.7887 187.117 8.36984V5.10046H171.423C169.653 5.10046 167.933 5.70394 166.63 6.83334H166.631Z" fill="#FFFEFD"/>
<defs>
<linearGradient id="paint0_linear_25_7" x1="37.5632" y1="8.57419" x2="38.9617" y2="8.57419" gradientUnits="userSpaceOnUse">
<stop stop-color="#FFD488"/>
<stop offset="0.47" stop-color="#FFC678"/>
<stop offset="1" stop-color="#FFBC6C"/>
</linearGradient>
<linearGradient id="paint1_linear_25_7" x1="34.4427" y1="3.96908" x2="36.307" y2="3.96908" gradientUnits="userSpaceOnUse">
<stop stop-color="#FFD488"/>
<stop offset="0.47" stop-color="#FFC678"/>
<stop offset="1" stop-color="#FFBC6C"/>
</linearGradient>
<linearGradient id="paint2_linear_25_7" x1="10.7777" y1="6.69024" x2="41.127" y2="6.69024" gradientUnits="userSpaceOnUse">
<stop stop-color="#FFD488"/>
<stop offset="0.47" stop-color="#FFC678"/>
<stop offset="1" stop-color="#FFBC6C"/>
</linearGradient>
<linearGradient id="paint3_linear_25_7" x1="19.9656" y1="33.1345" x2="21.3641" y2="33.1345" gradientUnits="userSpaceOnUse">
<stop stop-color="#FFD488"/>
<stop offset="0.47" stop-color="#FFC678"/>
<stop offset="1" stop-color="#FFBC6C"/>
</linearGradient>
<linearGradient id="paint4_linear_25_7" x1="13.8505" y1="35.851" x2="15.7148" y2="35.851" gradientUnits="userSpaceOnUse">
<stop stop-color="#FFD488"/>
<stop offset="0.47" stop-color="#FFC678"/>
<stop offset="1" stop-color="#FFBC6C"/>
</linearGradient>
<linearGradient id="paint5_linear_25_7" x1="10.7778" y1="32.0759" x2="41.1283" y2="32.0759" gradientUnits="userSpaceOnUse">
<stop stop-color="#FFD488"/>
<stop offset="0.47" stop-color="#FFC678"/>
<stop offset="1" stop-color="#FFBC6C"/>
</linearGradient>
<linearGradient id="paint6_linear_25_7" x1="2.1468" y1="13.7855" x2="4.01107" y2="13.7855" gradientUnits="userSpaceOnUse">
<stop stop-color="#FFD488"/>
<stop offset="0.47" stop-color="#FFC678"/>
<stop offset="1" stop-color="#FFBC6C"/>
</linearGradient>
<linearGradient id="paint7_linear_25_7" x1="5.26729" y1="19.3272" x2="6.66578" y2="19.3272" gradientUnits="userSpaceOnUse">
<stop stop-color="#FFD488"/>
<stop offset="0.47" stop-color="#FFC678"/>
<stop offset="1" stop-color="#FFBC6C"/>
</linearGradient>
<linearGradient id="paint8_linear_25_7" x1="0" y1="19.3829" x2="30.3432" y2="19.3829" gradientUnits="userSpaceOnUse">
<stop stop-color="#FFD488"/>
<stop offset="0.47" stop-color="#FFC678"/>
<stop offset="1" stop-color="#FFBC6C"/>
</linearGradient>
</defs>
</svg>
