<svg width="234" height="345" viewBox="0 0 234 345" fill="none" xmlns="http://www.w3.org/2000/svg">
<g clip-path="url(#clip0_296_1729)">
<path d="M176.638 15.9579C162.472 5.15219 149.098 2.19021 135.626 2.39235C114.269 2.71367 96.8337 10.3517 84.8701 23.4849C77.9635 31.0669 72.7978 42.2559 70.6152 52.3114C68.3805 64.1367 68.207 76.2594 70.1022 88.1438C70.1022 88.1438 111.915 126.118 130.142 141.691C153.823 157.114 195.756 183.53 195.756 183.53C207.125 178.946 207.73 171.279 208.072 166.676C208.565 160.54 207.949 154.366 206.254 148.448C204.195 140.324 200.49 123.863 202.572 95.1755C203.509 89.1705 204.049 83.1103 204.188 77.0343C204.288 74.2044 204.329 71.8068 204.341 70.2352C204.524 54.1634 197.596 35.5993 187.184 24.8111L176.638 15.9579Z" fill="#A98A75"/>
<path d="M181.127 91.9814L171.003 89.2496C164.115 85.2103 156.965 73.5587 154.422 66.8705C152.22 60.9699 150.361 54.9466 148.855 48.8311C138.73 58.9205 124.123 66.2407 108.651 69.8898C104.494 69.8898 94.4549 70.3022 89.5661 70.3431C84.7861 73.6767 80.0212 76.863 75.4152 79.735C74.29 80.4361 72.937 81.1897 72.0747 81.7213L70.0054 82.9891L70.0451 83.4565C70.8011 92.4406 71.1645 101.413 71.6809 109.675C71.7199 110.287 71.7635 110.898 71.8118 111.506C72.9043 125.116 76.7192 137.471 85.9171 145.748C94.0787 153.095 102.815 157.144 112.999 158.119C113.635 162.56 109.067 165.037 105.5 166.299C102.361 167.712 97.418 169.453 92.9429 171.055C96.5371 177.135 101.925 181.953 108.366 184.849C115.125 187.877 122.472 188.803 129.721 188.803C148.175 188.636 166.142 182.864 181.242 172.253L178.042 170.078C173.105 166.722 167.251 163.344 164.917 157.848C164.124 155.778 163.552 153.629 163.211 151.438C162.638 148.443 162.065 145.448 161.492 142.454C165.061 139.094 168.314 135.414 171.212 131.46C171.212 131.46 173.975 127.605 175.17 125.385C175.17 125.385 175.48 124.811 175.822 124.183C178.788 124.403 181.76 123.862 184.457 122.61C188.544 120.252 191.835 116.729 193.91 112.491C196.323 108.156 197.66 100.738 195.896 96.2894C195.303 94.8031 193.779 92.1812 189.331 91.2897C187.066 90.8081 184.703 91.2124 182.727 92.4195L181.127 91.9814Z" fill="white"/>
<path d="M159.438 144.135C160.197 148.09 160.749 152.162 161.833 156.045C162.759 159.382 164.565 162.408 167.061 164.808C169.48 167.027 172.098 169.018 174.882 170.755C178.263 173.008 181.611 175.312 184.971 177.595C187.465 179.291 189.805 175.243 187.329 173.559C184.151 171.398 180.984 169.215 177.786 167.083C175.274 165.524 172.896 163.758 170.678 161.803C168.483 159.798 166.928 157.189 166.208 154.305C165.24 150.566 164.673 146.685 163.945 142.888C163.38 139.938 158.874 141.187 159.438 144.131V144.135Z" fill="#211715"/>
<path d="M110.723 158.798C110.723 158.992 110.723 159.182 110.706 159.375C110.687 159.629 110.803 159.119 110.668 159.521C110.612 159.692 110.569 159.872 110.515 160.041C110.441 160.275 110.666 159.808 110.453 160.171C110.363 160.325 110.278 160.482 110.186 160.638C110.108 160.767 109.906 161.037 110.108 160.779C109.878 161.065 109.626 161.333 109.355 161.58C109.218 161.707 109.077 161.83 108.933 161.949C108.625 162.205 109.362 161.671 108.774 162.066C108.455 162.281 108.138 162.495 107.807 162.69C107.475 162.885 107.134 163.067 106.789 163.239C106.617 163.325 106.438 163.404 106.271 163.486C106.206 163.516 105.741 163.719 106.103 163.568C102.508 165.092 98.8074 166.466 94.9959 167.835C94.4062 168.012 93.9073 168.409 93.6027 168.944C93.2982 169.48 93.2113 170.112 93.3601 170.709C93.5286 171.304 93.9244 171.81 94.4622 172.116C95 172.422 95.6365 172.504 96.2345 172.345C98.5713 171.507 100.899 170.668 103.204 169.76C104.294 169.331 105.359 168.826 106.451 168.41C106.159 168.526 106.5 168.41 106.622 168.362C106.794 168.299 106.964 168.231 107.134 168.162C107.67 167.946 108.205 167.721 108.729 167.477C112.234 165.841 115.406 162.935 115.389 158.804C115.379 155.797 110.706 155.792 110.715 158.804L110.723 158.798Z" fill="#211715"/>
<path d="M185.527 26.4589C193.736 35.0457 198.682 46.7079 200.9 58.2649C201.883 64.0959 202.212 70.0182 201.883 75.9222C201.784 79.16 201.628 82.3977 201.377 85.6273C201.128 88.8346 200.574 91.9812 200.231 95.1711C199.604 101.997 199.414 108.856 199.662 115.706C199.779 120.953 200.111 126.197 200.732 131.408C201.2 135.333 201.808 139.236 202.613 143.112C203.397 146.884 204.497 150.59 205.184 154.38C205.839 158.07 206.049 161.825 205.809 165.565C205.774 167.408 205.539 169.242 205.108 171.034C203.836 175.994 199.869 179.323 195.13 181.277C194.542 181.458 194.046 181.856 193.742 182.39C193.438 182.925 193.349 183.555 193.494 184.152C193.661 184.748 194.057 185.254 194.595 185.56C195.133 185.866 195.77 185.948 196.368 185.788C201.417 183.706 206.195 180.53 208.498 175.389C210.239 171.498 210.537 167.103 210.575 162.887C210.659 153.564 207.383 144.659 205.967 135.521C204.335 124.108 203.858 112.56 204.545 101.052C204.881 94.0844 206.045 87.2082 206.384 80.2303C206.855 73.9926 206.765 67.7254 206.116 61.5038C204.29 47.5912 198.62 33.3947 188.823 23.1522C186.741 20.9742 183.439 24.2821 185.519 26.4565L185.527 26.4589Z" fill="#211715"/>
<path d="M211.158 346.663C209.618 334.145 208.422 321.074 207.77 310.399C217.357 292.25 221.116 278.115 226.569 261.184C229.528 251.991 232.645 231.115 231.086 221.3C229.651 213.359 226.28 205.894 221.271 199.567C212.587 188.905 201.939 182.069 182.166 171.588C166.879 182.604 148.554 188.614 129.712 188.79C122.468 188.79 115.116 187.864 108.358 184.836C102.62 182.255 97.7049 178.14 94.1546 172.946L56.8149 168.525C44.4295 174.259 38.5114 179.969 30.9493 195.186C25.1071 206.918 22.0365 220.3 19.2532 233.043C16.0728 247.554 13.1937 263.527 13.8282 278.421C14.2956 289.385 18.8151 301.153 28.5914 306.15C37.5883 310.744 49.3895 308.795 57.2181 302.355C57.3115 304.029 57.3746 305.117 57.3746 305.117C57.5709 308.505 58.2136 318.935 58.1014 323.954C58.0032 328.394 57.5265 336.714 56.8161 346.584L211.158 346.663Z" fill="#FFDA71"/>
<path d="M72.2452 104.416L67.2431 107.401C65.6552 108.665 65.3117 109.565 64.7976 111.904C64.1818 114.716 63.6011 117.355 62.9947 119.895C62.1598 119.696 61.2846 119.752 60.4814 120.054C59.9324 120.235 59.4422 120.561 59.0622 120.997C58.6821 121.432 58.4261 121.962 58.3209 122.531C57.0758 128.668 56.5846 134.934 56.8581 141.19C57.2261 151.301 57.9342 156.775 59.2452 167.94C59.6808 171.439 59.7129 174.977 59.341 178.484C59.1938 179.932 56.1862 186.843 53.2651 193.391L52.9917 194.002C61.7421 197.085 73.7688 201.385 81.5868 204.225C81.6382 203.829 81.6745 203.566 81.6745 203.566C82.6575 197.608 83.9974 191.714 85.6869 185.916C87.1784 181.981 89.4067 178.366 92.2523 175.266C92.9297 174.53 93.5663 173.758 94.1592 172.952C94.3695 172.672 94.5658 172.377 94.7434 172.083C95.1061 171.455 95.3976 170.789 95.6127 170.097C96.4569 167.129 97.071 164.101 97.4495 161.039L100.178 103.472L74.8613 102.855L72.2452 104.416Z" fill="white"/>
<path d="M190.766 272.645C188.166 259.25 185.802 245.806 183.441 232.368C182.866 229.097 182.299 225.825 181.74 222.553C181.571 221.958 181.175 221.452 180.637 221.146C180.099 220.84 179.462 220.758 178.864 220.918C178.274 221.094 177.774 221.491 177.469 222.026C177.165 222.562 177.078 223.194 177.228 223.792C179.55 237.487 182.019 251.159 184.547 264.818C185.107 267.843 185.669 270.868 186.256 273.889C186.828 276.839 191.334 275.59 190.762 272.647L190.766 272.645Z" fill="#211715"/>
<path d="M106.074 132.968C108.814 134.423 111.868 135.185 114.97 135.188C116.511 135.234 118.051 135.089 119.556 134.757C121.112 134.292 122.628 133.701 124.088 132.99C124.675 132.81 125.172 132.412 125.476 131.877C125.78 131.343 125.869 130.712 125.723 130.115C125.556 129.519 125.16 129.013 124.622 128.706C124.084 128.4 123.447 128.318 122.849 128.479C121.515 129.12 120.141 129.676 118.737 130.144C118.419 130.229 118.098 130.299 117.774 130.358C117.626 130.385 117.476 130.409 117.327 130.43C117.584 130.394 117.42 130.418 117.259 130.43C116.579 130.485 115.903 130.524 115.219 130.514C114.561 130.505 113.906 130.458 113.25 130.39C112.841 130.348 113.545 130.438 113.139 130.38C112.977 130.357 112.816 130.33 112.654 130.302C112.297 130.24 111.94 130.168 111.588 130.087C110.983 129.948 110.386 129.775 109.801 129.568C109.752 129.55 109.207 129.342 109.463 129.451C109.681 129.539 109.289 129.372 109.251 129.354C108.974 129.221 108.703 129.081 108.433 128.928C105.819 127.43 103.462 131.467 106.074 132.963V132.968Z" fill="#211715"/>
<path d="M126.86 100.391C126.211 97.4426 127.328 90.8784 132.819 90.7627C140.013 91.3972 139.741 99.4231 137.009 102.982C134.775 105.897 128.837 106.698 126.86 100.391Z" fill="#211715"/>
<path d="M84.0183 98.2238C83.4341 95.27 84.4915 88.6812 89.5228 88.541C96.1093 89.1451 95.823 97.1956 93.3062 100.779C91.2509 103.712 85.8025 104.542 84.0183 98.2238Z" fill="#211715"/>
<path d="M106.324 106.377C105.348 107.855 104.383 109.36 103.55 110.925C103.211 111.487 102.95 112.094 102.774 112.726C102.635 113.283 102.635 113.865 102.773 114.422C102.911 114.979 103.184 115.493 103.566 115.921C104.143 116.556 104.864 117.043 105.669 117.341C106.221 117.523 106.793 117.636 107.373 117.677L106.751 117.593C106.848 117.607 106.943 117.622 107.039 117.641C107.647 117.791 108.29 117.708 108.839 117.407C109.236 117.175 109.556 116.832 109.759 116.419C109.961 116.006 110.037 115.543 109.978 115.087C109.918 114.631 109.726 114.203 109.424 113.856C109.122 113.509 108.725 113.259 108.282 113.137C107.931 113.068 107.574 113.033 107.221 112.985L107.841 113.069C107.521 113.031 107.207 112.953 106.907 112.835L107.465 113.069C107.37 113.026 107.276 112.978 107.186 112.925C107.137 112.897 107.089 112.867 107.042 112.834C106.899 112.735 106.977 112.795 107.276 113.014C107.228 112.918 107.049 112.799 106.973 112.728L106.871 112.611C107.104 112.948 107.171 113.013 107.07 112.806L107.304 113.364C107.28 113.298 107.264 113.23 107.256 113.16L107.339 113.78C107.329 113.672 107.329 113.563 107.339 113.454L107.255 114.075C107.289 113.881 107.343 113.691 107.415 113.508L107.181 114.067C107.639 113.091 108.166 112.15 108.759 111.251C109.277 110.402 109.81 109.56 110.355 108.73C110.663 108.194 110.748 107.558 110.591 106.96C110.435 106.362 110.049 105.849 109.517 105.534C108.978 105.237 108.346 105.159 107.751 105.316C107.157 105.473 106.645 105.853 106.324 106.377Z" fill="#211715"/>
<path d="M157.338 148.956C162.03 145.368 166.297 141.255 170.054 136.696C172.736 133.542 175.122 130.147 177.181 126.554C178.627 123.915 174.592 121.553 173.146 124.195C171.3 127.451 169.157 130.53 166.745 133.392C163.273 137.67 159.324 141.537 154.975 144.92C154.455 145.246 154.079 145.759 153.923 146.353C153.767 146.947 153.844 147.578 154.136 148.118C154.452 148.65 154.965 149.037 155.563 149.193C156.162 149.35 156.798 149.265 157.334 148.956H157.338Z" fill="#211715"/>
<path d="M177.817 13.9413C168.257 6.533 156.857 1.87452 144.845 0.468033C133.652 -0.737144 122.33 0.411062 111.606 3.83897C101.811 6.94451 92.8741 12.291 85.5059 19.4539C77.2801 27.5559 71.7441 38.3242 68.8943 49.4559C67.4306 55.538 66.6357 61.7617 66.5235 68.0164C66.2831 74.9597 66.7253 81.9099 67.8438 88.7667C68.0123 89.3624 68.4083 89.8679 68.9463 90.1739C69.4844 90.48 70.1213 90.5621 70.7194 90.4025C71.31 90.2263 71.8098 89.8289 72.1146 89.2932C72.4194 88.7574 72.5055 88.1247 72.3552 87.527C70.5 76.5189 70.5835 65.2713 72.6017 54.292C74.6067 43.8614 79.2244 33.252 86.3752 25.3148C100.08 10.0819 120.813 3.7747 140.891 4.82279C153.668 5.49114 165.311 10.2899 175.458 17.977C175.994 18.2862 176.63 18.3716 177.229 18.2148C177.828 18.0579 178.34 17.6715 178.656 17.1393C178.954 16.6005 179.033 15.9678 178.877 15.3723C178.72 14.7768 178.341 14.2644 177.817 13.9413Z" fill="#211715"/>
<path d="M143.47 150.436C135.93 153.683 127.872 155.561 119.674 155.983C112.14 156.316 104.647 154.715 97.9079 151.332C91.1233 147.973 85.3758 142.838 81.2764 136.473C77.3271 129.984 75.3688 122.409 74.4878 114.916C73.2621 104.49 73.2586 93.9106 72.3846 83.4473C72.1369 80.4724 67.4608 80.4456 67.7108 83.4473C68.5288 93.2902 68.6631 103.194 69.6096 113.023C70.4064 121.299 72.2058 129.595 76.1727 136.976C83.9007 151.342 100.11 160.111 116.148 160.655C126.012 160.989 135.612 158.617 144.71 154.947C145.297 154.767 145.794 154.369 146.098 153.835C146.402 153.301 146.491 152.67 146.345 152.073C146.178 151.477 145.782 150.971 145.244 150.665C144.706 150.358 144.069 150.277 143.471 150.437L143.47 150.436Z" fill="#211715"/>
<path d="M183.899 94.4278C185.348 93.5798 187.046 93.2584 188.705 93.5179C190.364 93.7775 191.882 94.602 193.003 95.8522C193.24 96.1944 193.451 96.5532 193.636 96.926C193.655 96.9634 193.795 97.2765 193.68 97.0066C193.523 96.6432 193.796 97.3256 193.815 97.4027C193.948 97.8124 194.059 98.229 194.147 98.6506C194.447 100.385 194.463 102.157 194.196 103.897C193.321 110.536 189.263 117.513 183.179 120.631C182.634 120.885 182.068 121.092 181.487 121.248C180.66 121.492 179.815 121.672 178.96 121.786C176.986 122.13 174.955 121.872 173.13 121.046C170.468 119.654 168.106 123.687 170.771 125.082C174.756 127.164 179.796 126.912 183.934 125.359C188.194 123.547 191.787 120.457 194.216 116.516C196.698 112.831 198.28 108.615 198.835 104.206C199.333 100.267 199.056 95.823 196.402 92.6542C192.886 88.456 186.144 87.6217 181.543 90.3921C178.973 91.9426 181.316 95.9854 183.902 94.4278H183.899Z" fill="#211715"/>
<path d="M146.69 49.8098C148.64 57.7925 150.987 66.0709 154.869 73.3608C158.419 80.0372 163.215 87.2885 169.825 91.2682C172.408 92.8222 174.762 88.783 172.184 87.2324C166.167 83.6103 161.896 76.7247 158.717 70.6512C155.139 63.8193 153.021 56.0235 151.199 48.5677C150.485 45.6467 145.977 46.884 146.692 49.8098H146.69Z" fill="#211715"/>
<path d="M107.507 54.4113C95.7418 63.4562 83.5236 71.8966 70.9003 79.6998C68.3297 81.2503 70.6736 85.2931 73.2593 83.7356C85.8827 75.9324 98.1009 67.492 109.866 58.4471C110.388 58.1214 110.765 57.609 110.921 57.0146C111.076 56.4202 111 55.7886 110.705 55.2491C110.389 54.7173 109.877 54.3313 109.278 54.1745C108.68 54.0177 108.044 54.1028 107.507 54.4113Z" fill="#211715"/>
<path d="M147.189 47.1966C136.556 57.7032 122.446 64.2009 108.037 67.6361C105.116 68.3372 106.351 72.8415 109.28 72.1427C124.451 68.5264 139.309 61.5544 150.495 50.501C152.636 48.3838 149.332 45.0794 147.189 47.1966Z" fill="#211715"/>
<path d="M92.1461 174.126C95.6489 179.258 100.384 183.429 105.916 186.256C112.039 189.162 118.694 190.781 125.468 191.014C138.487 191.636 151.483 189.387 163.536 184.426C170.534 181.589 177.183 177.956 183.35 173.598C185.786 171.875 183.454 167.82 180.992 169.563C170.984 176.709 159.648 181.782 147.651 184.484C135.837 187.09 122.454 187.802 110.978 183.416C104.992 181.1 99.838 177.042 96.1819 171.767C94.4783 169.314 90.4262 171.651 92.1461 174.126Z" fill="#211715"/>
<path d="M205.501 311.469C206.252 323.229 207.388 334.967 208.822 346.663C208.84 347.277 209.092 347.861 209.526 348.295C209.961 348.73 210.544 348.982 211.158 349C211.777 348.997 212.369 348.749 212.807 348.312C213.244 347.874 213.492 347.282 213.495 346.663C212.062 334.967 210.925 323.229 210.175 311.469C209.984 308.482 205.309 308.46 205.501 311.469Z" fill="#211715"/>
<path d="M55.047 305.117C55.3976 311.237 55.8649 317.386 55.782 323.524C55.6756 331.214 55.0377 338.918 54.4838 346.585C54.2677 349.587 58.9426 349.573 59.1576 346.585C59.7114 338.918 60.3494 331.214 60.4557 323.524C60.5387 317.389 60.076 311.237 59.7208 305.117C59.5467 302.127 54.8718 302.107 55.047 305.117Z" fill="#211715"/>
<path d="M95.2017 160.408C94.6724 163.704 94.4691 167.535 92.9256 170.553C91.9565 172.094 90.8282 173.529 89.5593 174.834C88.2854 176.373 87.1185 177.997 86.0669 179.695C84.1034 183.189 82.6961 186.967 81.8956 190.894C80.9199 194.879 80.1826 198.916 79.4255 202.944C78.8717 205.884 83.376 207.144 83.9322 204.186C84.6753 200.237 85.3974 196.28 86.345 192.372C87.1162 188.435 88.5652 184.662 90.6273 181.221C91.5794 179.76 92.6336 178.369 93.7821 177.057C95.1579 175.661 96.3212 174.07 97.2348 172.336C98.7421 168.982 99.1347 165.245 99.7119 161.65C99.8575 161.052 99.7692 160.422 99.465 159.887C99.1609 159.353 98.664 158.955 98.0761 158.775C97.4781 158.615 96.8413 158.697 96.3033 159.003C95.7654 159.31 95.3696 159.815 95.2017 160.411V160.408Z" fill="#211715"/>
<path d="M55.2865 194.57C57.0883 190.516 58.918 186.465 60.534 182.333C61.6546 179.236 62.1275 175.942 61.9232 172.656C61.8134 168.124 61.0563 163.605 60.5527 159.102C60.1414 155.428 59.7815 151.75 59.5396 148.061C59.2674 143.914 59.0524 139.749 59.1692 135.592C59.2335 133.339 59.3784 131.087 59.6238 128.847C59.72 126.855 60.0554 124.881 60.6228 122.969C60.7232 122.752 60.8744 122.562 61.0636 122.415C61.2528 122.269 61.4745 122.17 61.7099 122.127C61.9453 122.084 62.1876 122.099 62.4163 122.169C62.645 122.24 62.8534 122.364 63.0239 122.532C64.183 123.968 64.162 126.486 64.3618 128.219C64.9098 132.972 65.4449 137.738 66.0911 142.474C66.3886 144.886 67.1206 147.225 68.2515 149.377C69.3031 151.325 70.7893 152.999 71.8585 154.951C73.9147 158.677 74.9052 162.896 74.7211 167.148C74.6475 170.156 79.3213 170.155 79.3949 167.148C79.5644 162.823 78.7109 158.52 76.9038 154.588C75.1266 150.729 71.9718 147.663 70.9891 143.456C70.5402 141.087 70.2172 138.695 70.0217 136.292C69.7109 133.776 69.3907 131.261 69.0963 128.745C68.6289 124.742 68.4022 118.735 63.5228 117.619C62.486 117.372 61.4045 117.383 60.3728 117.65C59.3411 117.917 58.3903 118.433 57.6035 119.152C56.0273 120.679 55.7843 123.016 55.4548 125.076C54.7341 129.664 54.403 134.305 54.4651 138.95C54.6936 147.546 55.3796 156.123 56.5204 164.646C56.9149 167.464 57.161 170.3 57.2577 173.144C57.4092 175.073 57.2638 177.014 56.8265 178.898C55.2199 183.436 53.3583 187.88 51.2508 192.208C50.9569 192.748 50.8801 193.379 51.036 193.974C51.1919 194.568 51.5688 195.08 52.0897 195.406C52.626 195.714 53.2619 195.799 53.8601 195.642C54.4582 195.485 54.9706 195.099 55.2865 194.567V194.57Z" fill="#211715"/>
<path d="M65.5573 119.203C66.0948 116.891 66.5902 114.569 67.1101 112.253C67.2095 111.814 67.3135 111.375 67.4455 110.943C67.4981 110.772 67.5623 110.605 67.6196 110.435C67.7452 110.071 67.7248 109.672 67.5626 109.322C67.4005 108.972 67.1091 108.699 66.7498 108.56C66.3905 108.42 65.991 108.425 65.6353 108.574C65.2796 108.722 64.9953 109.003 64.8421 109.356C64.6888 109.71 64.6785 110.11 64.8133 110.471C64.9481 110.832 65.2175 111.127 65.5651 111.293C65.9126 111.46 66.3113 111.486 66.6773 111.365C67.0434 111.244 67.3484 110.986 67.5284 110.646C67.5802 110.559 67.6251 110.469 67.6628 110.376C67.7376 110.234 67.8229 110.102 67.9082 109.968C68.1115 109.644 67.9012 110.025 67.7913 110.102C67.8518 110.045 67.9063 109.981 67.9538 109.913C68.2429 109.602 68.5554 109.314 68.8885 109.052C69.3249 108.613 69.5698 108.019 69.5698 107.4C69.5698 106.78 69.3249 106.187 68.8885 105.747C68.4418 105.325 67.8504 105.09 67.2358 105.09C66.6211 105.09 66.0297 105.325 65.583 105.747C64.0755 107.005 63.0479 108.744 62.6736 110.671C62.1011 113.093 61.6056 115.535 61.0378 117.96C60.8729 118.558 60.9522 119.196 61.2582 119.735C61.5642 120.274 62.0719 120.67 62.6695 120.835C63.2671 121 63.9058 120.92 64.4449 120.614C64.9841 120.308 65.3796 119.801 65.5444 119.203H65.5573Z" fill="#211715"/>
<path d="M55.6407 166.508C48.949 169.624 42.7423 173.579 38.0172 179.337C32.0441 186.616 27.7805 195.461 24.5708 204.259C20.8108 214.567 18.4774 225.363 16.2177 236.079C13.6712 247.257 12.0872 258.633 11.4832 270.081C11.1408 279.529 11.8839 289.161 16.6769 297.539C18.7719 301.343 21.7859 304.562 25.444 306.902C29.1022 309.243 33.2881 310.63 37.6199 310.938C41.9196 311.212 46.2282 310.562 50.2564 309.034C54.2845 307.505 57.939 305.133 60.9746 302.075C64.2735 298.448 67.1215 294.435 69.4562 290.123C72.0194 285.623 74.2595 280.946 76.1596 276.128C80.0995 266.296 82.4691 256.04 84.834 245.748C87.0821 235.974 89.2051 226.173 91.2709 216.361C91.7959 213.868 92.319 211.372 92.8401 208.872C93.4536 205.938 88.9492 204.684 88.3335 207.63C86.3951 216.905 84.4426 226.177 82.3827 235.425C80.179 245.324 78.1529 255.349 75.1384 265.04C72.357 274.374 68.3147 283.285 63.1233 291.525C60.8414 295.053 58.3608 298.643 54.9606 301.188C51.7858 303.534 48.1252 305.138 44.2484 305.882C40.4832 306.709 36.5654 306.513 32.9013 305.315C29.2372 304.117 25.9603 301.961 23.4105 299.07C17.906 292.689 16.2177 283.94 16.0926 275.755C16.1132 264.987 17.2337 254.25 19.4367 243.711C21.4032 233.435 23.6045 223.113 26.5864 213.081C29.2302 203.754 33.2124 194.859 38.4086 186.675C42.0803 180.988 47.1097 176.304 53.0432 173.046C54.6627 172.149 56.323 171.329 58.0009 170.549C58.5322 170.233 58.9177 169.72 59.0745 169.122C59.2312 168.524 59.1465 167.888 58.8387 167.352C58.5164 166.828 58.0041 166.447 57.4086 166.291C56.8131 166.135 56.1802 166.214 55.6418 166.513L55.6407 166.508Z" fill="#211715"/>
<path d="M43.1992 193.06C56.1642 197.449 69.0391 202.14 81.9036 206.813C84.0606 207.598 86.2268 208.368 88.3604 209.209C88.9584 209.369 89.5955 209.287 90.1336 208.981C90.6717 208.675 91.0674 208.169 91.2347 207.573C91.3851 206.975 91.2989 206.343 90.9941 205.807C90.6893 205.272 90.1895 204.874 89.5989 204.698C77.4612 199.922 65.0443 195.763 52.7418 191.432C49.9785 190.46 47.2163 189.485 44.4459 188.546C41.5914 187.58 40.3657 192.092 43.2039 193.053L43.1992 193.06Z" fill="#211715"/>
<path d="M166.407 338.496C174.174 338.668 182.282 338.594 189.3 334.827C196.756 330.827 202.768 324.135 206.906 316.846C211.398 308.934 215.317 300.71 218.634 292.238C221.532 284.839 223.94 277.268 226.325 269.687C228.513 263.209 230.276 256.594 231.601 249.886C232.966 242.679 233.716 235.37 233.842 228.036C233.911 213.337 226.522 200.122 215.83 190.412C204.989 180.573 191.551 173.835 178.68 167.101L176.202 165.804C173.539 164.411 171.178 168.443 173.843 169.84C185.699 176.043 198.067 182.062 208.61 190.404C218.931 198.57 227.957 210.236 229.024 223.62C229.382 230.215 229.018 236.829 227.938 243.345C227.112 249.629 225.758 255.833 223.889 261.89C219.066 276.976 214.471 292.045 207.298 306.229C203.397 313.941 199.288 321.362 192.543 326.959C189.811 329.338 186.646 331.168 183.221 332.348C179.875 333.321 176.409 333.823 172.925 333.84C170.754 333.901 168.583 333.873 166.412 333.825C163.403 333.758 163.403 338.432 166.412 338.499L166.407 338.496Z" fill="#211715"/>
<path d="M124.044 223.009C125.053 242.598 126.271 262.237 129.191 281.649C130.333 289.953 132.084 298.16 134.432 306.206C136.448 312.803 139.038 319.094 143.507 324.418C149.523 331.582 158.081 337.738 167.655 338.425C170.655 338.64 170.643 333.966 167.655 333.751C159.842 333.19 152.866 327.887 147.804 322.255C143.547 317.516 141.116 311.872 139.214 305.852C134.052 289.509 132.281 272.068 130.821 255.066C129.904 244.396 129.268 233.704 128.718 223.009C128.565 220.017 123.89 219.998 124.044 223.009Z" fill="#211715"/>
<path d="M130.065 165.516C130.427 163.335 130.983 161.191 131.728 159.11C133.679 154.782 135.912 150.587 138.412 146.552C141.02 141.565 144.932 130.058 146.863 123.238C147.505 121.131 148.837 119.301 150.644 118.041C151.507 117.485 152.538 117.25 153.557 117.378C154.576 117.507 155.517 117.989 156.216 118.742C156.576 119.081 156.883 119.473 157.126 119.903C157.571 118.537 157.879 117.599 157.879 117.599C157.879 117.599 159.031 114.081 159.429 112.867C159.873 111.603 160.73 110.526 161.862 109.809C162.994 109.093 164.335 108.78 165.667 108.921C167.141 109.08 168.51 109.756 169.531 110.829L169.853 110.284C169.853 110.284 171.168 108.053 171.686 107.192C172.892 105.187 175.028 104.715 177.562 105.673C178.533 106.059 179.37 106.72 179.969 107.576C180.568 108.431 180.903 109.444 180.933 110.488C181.124 112.349 180.507 116.886 179.706 121.482H181.062C182.278 121.4 183.482 121.771 184.443 122.522C185.669 123.395 186.055 126.177 185.804 127.696C183.712 138.365 180.945 148.891 177.518 159.209C174.112 166.935 171.215 173.13 167.967 180.876C167.163 182.573 166.599 184.374 166.291 186.227C166.154 188.2 166.305 190.181 166.739 192.11C167.122 194.307 171.144 210.497 171.734 213.349L172.257 215.879C161.479 217.468 147.86 219.518 137.266 221.205C137.193 219.507 137.149 218.49 137.149 218.49C136.926 213.406 136.715 197.97 135.814 193.168C135.004 188.856 132.549 184.926 131 180.83C129.398 176.692 128.931 172.2 129.648 167.821C129.763 167.163 129.904 166.367 130.065 165.516Z" fill="white"/>
<path d="M127.005 225.263C143.741 222.342 160.574 219.936 177.382 217.479C177.978 217.311 178.484 216.916 178.791 216.378C179.097 215.839 179.178 215.202 179.018 214.604C178.841 214.015 178.443 213.516 177.908 213.211C177.372 212.907 176.74 212.82 176.142 212.969C159.334 215.422 142.502 217.834 125.767 220.753C125.171 220.921 124.665 221.316 124.359 221.854C124.053 222.392 123.971 223.029 124.131 223.627C124.306 224.218 124.704 224.718 125.239 225.023C125.775 225.327 126.407 225.413 127.005 225.263Z" fill="#211715"/>
<path d="M140.43 147.731C144.238 140.358 146.691 132.123 149.023 124.187C149.485 122.618 150.804 119.962 152.659 119.671C154.879 119.32 155.59 121.944 155.407 123.584C154.779 127.396 153.861 131.154 152.66 134.826C151.485 139.142 150.283 143.472 148.816 147.695C147.829 150.543 152.343 151.767 153.323 148.938C154.789 144.709 155.993 140.384 157.167 136.068C157.788 133.79 158.389 131.511 158.952 129.212C159.625 127.057 160.017 124.823 160.121 122.568C160.127 121.148 159.737 119.756 158.994 118.547C158.25 117.338 157.184 116.361 155.915 115.726C154.641 115.115 153.209 114.915 151.817 115.154C150.425 115.393 149.142 116.059 148.146 117.061C146.223 118.878 144.875 121.22 144.269 123.796C143.582 126.142 142.842 128.469 142.07 130.792C140.556 135.792 138.659 140.666 136.393 145.373C135.015 148.041 139.048 150.408 140.43 147.731Z" fill="#211715"/>
<path d="M136.395 145.374C133.464 150.416 130.045 155.57 128.597 161.281C127.161 166.937 126.377 172.686 127.802 178.433C129.177 183.994 132.809 188.781 133.673 194.486C133.731 194.858 133.63 194.135 133.683 194.545C133.709 194.753 133.732 194.961 133.755 195.169C133.795 195.535 133.83 195.901 133.864 196.268C133.949 197.215 134.017 198.164 134.078 199.113C134.218 201.316 134.311 203.523 134.398 205.729C134.559 209.985 134.632 214.244 134.812 218.497C134.94 221.494 139.615 221.509 139.485 218.497C139.158 210.861 139.245 203.179 138.47 195.568C138.301 193.547 137.9 191.552 137.275 189.623C136.322 186.841 134.938 184.235 133.787 181.538C132.562 178.791 131.845 175.844 131.67 172.842C131.704 167.295 132.958 161.825 135.344 156.818C136.896 153.711 138.686 150.734 140.431 147.732C141.95 145.126 137.907 142.771 136.395 145.374Z" fill="#211715"/>
<path d="M175.351 158.373C173.177 163.292 170.944 168.188 168.782 173.111C167.672 175.641 166.571 178.178 165.517 180.732C164.408 183.126 163.855 185.74 163.901 188.379C164.142 191.195 164.636 193.985 165.376 196.713C166.107 199.821 166.861 202.924 167.609 206.028C168.245 208.673 168.923 211.314 169.478 213.973C170.094 216.915 174.6 215.67 173.985 212.731C172.9 207.556 171.537 202.434 170.311 197.291C169.832 195.279 169.306 193.265 168.943 191.227C168.39 188.793 168.505 186.255 169.275 183.881C170.098 181.521 171.172 179.231 172.17 176.94C174.53 171.517 176.992 166.139 179.383 160.729C179.677 160.189 179.754 159.558 179.598 158.963C179.442 158.369 179.065 157.857 178.544 157.531C178.008 157.223 177.372 157.138 176.774 157.295C176.175 157.452 175.663 157.838 175.347 158.37L175.351 158.373Z" fill="#211715"/>
<path d="M163.757 152.62C166.364 144.226 168.665 135.717 170.834 127.202C171.853 123.208 173.14 118.991 173.171 114.848C173.196 113.653 172.958 112.467 172.472 111.375C171.986 110.283 171.265 109.312 170.36 108.53C169.456 107.749 168.39 107.177 167.239 106.856C166.088 106.534 164.88 106.47 163.701 106.669C162.375 106.884 161.121 107.42 160.048 108.229C158.975 109.038 158.116 110.097 157.545 111.313C156.803 113.168 156.16 115.061 155.619 116.984C154.684 119.849 159.193 121.073 160.126 118.227C160.935 115.756 161.334 111.941 164.35 111.287C165.073 111.146 165.822 111.228 166.497 111.522C167.173 111.815 167.744 112.306 168.135 112.931C168.746 114.196 168.504 115.98 168.21 117.721C166.925 125.265 164.588 132.714 162.528 140.072C161.476 143.852 160.408 147.632 159.245 151.38C158.35 154.259 162.86 155.491 163.751 152.622L163.757 152.62Z" fill="#211715"/>
<path d="M172.761 157.353C175.648 148.274 178.395 139.064 180.473 129.762C181.524 125.059 182.361 120.282 182.963 115.499C183.48 111.383 183.697 106.596 179.643 104.106C178.435 103.319 177.028 102.893 175.587 102.877C174.146 102.862 172.73 103.257 171.505 104.017C169.803 105.239 168.877 107.344 167.835 109.109C166.302 111.705 170.34 114.06 171.87 111.468C172.439 110.267 173.13 109.128 173.932 108.068C174.922 107.008 177.014 107.619 177.843 108.635C178.56 109.754 178.828 111.103 178.594 112.411C178.487 114.265 178.221 116.112 177.936 117.945C176.636 125.822 174.872 133.616 172.653 141.285C171.266 146.25 169.817 151.198 168.255 156.111C167.342 158.984 171.852 160.213 172.761 157.353Z" fill="#211715"/>
<path d="M181.062 123.825C182.654 123.847 183.329 124.409 183.515 126.004C183.569 127.221 183.425 128.437 183.09 129.608C182.433 132.898 181.652 136.163 180.831 139.416C179.149 146.084 177.358 152.774 175.035 159.252C174.018 162.089 178.533 163.31 179.543 160.494C182.102 153.082 184.265 145.538 186.02 137.895C186.93 134.543 187.64 131.139 188.146 127.702C188.404 125.741 188.026 123.75 187.067 122.02C186.389 121.076 185.483 120.318 184.434 119.817C183.385 119.315 182.227 119.086 181.066 119.151C178.058 119.111 178.056 123.784 181.066 123.825H181.062Z" fill="#211715"/>
<path d="M21.1821 99.288C21.1373 99.4798 21.0295 99.651 20.876 99.7743C20.7224 99.8977 20.532 99.966 20.3351 99.9685C20.1381 99.9709 19.9461 99.9072 19.7895 99.7877C19.633 99.6682 19.521 99.4996 19.4715 99.309C18.5041 95.5794 17.0015 91.123 14.7207 88.4671C11.9375 85.227 7.9157 83.8506 4.18839 83.0502C3.99218 83.0072 3.81656 82.8984 3.69065 82.7419C3.56474 82.5854 3.49609 82.3906 3.49609 82.1897C3.49609 81.9888 3.56474 81.794 3.69065 81.6375C3.81656 81.4809 3.99218 81.3722 4.18839 81.3291C7.87947 80.5463 11.9491 79.1687 14.6552 76.2476C17.2351 73.4679 18.691 67.8734 19.5089 64.0772C19.5507 63.8813 19.6578 63.7055 19.8128 63.5786C19.9677 63.4517 20.1613 63.3813 20.3615 63.379C20.5618 63.3767 20.7569 63.4426 20.9147 63.5658C21.0726 63.6891 21.1838 63.8625 21.23 64.0573C22.1367 67.8536 23.7503 73.4632 26.3314 76.2476C29.0106 79.1395 32.8828 80.5182 36.4606 81.3046C36.6577 81.348 36.8339 81.4578 36.9598 81.6157C37.0856 81.7735 37.1535 81.9697 37.1519 82.1715C37.1504 82.3734 37.0797 82.5686 36.9515 82.7245C36.8233 82.8804 36.6455 82.9875 36.4477 83.028C32.6269 83.7934 28.4381 85.1055 25.6561 88.3444C23.3648 90.9991 22.0596 95.5245 21.1821 99.288Z" fill="#FFDA71"/>
<path d="M18.925 98.6655L18.8081 98.9658L19.4099 97.9341L19.7172 97.7202H20.9604C21.5835 98.4486 21.7619 98.4817 21.4955 97.8195C21.4176 97.5212 21.3335 97.224 21.2431 96.928C21.0873 96.396 20.9234 95.8679 20.7512 95.3436C20.3633 94.1647 19.9181 93.0068 19.4262 91.871C18.6187 89.8905 17.4799 88.0619 16.0588 86.4635C14.5629 84.8863 12.7711 83.6189 10.7856 82.7339C8.74905 81.7991 6.59329 81.4813 4.53567 80.6938L5.56623 81.2944V83.0867L4.53567 83.6873C5.58727 83.2877 6.7557 83.1405 7.84001 82.804C9.05502 82.4249 10.2419 81.961 11.3921 81.4159C13.6481 80.3872 15.6223 78.8287 17.1466 76.873C18.4609 75.0012 19.4715 72.9337 20.1413 70.7469C20.8424 68.6904 21.0959 66.4389 21.8612 64.4245L21.2595 65.4562L19.4613 65.4387L18.8607 64.407C19.6786 66.4167 19.9906 68.6788 20.7384 70.734C21.4419 72.8622 22.4464 74.8788 23.7214 76.7223C25.1848 78.6502 27.0775 80.2104 29.2493 81.2792C30.392 81.8525 31.5763 82.3391 32.792 82.735C33.8763 83.0856 35.0517 83.2515 36.1091 83.6616L35.0774 83.061L35.0669 81.271L36.0975 80.6692C34.0609 81.417 31.9039 81.6951 29.8802 82.5645C27.7769 83.4228 25.8762 84.711 24.2998 86.3467C21.2198 89.6732 19.9427 94.3563 18.925 98.6608C18.2356 101.582 22.7399 102.834 23.4316 99.9029C24.2986 96.2211 25.2497 91.8932 28.0773 89.1708C29.5227 87.8532 31.2422 86.8723 33.1121 86.2988C34.7596 85.7461 37.3266 85.6982 38.5745 84.4059C38.9408 84.0166 39.2051 83.5429 39.3439 83.0267C39.4827 82.5106 39.4918 81.9681 39.3702 81.4477C39.2486 80.9272 39.0003 80.4449 38.6472 80.0436C38.2941 79.6424 37.8473 79.3347 37.3465 79.1479C35.4715 78.6505 33.6253 78.0501 31.8163 77.3497C30.0869 76.5847 28.576 75.3999 27.4207 73.9028C26.3504 72.2792 25.5186 70.5105 24.9506 68.6507C24.3418 66.8537 24.0217 64.9386 23.3674 63.1673C23.1906 62.6919 22.904 62.2651 22.5309 61.9217C22.1577 61.5783 21.7087 61.3281 21.2203 61.1913C20.732 61.0546 20.2183 61.0353 19.7211 61.1351C19.2238 61.2348 18.7573 61.4507 18.3594 61.7651C16.9363 62.9125 16.8557 65.3195 16.4011 66.9845C15.9263 68.9004 15.2446 70.759 14.3681 72.5276C12.481 76.117 8.85538 77.7575 5.07549 78.7203C3.14173 79.2192 1.07827 79.8712 1.16474 82.3144C1.25938 84.885 3.67454 85.26 5.6562 85.8197C7.80401 86.3473 9.8199 87.3123 11.5778 88.6543C13.216 90.0975 14.4808 91.9155 15.2642 93.9532C15.7487 95.1097 16.1703 96.2916 16.5273 97.4935C16.7503 98.6274 17.1032 99.7319 17.5789 100.785C17.9282 101.339 18.4379 101.774 19.0403 102.032C19.6426 102.289 20.309 102.357 20.951 102.227C21.5307 102.092 22.0648 101.807 22.4999 101.401C22.9349 100.994 23.2558 100.481 23.4304 99.9122C23.5913 99.3142 23.5097 98.6769 23.2034 98.1388C22.8972 97.6006 22.3909 97.205 21.7946 97.0379C21.1989 96.8903 20.5692 96.9768 20.0353 97.2796C19.5015 97.5824 19.1041 98.0784 18.925 98.6655Z" fill="#211715"/>
</g>
<defs>
<clipPath id="clip0_296_1729">
<rect width="241" height="349" fill="white" transform="translate(-7)"/>
</clipPath>
</defs>
</svg>
