<svg width="684" height="684" viewBox="0 0 684 684" fill="none" xmlns="http://www.w3.org/2000/svg">
<g clip-path="url(#clip0_607_404)">
<path d="M274.161 288.481C283.841 285.127 292.223 278.816 298.121 270.439C287.022 265.055 277.264 257.262 269.559 247.628C260.922 237.031 254.622 224.728 251.072 211.527L247.426 210.964C243.328 210.279 239.477 208.543 236.25 205.926C235.684 205.468 235.14 204.992 234.617 204.496C231.762 209.806 229.935 215.607 229.231 221.594C228.803 225.185 228.626 228.801 228.699 232.416C228.832 240.999 230.995 249.782 231.426 258.365C231.825 266.948 228.266 276.762 220.115 279.524C216.403 285.504 247.435 297.976 274.161 288.481Z" fill="#957F6E"/>
<path d="M230.94 206.195C227.126 213.515 224.952 221.577 224.571 229.822C224.012 238.948 225.667 247.761 226.7 256.788C227.436 263.215 227.723 270.371 223.538 275.807C222.835 276.726 221.994 277.53 221.044 278.19C219.463 279.27 217.459 279.524 216.405 281.275C215.984 282.01 215.714 282.821 215.61 283.661C215.506 284.501 215.57 285.354 215.798 286.169C216.545 289.077 219.279 291.2 221.7 292.691C224.99 294.612 228.517 296.093 232.192 297.097C242.17 299.991 252.646 300.755 262.938 299.34C276.671 297.716 289.324 291.088 298.477 280.723C299.249 279.911 299.679 278.833 299.679 277.712C299.679 276.592 299.249 275.514 298.477 274.702C297.674 273.909 296.59 273.465 295.462 273.465C294.333 273.465 293.249 273.909 292.446 274.702C288.028 279.704 282.644 283.761 276.617 286.629C270.591 289.497 264.047 291.116 257.378 291.39C251.622 291.76 245.841 291.39 240.179 290.29C237.63 289.792 235.115 289.135 232.648 288.323C231.642 287.989 230.654 287.613 229.669 287.23C228.656 286.829 230.235 287.487 229.627 287.211C229.386 287.102 229.143 286.996 228.903 286.884C228.449 286.673 227.997 286.453 227.551 286.221C226.682 285.767 225.875 285.234 225.041 284.72C224.097 284.136 225.61 285.33 224.745 284.493C224.495 284.251 224.23 283.961 223.962 283.741C223.235 283.152 224.438 284.557 223.998 283.797C223.411 282.781 224.216 284.722 223.998 283.906C223.78 283.09 224.028 285.126 224.06 284.294C224.007 285.694 223.865 285.387 223.98 285.004C224.087 284.658 223.372 286.21 223.78 285.511L221.234 287.462C224.153 286.356 226.791 284.618 228.958 282.372C231.126 280.126 232.769 277.428 233.771 274.471C236.276 267.923 235.783 261.068 234.894 254.263C232.96 239.46 230.915 224.23 238.284 210.485C240.873 205.656 233.524 201.35 230.931 206.188L230.94 206.195Z" fill="#211715"/>
<path d="M508.971 609.029C523.268 605.35 525.161 607.374 540.519 596.116C553.534 586.575 571.265 578.308 579.016 563.447C582.526 556.185 583.974 548.099 583.203 540.07C582.024 520.348 578.314 500.859 572.166 482.082C565.491 462.293 553.361 441.897 546.159 422.297C540.892 407.956 535.662 393.6 530.794 379.119C525.493 363.356 519.617 347.062 507.731 335.431C501.178 329.022 493.163 324.407 484.997 320.162C478.582 316.376 472.666 313.144 467.869 310.582C471.284 305.836 473.192 300.172 473.345 294.327C473.168 282.987 463.604 273.549 452.92 269.749C449.44 268.507 445.792 267.721 442.454 266.157C435.357 262.834 427.137 252.583 416.198 248.856L267.219 247.208C256.144 250.967 247.277 261.328 240.179 264.649C236.833 266.213 233.186 267.003 229.712 268.239C219.027 272.041 209.465 281.479 209.288 292.817C209.186 299.28 212.078 305.388 215.873 310.685C211.115 313.22 205.266 316.419 198.932 320.157C190.772 324.402 182.751 329.016 176.198 335.426C164.312 347.056 158.438 363.351 153.136 379.113C148.266 393.595 143.036 407.95 137.769 422.292C130.57 441.895 118.432 462.291 111.761 482.077C105.609 500.854 101.895 520.345 100.713 540.069C99.9413 548.097 101.39 556.184 104.899 563.445C112.645 578.306 130.375 586.573 143.396 596.114C158.754 607.372 160.647 605.348 174.944 609.028L508.971 609.029Z" fill="#FFDA71"/>
<path d="M435.54 156.47C437.09 155.125 438.912 154.131 440.882 153.555C442.851 152.978 444.922 152.834 446.953 153.132C448.945 153.413 450.848 154.137 452.524 155.251C454.199 156.365 455.603 157.84 456.633 159.568C457.828 161.953 458.508 164.563 458.627 167.228C459.498 177.652 457.485 188.115 452.81 197.472C450.607 202.202 447.408 206.4 443.433 209.78C440.206 212.398 436.355 214.134 432.256 214.819L430.342 215.115C429.425 218.55 428.391 221.441 427.887 222.978C424.727 231.553 407.473 260.612 385.487 272.514C387.128 279.74 385.878 288.374 396.169 292.091C396.834 292.33 415.598 297.814 424.981 300.885C420.984 308.82 406.176 317.476 393.242 321.464C393.242 321.464 376.539 326.894 341.379 326.894C306.219 326.894 287.526 319.753 287.526 319.753C275.207 315.945 261.221 308.4 256.243 301.303C257.932 300.771 259.112 300.39 259.112 300.39C268.853 297.262 285.8 292.307 286.432 292.078C296.168 288.562 295.575 280.646 296.87 273.685C286.299 268.295 276.993 260.723 269.564 251.47C260.925 240.874 254.623 228.571 251.072 215.369L247.426 214.806C243.327 214.122 239.477 212.386 236.249 209.768C232.274 206.388 229.076 202.19 226.872 197.46C222.197 188.102 220.184 177.64 221.055 167.216C221.175 164.551 221.853 161.941 223.047 159.556C224.078 157.828 225.483 156.353 227.158 155.239C228.834 154.125 230.738 153.401 232.73 153.119C234.761 152.824 236.831 152.97 238.8 153.549C240.769 154.127 242.59 155.124 244.139 156.47C244.139 156.47 244.039 65.2705 341.809 65.2705C439.578 65.2705 435.54 156.47 435.54 156.47Z" fill="white"/>
<path d="M465.449 394.927C466.868 414.264 464.989 438.579 445.899 449.003C441.088 451.63 445.381 458.986 450.196 456.356C472 444.449 475.614 417.388 473.968 394.927C473.941 393.806 473.484 392.738 472.691 391.945C471.898 391.153 470.831 390.696 469.71 390.669C468.584 390.679 467.506 391.13 466.71 391.927C465.914 392.723 465.462 393.8 465.452 394.927H465.449Z" fill="#211715"/>
<path d="M170.337 517.122C165.756 519.59 161.133 521.976 156.538 524.417C155.571 524.994 154.868 525.927 154.582 527.017C154.297 528.106 154.45 529.264 155.011 530.242C155.598 531.198 156.531 531.891 157.617 532.176C158.702 532.461 159.856 532.315 160.837 531.769C165.432 529.33 170.062 526.942 174.635 524.476C175.603 523.899 176.305 522.965 176.591 521.875C176.876 520.786 176.723 519.627 176.163 518.65C175.576 517.693 174.642 517 173.557 516.716C172.471 516.431 171.317 516.577 170.337 517.122Z" fill="#211715"/>
<path d="M510.108 613.133C518.21 611.07 526.268 610.08 533.634 605.836C538.591 602.98 543.065 599.389 547.812 596.214C552.441 593.116 557.176 590.182 561.74 586.989C571.167 580.398 579.999 572.663 584.423 561.772C589.642 548.921 587.302 534.353 585.488 521.035C583.67 507.153 580.499 493.483 576.021 480.218C571.515 467.111 565.233 454.693 559.336 442.181C553.415 429.62 548.603 416.748 543.902 403.695C539.259 390.824 535.199 377.715 530.283 364.949C525.848 353.418 520.272 342.091 511.515 333.183C502.171 323.678 489.737 317.776 478.231 311.372C475.642 309.931 473.04 308.512 470.425 307.114C465.592 304.529 461.287 311.879 466.126 314.465C471.764 317.481 477.26 320.731 482.852 323.827C488.289 326.632 493.546 329.772 498.593 333.23C508.203 340.225 514.632 350.102 519.433 360.819C524.608 372.367 528.126 384.67 532.337 396.582C536.941 409.595 541.399 422.741 546.925 435.395C552.258 447.607 558.469 459.419 563.663 471.694C568.656 483.688 572.414 496.159 574.881 508.915C576.218 515.628 577.254 522.392 577.987 529.206C578.919 535.63 579.221 542.13 578.888 548.613C577.866 560.108 571.379 568.736 562.657 575.755C558.069 579.293 553.304 582.596 548.382 585.651C543.06 589.107 538.005 592.925 532.704 596.386C530.687 597.734 528.585 598.95 526.41 600.026C524.828 600.768 523.179 601.362 521.487 601.8C516.992 603.028 512.365 603.752 507.848 604.898C502.54 606.249 504.79 614.463 510.112 613.108L510.108 613.133Z" fill="#211715"/>
<path d="M209.94 394.927C208.291 417.39 211.904 444.449 233.713 456.356C238.524 458.984 242.826 451.634 238.009 449.003C218.919 438.579 217.037 414.262 218.456 394.927C218.446 393.8 217.994 392.723 217.198 391.927C216.402 391.13 215.324 390.679 214.198 390.669C213.075 390.69 212.005 391.145 211.211 391.939C210.417 392.733 209.961 393.804 209.94 394.927Z" fill="#211715"/>
<path d="M176.068 604.922C168.371 602.962 160.796 602.109 154.336 598.344C149.475 595.506 145.07 591.986 140.399 588.86C136.046 585.947 131.598 583.183 127.286 580.201C118.886 574.402 110.274 567.339 106.884 557.336C105.059 551.489 104.426 545.336 105.021 539.24C105.507 532.391 106.24 525.554 107.292 518.768C109.273 505.398 112.578 492.258 117.158 479.542C121.612 467.434 127.529 455.928 132.982 444.256C138.758 431.893 143.463 419.187 148.092 406.363C152.623 393.811 156.637 381.061 161.338 368.576C165.93 356.381 171.967 344.475 182.011 335.866C187.269 331.598 192.98 327.922 199.042 324.904C205.342 321.556 211.46 317.865 217.756 314.499C222.591 311.913 218.289 304.565 213.458 307.146C207.726 310.211 202.148 313.55 196.441 316.658C190.766 319.556 185.311 322.867 180.12 326.565C170.111 334.335 162.253 344.532 157.29 356.191C151.84 368.263 148.065 381.028 143.667 393.504C139.001 406.719 134.54 420.115 128.838 432.936C123.218 445.569 116.835 457.849 111.552 470.631C106.299 483.555 102.443 497.004 100.051 510.747C98.7981 517.691 97.8507 524.693 97.1553 531.713C96.2369 538.594 96.1774 545.562 96.9779 552.457C98.7714 564.552 105.892 574.278 115.231 581.794C123.991 588.853 133.802 594.498 142.945 601.032C147.064 604.123 151.538 606.71 156.272 608.737C159.672 609.968 163.175 610.897 166.739 611.511C169.102 612.004 171.454 612.54 173.794 613.135C179.107 614.488 181.374 606.278 176.058 604.924L176.068 604.922Z" fill="#211715"/>
<path d="M507.839 523.044C510.744 523.803 513.602 524.73 516.399 525.821C516.745 525.957 517.089 526.099 517.435 526.239C517.967 526.454 516.665 525.901 517.181 526.135L517.685 526.355C518.339 526.648 518.99 526.954 519.637 527.274C520.863 527.884 522.048 528.574 523.185 529.339C524.162 529.901 525.321 530.056 526.411 529.77C527.501 529.484 528.435 528.78 529.011 527.811C529.554 526.83 529.698 525.677 529.414 524.592C529.129 523.507 528.438 522.574 527.483 521.985C524.796 520.256 521.93 518.823 518.934 517.712C516.053 516.574 513.105 515.611 510.108 514.827C509.019 514.527 507.856 514.671 506.873 515.229C505.891 515.787 505.171 516.712 504.87 517.801C504.57 518.89 504.715 520.054 505.273 521.036C505.831 522.018 506.756 522.739 507.845 523.039L507.839 523.044Z" fill="#211715"/>
<path d="M251.737 302.12C255.493 308.76 262.841 313.284 269.387 316.761C275.03 319.666 280.901 322.106 286.941 324.054C295.358 326.696 304.015 328.497 312.787 329.431C330.68 331.579 348.75 331.806 366.691 330.109C375.741 329.52 384.715 328.088 393.499 325.832C399.701 324.015 405.671 321.486 411.291 318.294C418.534 314.249 426.558 308.804 429.636 300.741C429.927 299.653 429.779 298.494 429.222 297.514C428.666 296.534 427.747 295.812 426.663 295.504C425.575 295.229 424.422 295.384 423.446 295.938C422.47 296.492 421.745 297.402 421.424 298.478C421.602 298.018 421.053 299.21 420.892 299.478C420.567 300.039 420.205 300.578 419.81 301.091C418.774 302.334 417.633 303.486 416.4 304.534C413.496 306.994 410.341 309.141 406.987 310.94C402.149 313.685 397.02 315.88 391.695 317.487C384.68 319.394 377.505 320.654 370.261 321.251C353.27 323.06 336.142 323.184 319.127 321.62C309.472 320.847 299.923 319.069 290.636 316.316C286.323 315.006 282.1 313.415 277.995 311.554C271.377 308.478 262.676 304.172 259.085 297.821C256.388 293.051 249.028 297.339 251.732 302.12H251.737Z" fill="#211715"/>
<path d="M341.315 434.054C271.266 434.561 201.553 434.967 176.801 435.052C175.866 435.055 174.94 435.241 174.076 435.602C173.213 435.962 172.429 436.49 171.77 437.154C171.111 437.818 170.589 438.605 170.235 439.471C169.88 440.337 169.7 441.264 169.705 442.2C169.847 482.416 171.788 621.595 173.266 672.751C173.32 674.626 174.111 676.404 175.468 677.7C176.824 678.995 178.637 679.703 180.513 679.67C202.883 679.326 272.167 679.539 341.314 679.775C410.462 679.539 479.746 679.326 502.115 679.67C503.99 679.703 505.803 678.995 507.16 677.7C508.518 676.404 509.309 674.626 509.363 672.751C510.841 621.595 512.78 482.416 512.924 442.2C512.929 441.264 512.749 440.337 512.394 439.471C512.04 438.605 511.518 437.818 510.859 437.154C510.2 436.49 509.416 435.962 508.553 435.602C507.689 435.241 506.763 435.055 505.828 435.052C481.078 434.967 411.367 434.561 341.315 434.054Z" fill="white"/>
<path d="M341.825 430.382C292.871 430.737 243.915 431.044 194.957 431.304L183.708 431.356C180.325 431.37 176.466 430.916 173.273 432.16C168.151 434.155 165.941 438.855 165.962 444.101C165.973 446.499 165.987 448.898 166.005 451.296C166.098 465.108 166.235 478.919 166.414 492.729C166.851 529.538 167.389 566.347 168.029 603.156C168.316 619.621 168.639 636.087 168.996 652.552C169.138 658.821 169.293 665.083 169.462 671.34C169.615 676.818 171.467 681.718 176.993 683.799C180.076 684.959 183.734 684.471 186.969 684.443C231.829 684.04 276.701 684.4 321.563 684.549C372.656 684.726 423.762 684.251 474.862 684.343C482.38 684.357 489.901 684.377 497.419 684.45C501.052 684.483 504.87 684.936 508.196 683.123C512.986 680.51 514.065 675.849 514.203 670.827C514.593 656.748 514.881 642.667 515.154 628.589C515.871 591.689 516.462 554.788 516.928 517.888C517.142 501.657 517.333 485.427 517.501 469.198C517.564 463.014 517.617 456.829 517.661 450.643C517.675 448.284 517.707 445.926 517.7 443.567C517.825 440.94 517.063 438.348 515.535 436.208C514.008 434.067 511.805 432.503 509.28 431.768C506.137 430.905 502.392 431.367 499.149 431.352C495.331 431.336 491.513 431.318 487.694 431.299C478.174 431.253 468.653 431.202 459.132 431.147C433.791 431.001 408.452 430.843 383.116 430.671C369.353 430.578 355.588 430.481 341.825 430.382C336.345 430.343 336.341 438.858 341.826 438.897C390.103 439.252 438.381 439.556 486.659 439.809L497.481 439.861C500.396 439.873 503.433 439.646 506.337 439.896C509.562 440.173 509.175 443.304 509.161 445.763C509.148 448.167 509.133 450.571 509.115 452.973C509.016 466.734 508.877 480.496 508.698 494.258C508.27 530.183 507.744 566.106 507.121 602.028C506.841 618.205 506.527 634.382 506.181 650.56C506.039 656.91 505.885 663.261 505.718 669.612C505.656 671.861 506.208 675.446 503.234 675.98C501.884 676.092 500.526 676.082 499.177 675.952C497.703 675.937 496.228 675.923 494.751 675.911C450.531 675.569 406.304 675.886 362.084 676.034C311.946 676.199 261.807 675.755 211.669 675.824C203.815 675.835 195.961 675.853 188.107 675.918C185.533 676.178 182.939 676.189 180.362 675.952C177.273 675.333 177.971 671.261 177.907 668.904C177.527 654.775 177.24 640.647 176.968 626.517C176.276 590.495 175.704 554.472 175.251 518.447C175.04 502.606 174.852 486.766 174.687 470.928C174.624 464.716 174.57 458.507 174.524 452.3C174.506 449.935 174.491 447.569 174.479 445.204C174.467 442.396 174.49 439.941 177.942 439.9C219.088 439.396 260.258 439.463 301.398 439.19C314.871 439.099 328.346 439.005 341.821 438.908C347.303 438.858 347.315 430.343 341.825 430.382Z" fill="#211715"/>
<path d="M203.495 653.723C237.44 653.511 271.388 653.692 305.325 653.797C346.763 653.925 388.201 653.73 429.639 653.669C446.138 653.645 462.637 653.62 479.135 653.723C484.615 653.756 484.622 645.241 479.135 645.207C445.191 644.996 411.243 645.177 377.305 645.282C335.865 645.409 294.429 645.214 252.989 645.154C236.49 645.129 219.992 645.104 203.493 645.207C198.015 645.241 198.004 653.756 203.495 653.723Z" fill="#211715"/>
<path d="M275.869 339.893C266.38 339.139 256.91 335.458 248.448 331.139C239.255 326.671 230.877 320.692 223.662 313.45C217.001 306.475 210.728 296.242 214.9 286.442C216.822 282.213 219.892 278.607 223.762 276.036C228.541 272.763 233.774 271.666 239.114 269.671C249.803 265.676 256.867 255.672 267.563 251.59C268.634 251.262 269.539 250.536 270.092 249.562C270.645 248.588 270.804 247.439 270.536 246.351C270.229 245.267 269.507 244.347 268.527 243.791C267.547 243.234 266.388 243.086 265.299 243.378C259.555 245.747 254.196 248.96 249.4 252.911C245.728 255.75 242.1 259.175 237.807 261.072C234.745 262.429 231.397 263.085 228.257 264.239C225.566 265.207 222.985 266.455 220.556 267.964C215.516 271.042 211.332 275.34 208.39 280.46C195.411 304.096 221.892 326.138 240.221 336.391C251.135 342.497 263.302 347.407 275.869 348.406C276.995 348.397 278.073 347.946 278.87 347.149C279.666 346.353 280.118 345.275 280.127 344.149C280.105 343.026 279.649 341.956 278.856 341.162C278.062 340.368 276.991 339.914 275.869 339.893Z" fill="#211715"/>
<path d="M260.248 304.502C268.989 301.702 277.812 299.146 286.589 296.492C291.055 295.311 294.916 292.501 297.411 288.615C299.861 284.535 300.134 279.809 300.911 275.242C301.177 274.155 301.017 273.006 300.463 272.033C299.909 271.06 299.004 270.336 297.933 270.009C296.844 269.718 295.684 269.867 294.705 270.423C293.725 270.98 293.003 271.9 292.696 272.984C292.341 275.113 292.11 277.252 291.706 279.371C291.527 280.348 291.29 281.313 290.996 282.262C290.945 282.417 290.352 283.846 290.657 283.206C290.48 283.587 290.278 283.964 290.06 284.325C289.06 285.882 287.6 287.087 285.882 287.772C285.092 288.077 284.285 288.336 283.465 288.549C274.962 291.093 266.443 293.591 257.99 296.3C252.79 297.966 255.013 306.19 260.254 304.51L260.248 304.502Z" fill="#211715"/>
<path d="M424.626 296.292C416.393 293.652 408.095 291.211 399.809 288.738C397.285 288.231 394.967 286.992 393.144 285.175C392.56 284.507 393.183 285.314 392.757 284.643C392.451 284.163 392.176 283.664 391.934 283.149C392.244 283.813 391.78 282.734 391.732 282.592C391.554 282.06 391.391 281.508 391.253 280.958C390.808 278.987 390.466 276.993 390.229 274.985C389.923 273.9 389.202 272.979 388.221 272.423C387.241 271.866 386.081 271.718 384.992 272.012C383.921 272.337 383.016 273.061 382.463 274.035C381.91 275.009 381.753 276.157 382.022 277.244C382.702 282.007 383.488 286.635 386.567 290.51C389.181 293.532 392.663 295.675 396.539 296.646C405.158 299.231 413.797 301.756 422.366 304.502C427.597 306.178 429.836 297.959 424.629 296.292H424.626Z" fill="#211715"/>
<path d="M415.057 252.961C423.881 256.087 430.04 263.442 437.738 268.395C442.228 271.285 447.477 272.179 452.386 274.072C456.567 275.699 460.333 278.238 463.408 281.505C466.336 284.485 468.275 288.295 468.963 292.415C469.672 297.605 467.71 302.677 465.069 307.037C459.535 316.166 450.66 322.597 441.431 327.634C435.577 330.827 429.487 333.77 423.368 336.444C418.129 338.979 412.516 340.651 406.744 341.397C405.623 341.425 404.556 341.882 403.764 342.675C402.971 343.467 402.514 344.534 402.486 345.654C402.494 346.781 402.945 347.859 403.742 348.656C404.539 349.453 405.617 349.904 406.744 349.912C419.352 348.848 431.087 342.413 442.198 336.827C452.959 331.418 463.197 324.366 470.313 314.502C477.375 304.713 480.258 292.327 473.912 281.425C471.084 276.741 467.213 272.772 462.601 269.827C457.62 266.548 452.049 265.189 446.503 263.227C441.698 261.526 437.929 257.983 434.016 254.847C429.063 250.558 423.418 247.143 417.32 244.747C416.232 244.447 415.068 244.591 414.086 245.149C413.104 245.707 412.384 246.631 412.083 247.72C411.783 248.809 411.928 249.972 412.485 250.954C413.043 251.937 413.968 252.657 415.057 252.957V252.961Z" fill="#211715"/>
<path d="M386.569 95.3458C389.952 106.583 395.207 121.032 399.108 127.491C404.43 136.294 418.875 155.521 432.662 160.744C434.589 155.301 441.066 152.246 446.952 153.126C447.553 153.214 448.146 153.348 448.726 153.527C456.759 135.045 452.706 103.803 449.496 88.2212C439.583 39.9477 390.598 1.62841 339.229 4.43495C287.86 1.62841 238.877 39.9477 228.958 88.2212C226.272 101.241 226.593 123.516 229.036 133.91L232.88 153.116C235.513 152.71 238.207 153.09 240.624 154.21C243.042 155.329 245.074 157.138 246.468 159.408C265.86 144.733 299.866 123.548 316.709 109.558C315.242 118.357 310.03 133.33 316.596 131.786C344.166 125.614 370.582 113.131 386.438 93.632" fill="#957F6E"/>
<path d="M233.141 132.779C231.98 127.052 231.391 121.224 231.383 115.38C231.164 108.475 231.437 101.562 232.201 94.6951C233.881 82.2013 238.217 70.212 244.917 59.5336C258.75 37.1432 280.255 20.549 305.421 12.8461C311.636 10.9328 318.027 9.64203 324.497 8.99289C331.303 8.34537 338.197 8.51035 345.021 8.54406C358.238 8.66083 371.302 11.3952 383.456 16.5893C407.627 26.7902 427.256 45.4429 438.677 69.062C443.487 79.9577 446.541 91.5469 447.724 103.399C449.367 116.487 450.275 130.364 447.447 143.362C446.801 146.398 445.876 149.367 444.685 152.233C444.391 153.322 444.539 154.484 445.096 155.465C445.654 156.446 446.576 157.168 447.662 157.473C448.75 157.744 449.9 157.586 450.875 157.033C451.849 156.479 452.574 155.573 452.899 154.5C458.315 141.619 458.237 126.495 457.192 112.794C456.217 99.9871 454.439 86.7616 450.096 74.6165C440.64 48.1123 420.407 25.9953 395.583 12.9738C382.933 6.30357 369.131 2.09554 354.912 0.573285C347.876 0.0174513 340.815 -0.164348 333.76 0.0286537C326.571 0.0597252 319.403 0.817547 312.366 2.29056C284.528 8.33989 259.846 24.3235 242.938 47.2519C234.672 58.3235 228.725 70.9496 225.454 84.3737C222.487 98.1255 221.845 112.277 223.556 126.241C223.841 129.198 224.3 132.135 224.931 135.037C226.153 140.377 234.365 138.117 233.141 132.773V132.779Z" fill="#211715"/>
<path d="M382.463 96.4775C384.49 103.178 386.743 109.818 389.31 116.333C391.204 121.533 393.595 126.538 396.451 131.279C402.36 140.792 409.687 149.347 418.179 156.648C423.063 160.707 428.595 164.469 434.898 165.835C440.24 166.994 442.526 158.785 437.162 157.623C427.353 155.495 419.219 146.688 412.884 139.227C406.675 132.127 401.661 124.066 398.037 115.359C395.246 108.44 392.835 101.344 390.675 94.2103C389.092 88.9786 380.869 91.2086 382.463 96.4739V96.4775Z" fill="#211715"/>
<path d="M383.427 90.615C374.15 101.472 362.613 110.172 349.625 116.108C342.958 119.286 336.061 121.955 328.991 124.091C325.236 125.244 321.445 126.272 317.617 127.174L316.541 127.426L316.186 127.508C315.384 127.659 315.223 127.706 315.703 127.646C315.803 127.469 315.59 127.583 315.943 127.666C316.244 127.713 316.536 127.808 316.807 127.948C317.141 128.172 317.428 128.46 317.651 128.796C317.241 128.329 317.667 128.915 317.747 129.059C317.668 128.864 317.619 128.659 317.6 128.45C317.6 129.087 317.616 128.805 317.628 128.335C317.786 122.695 319.791 116.653 320.821 110.679C321.038 109.78 320.959 108.835 320.596 107.985C320.233 107.134 319.605 106.424 318.806 105.958C318.007 105.493 317.079 105.298 316.16 105.402C315.241 105.507 314.38 105.905 313.706 106.537C305.19 113.598 295.896 119.924 286.717 126.229C276.25 133.419 265.675 140.464 255.286 147.771C250.151 151.383 245.068 155.073 240.131 158.948C239.338 159.749 238.894 160.831 238.894 161.958C238.894 163.085 239.338 164.167 240.131 164.969C240.942 165.742 242.02 166.173 243.141 166.173C244.262 166.173 245.34 165.742 246.152 164.969C264.68 150.391 285.617 137.725 304.976 123.798C309.994 120.188 314.965 116.495 319.727 112.549L312.609 108.407C311.522 114.738 309.239 121.056 309.114 127.522C308.946 128.961 309.152 130.419 309.711 131.755C310.271 133.091 311.165 134.261 312.308 135.151C315.364 137.102 319.209 135.555 322.39 134.757C339.025 130.842 354.856 124.073 369.178 114.749C376.774 109.722 383.601 103.622 389.448 96.6379C390.218 95.8242 390.647 94.7466 390.647 93.6265C390.647 92.5063 390.218 91.4287 389.448 90.615C388.646 89.8248 387.564 89.3818 386.438 89.3818C385.311 89.3818 384.23 89.8248 383.427 90.615Z" fill="#211715"/>
<path d="M427.848 204.192C427.613 208.299 426.852 212.359 425.582 216.272C425.128 217.796 424.628 219.304 424.122 220.81C423.985 221.216 423.854 221.628 423.705 222.03C423.588 222.346 423.058 223.531 423.606 222.307C421.757 226.337 419.631 230.233 417.242 233.968C410.521 245.097 401.941 254.99 391.874 263.217C386.382 267.734 379.961 270.984 373.069 272.734C367.731 273.96 369.991 282.172 375.332 280.945C389.62 277.661 401.588 267.354 410.991 256.571C418.905 247.819 425.52 237.975 430.631 227.34C434.01 220.065 435.955 212.207 436.359 204.196C436.537 198.716 428.021 198.721 427.844 204.196L427.848 204.192Z" fill="#211715"/>
<path d="M243.895 202.817C249.086 232.77 265.319 262.081 293.068 276.536C300.565 280.442 308.737 282.887 317.147 283.74C318.274 283.733 319.353 283.282 320.15 282.485C320.947 281.689 321.398 280.61 321.405 279.483C321.381 278.361 320.924 277.292 320.131 276.499C319.338 275.706 318.269 275.249 317.147 275.225C288.532 272.259 266.232 246.595 257.247 220.813C254.981 214.212 253.26 207.436 252.102 200.554C251.794 199.47 251.073 198.55 250.093 197.994C249.113 197.438 247.954 197.289 246.865 197.58C245.79 197.902 244.881 198.626 244.327 199.602C243.773 200.577 243.617 201.729 243.892 202.817H243.895Z" fill="#211715"/>
<path d="M438.551 159.476C439.573 158.633 440.757 158.007 442.028 157.634C443.3 157.261 444.635 157.15 445.95 157.308C447.266 157.465 448.537 157.888 449.685 158.55C450.833 159.213 451.834 160.101 452.629 161.162C454.006 163.757 454.66 166.673 454.524 169.608C454.704 173.21 454.501 176.821 453.917 180.38C451.765 192.961 445.136 208.301 431.119 210.716C430.037 211.024 429.12 211.745 428.564 212.723C428.009 213.701 427.859 214.858 428.148 215.946C428.47 217.021 429.194 217.93 430.17 218.484C431.146 219.038 432.298 219.195 433.386 218.921C447.894 216.428 456.506 202.724 460.476 189.649C462.567 182.78 463.414 175.592 462.976 168.424C462.52 161.394 460.394 154.782 453.912 151.122C450.541 149.264 446.679 148.491 442.852 148.908C439.025 149.326 435.421 150.914 432.53 153.455C431.74 154.258 431.298 155.339 431.298 156.466C431.298 157.592 431.74 158.673 432.53 159.476C433.339 160.254 434.418 160.688 435.54 160.688C436.662 160.688 437.741 160.254 438.551 159.476Z" fill="#211715"/>
<path d="M247.149 153.455C244.621 151.216 241.532 149.707 238.213 149.088C234.894 148.468 231.469 148.762 228.303 149.938C221.324 152.692 217.837 158.564 216.95 165.789C215.276 180.072 218.921 194.472 227.189 206.238C231.672 212.784 238.523 217.332 246.296 218.922C247.384 219.189 248.533 219.03 249.507 218.476C250.481 217.923 251.207 217.018 251.535 215.947C251.825 214.858 251.676 213.699 251.119 212.719C250.563 211.739 249.643 211.018 248.56 210.71C234.545 208.303 227.913 192.97 225.763 180.374C225.202 176.946 224.993 173.47 225.14 169.999C225.247 167.065 225.378 163.687 227.051 161.156C227.845 160.094 228.847 159.205 229.995 158.542C231.143 157.879 232.413 157.456 233.73 157.299C235.046 157.141 236.38 157.252 237.652 157.626C238.924 157.999 240.107 158.626 241.13 159.47C241.942 160.242 243.02 160.673 244.14 160.673C245.261 160.673 246.339 160.242 247.151 159.47C247.94 158.667 248.383 157.586 248.383 156.46C248.383 155.334 247.94 154.252 247.151 153.449L247.149 153.455Z" fill="#211715"/>
<path d="M323.232 239.748C328.837 242.643 335.079 244.085 341.386 243.94C347.845 243.899 354.422 242.649 359.602 238.618C360.395 237.817 360.839 236.735 360.839 235.607C360.839 234.48 360.395 233.398 359.602 232.597C358.79 231.824 357.712 231.394 356.591 231.394C355.471 231.394 354.393 231.824 353.581 232.597C354.84 231.616 353.748 232.446 353.425 232.652C353.056 232.89 352.674 233.11 352.286 233.312C352.018 233.454 350.68 234.011 351.741 233.606C351.22 233.805 350.703 234.007 350.171 234.178C347.144 235.143 343.97 235.567 340.795 235.43C337.768 235.513 334.747 235.106 331.849 234.225C331.272 234.048 330.712 233.848 330.144 233.652C329.966 233.59 329.789 233.495 329.596 233.44C330.642 233.746 329.896 233.574 329.617 233.44C328.907 233.108 328.219 232.762 327.531 232.398C326.55 231.852 325.396 231.707 324.311 231.991C323.225 232.276 322.291 232.969 321.705 233.926C321.147 234.903 320.995 236.061 321.28 237.149C321.566 238.238 322.267 239.172 323.232 239.75V239.748Z" fill="#211715"/>
<path d="M339.463 196.67C340.312 199.733 340.991 202.84 341.498 205.977L341.345 204.845C341.406 205.271 341.417 205.702 341.379 206.13L341.532 204.998C341.503 205.194 341.456 205.388 341.391 205.576L341.821 204.558C341.764 204.688 341.695 204.812 341.617 204.93L342.282 204.068C342.192 204.179 342.09 204.28 341.977 204.368L342.839 203.703C342.603 203.85 342.357 203.98 342.103 204.093L343.119 203.664C342.721 203.831 342.304 203.95 341.878 204.018L343.009 203.866C342.622 203.913 342.23 203.913 341.842 203.866L342.974 204.018C342.534 203.956 342.103 203.85 341.663 203.791C340.554 203.532 339.388 203.685 338.383 204.221C337.408 204.79 336.699 205.724 336.413 206.816C336.126 207.909 336.285 209.07 336.855 210.045C337.125 210.525 337.49 210.946 337.927 211.281C338.365 211.616 338.865 211.86 339.399 211.996C340.355 212.126 341.281 212.371 342.254 212.413C343.694 212.423 345.116 212.087 346.4 211.434C347.204 211.075 347.918 210.539 348.488 209.867C349.057 209.194 349.468 208.402 349.689 207.549C349.979 206.148 349.964 204.701 349.644 203.307C349.139 200.307 348.445 197.336 347.673 194.396C347.373 193.307 346.653 192.382 345.671 191.825C344.688 191.267 343.525 191.123 342.436 191.423C341.348 191.723 340.423 192.443 339.865 193.425C339.307 194.408 339.163 195.571 339.463 196.66V196.67Z" fill="#211715"/>
<path d="M289.755 170.448C288.201 175.499 289.222 187.124 298.783 188.107C311.43 188.031 312.102 173.984 307.845 167.379C304.359 161.97 294.11 159.723 289.755 170.448Z" fill="#211715"/>
<path d="M391.033 170.448C392.587 175.499 391.576 187.124 382.007 188.107C369.359 188.031 368.685 173.984 372.943 167.379C376.427 161.97 386.678 159.723 391.033 170.448Z" fill="#211715"/>
<path d="M385.7 530.784C385.032 530.657 384.492 530.12 384.363 529.451C384.134 528.256 385.166 527.221 386.364 527.45C387.03 527.577 387.569 528.113 387.699 528.783C387.928 529.978 386.895 531.013 385.7 530.784H385.7Z" fill="#FFDA71"/>
<path d="M378.628 519.472C377.689 519.319 376.934 518.561 376.776 517.625C376.519 516.076 377.844 514.749 379.393 515.003C380.332 515.158 381.089 515.913 381.245 516.852C381.502 518.401 380.177 519.728 378.628 519.471V519.472Z" fill="#FFDA71"/>
<path d="M386.652 536.559C386.739 536.373 386.781 536.173 386.781 535.969L386.776 532.254C388.061 531.951 389.063 530.86 389.231 529.535C389.498 527.427 387.715 525.649 385.609 525.919C384.172 526.102 383.012 527.262 382.832 528.699C382.618 530.388 383.722 531.862 385.251 532.244L385.256 535.634C385.256 535.838 385.213 536.039 385.126 536.222L382.675 541.504H379.793L379.778 520.952C381.34 520.635 382.571 519.327 382.774 517.73C383.087 515.253 380.991 513.162 378.514 513.478C376.825 513.694 375.465 515.06 375.252 516.748C374.995 518.79 376.373 520.566 378.252 520.95L378.27 541.503H371.548V528.446H371.535V528.418H340.572V541.513H319.206V507H392.995L392.998 541.503H384.356L386.653 536.559H386.652Z" fill="#FFDA71"/>
<path d="M344.912 592.799C344.785 593.467 344.245 594.007 343.577 594.134C342.381 594.362 341.347 593.328 341.575 592.132C341.705 591.466 342.244 590.927 342.91 590.8C344.106 590.571 345.141 591.603 344.912 592.799Z" fill="#FFDA71"/>
<path d="M331.176 599.859C331.021 600.798 330.266 601.553 329.327 601.708C327.778 601.965 326.453 600.637 326.708 599.089C326.863 598.15 327.621 597.395 328.559 597.24C330.109 596.983 331.433 598.311 331.177 599.859H331.176Z" fill="#FFDA71"/>
<path d="M392.999 607H319.205V572.479H340.571V585.531H371.534L371.547 572.472H379.386L379.371 594.48L358.31 594.467C358.16 594.467 358.013 594.434 357.875 594.37L352.469 591.855C352.283 591.769 352.082 591.726 351.879 591.726L346.383 591.723C346.081 590.439 344.992 589.437 343.665 589.269C341.559 588.999 339.778 590.779 340.045 592.888C340.228 594.322 341.388 595.482 342.825 595.665C344.511 595.881 345.989 594.78 346.371 593.249L351.541 593.252C351.745 593.252 351.946 593.295 352.131 593.381L357.541 595.896C357.675 595.96 357.823 595.993 357.973 595.993L380.895 596.006V596.001L380.91 572.472H383.637L383.619 598.728L332.66 598.712C332.343 597.148 331.038 595.917 329.44 595.714C326.964 595.399 324.867 597.492 325.183 599.969C325.396 601.657 326.762 603.021 328.448 603.234C330.49 603.494 332.268 602.118 332.655 600.238L385.137 600.254V600.251H385.142L385.162 572.472H392.998L392.999 607Z" fill="#FFDA71"/>
<path d="M300.104 544.792C299.165 544.639 298.408 543.881 298.252 542.943C297.995 541.397 299.32 540.069 300.869 540.323C301.808 540.478 302.566 541.234 302.721 542.172C302.978 543.721 301.653 545.048 300.104 544.792Z" fill="#FFDA71"/>
<path d="M307.176 558.519C306.507 558.392 305.967 557.856 305.838 557.187C305.609 555.991 306.641 554.957 307.837 555.185C308.505 555.313 309.045 555.849 309.175 556.518C309.403 557.713 308.371 558.748 307.176 558.519Z" fill="#FFDA71"/>
<path d="M366.776 533.253V580.721H345.329V567.72H314.447V606.992H305.54L305.52 571.919C305.52 571.769 305.551 571.622 305.614 571.484L308.127 566.075C308.213 565.889 308.257 565.688 308.257 565.485L308.252 559.99C309.536 559.687 310.538 558.596 310.706 557.271C310.971 555.163 309.19 553.385 307.084 553.655C305.647 553.838 304.488 554.998 304.307 556.435C304.094 558.123 305.197 559.598 306.726 559.98L306.731 565.15C306.731 565.354 306.685 565.555 306.601 565.738L304.088 571.15C304.025 571.287 303.991 571.435 303.991 571.584L304.014 606.993H301.291L301.252 546.272C302.814 545.954 304.045 544.647 304.246 543.05C304.561 540.573 302.466 538.482 299.988 538.798C298.3 539.014 296.939 540.379 296.726 542.068C296.466 544.11 297.847 545.886 299.726 546.269L299.765 606.992H293V507H314.447V546.272H345.329V533.253H366.776Z" fill="#FFDA71"/>
</g>
<defs>
<clipPath id="clip0_607_404">
<rect width="684" height="684" fill="white"/>
</clipPath>
</defs>
</svg>
