<svg width="559" height="553" viewBox="0 0 559 553" fill="none" xmlns="http://www.w3.org/2000/svg">
<path d="M389.38 228.899C396.486 225.206 398.693 217.996 398.955 212.399C399.457 201.429 396.181 194.22 394.064 186.651C389.767 171.338 386.174 156.023 385.428 138.954C385.192 133.49 385.094 115.942 384.877 109.341C384.306 90.5826 374.281 70.929 362.202 58.8005L351.951 50.3262C347.441 46.8098 342.43 43.9738 337.08 41.9104C325.997 37.3956 314.139 35.0325 302.154 34.95C282.324 34.3523 262.942 40.8465 247.561 53.2416C227.212 70.3721 217.522 94.4979 219.896 134.288C225.751 164.751 220.776 185.755 222.114 212.882C222.48 220.282 232.324 234.794 242.276 232.773L389.38 228.899Z" fill="#A98A75"/>
<path d="M313.648 92.1074C302.68 104.888 286.025 114.814 268.052 120.409C267.783 120.489 267.499 120.499 267.226 120.438C266.953 120.377 266.7 120.247 266.493 120.062C266.285 119.876 266.129 119.64 266.041 119.377C265.952 119.115 265.934 118.834 265.987 118.562C266.871 113.852 267.484 109.336 267.919 104.641C256.856 116.793 237.237 131.44 223.8 137.616C225.735 148.938 227.043 160.376 228.49 170.82C230.799 187.473 236.358 202.444 248.451 211.709C255.468 217.308 263.747 221.147 272.585 222.9L270.517 224.067C266.778 225.846 262.933 227.399 259.004 228.72C259.011 228.737 259.016 228.755 259.02 228.773L260.33 235.482C261.823 243.155 267.786 249.497 274.899 252.883C282.012 256.27 290.154 257.038 298.039 256.583C324.138 255.079 346.417 241.095 364.666 223.427C360.489 221.83 356.428 219.951 352.513 217.801C349.059 216.085 346.245 213.328 344.477 209.928C343.758 208.06 343.244 206.121 342.942 204.145L342.143 197.695C342.143 197.695 342.034 197.031 341.877 196.063C344.053 193.32 346.009 190.526 347.872 187.626C347.872 187.626 350.795 182.889 352.012 180.191C352.012 180.191 352.332 179.595 352.797 178.734C356.276 178.712 359.693 177.822 362.731 176.146C367.349 173.04 370.925 168.641 373.002 163.513C375.471 158.242 376.402 149.464 373.925 144.424C373.155 142.907 371.991 141.619 370.553 140.693C369.114 139.767 367.453 139.236 365.739 139.153C363.022 138.79 360.268 139.47 358.041 141.052L344.605 138.325C335.847 134.174 325.998 120.924 322.237 113.161C319.036 106.44 316.22 99.5453 313.802 92.5108" fill="white"/>
<path d="M289.236 407.197C299.742 440.216 313.533 483.683 321.044 507.449C321.659 509.388 321.586 511.476 320.837 513.368C320.089 515.259 318.71 516.842 316.928 517.852L316.069 518.339L316.976 517.964C336.298 509.99 398.861 482.491 410.723 477.099L406.308 456.605C406.308 456.605 306.67 413.261 289.236 407.197Z" fill="white"/>
<path d="M359.114 61.1276C367.885 69.3709 374.268 80.8002 377.9 92.133C379.779 97.8491 380.844 103.796 381.065 109.803C381.199 114.198 381.237 118.594 381.297 122.99C381.231 133.873 381.872 144.749 383.215 155.55C385.22 168.53 388.243 181.335 392.258 193.85C395.365 203.874 398.839 219.445 387.447 225.613C383.113 227.961 386.981 234.519 391.321 232.17C403.079 225.805 404.103 211.808 401.835 200.114C400.724 194.378 398.651 188.862 397.102 183.235C395.183 176.246 393.424 169.21 392.052 162.093C390.004 150.482 388.987 138.715 389.014 126.929C388.854 115.979 389.258 104.918 386.489 94.2211C382.857 80.188 375.23 65.8069 364.536 55.7554C360.954 52.3891 355.519 57.7502 359.107 61.1244L359.114 61.1276Z" fill="#211715"/>
<path d="M364.511 468.396C357.87 473.678 352.853 480.845 345.976 487.934C344.987 488.953 340.939 491.625 337.82 489.242C335.767 487.678 335.471 483.743 336.221 482.138C340.264 473.396 341.92 470.748 344.924 464.628C341.263 468.443 338.407 471.642 334.072 475.976L329.654 480.395C325.31 484.739 320.965 489.085 316.621 493.431C311.984 478.776 306.227 460.603 300.481 442.533C305.482 436.193 310.014 429.204 316.183 423.841C320.69 419.659 326.419 416.993 332.55 416.226C335.083 416.074 337.625 416.16 340.142 416.481C344.947 416.967 349.735 417.586 354.505 418.338C363.177 419.706 372.895 421.31 379.829 415.503C388.817 423.371 396.974 438.899 401.479 453.393C399.859 454.171 398.301 455.07 396.819 456.082C395.816 456.761 392.591 459.588 391.523 460.16C383.299 464.49 374.319 467.236 365.059 468.25" fill="white"/>
<path d="M396.777 440.922C392.231 430.651 386.231 421.117 379.803 415.488C372.871 421.308 363.161 419.704 354.493 418.336C349.724 417.584 344.936 416.965 340.129 416.479C337.612 416.158 335.07 416.073 332.537 416.224C326.406 416.991 320.677 419.657 316.17 423.839C311.707 428.005 307.699 432.625 304.215 437.623L170.248 363.727C164.374 348.871 160.813 338.13 156.304 323.072C166.309 319.833 191.066 312.758 203.581 308.043C204.578 300.305 205.965 292.621 207.739 285.02C209.87 274.738 215.11 258.987 225.151 247.463C231.725 239.917 245.052 233.577 257.133 229.456C257.453 229.312 257.977 229.122 258.636 228.9C259.567 232.502 260.335 235.48 260.335 235.48C261.828 243.152 267.791 249.494 274.904 252.881C282.017 256.268 290.159 257.035 298.044 256.581C324.722 255.043 347.409 240.466 365.88 222.242C391.64 229.527 412.054 237.001 426.46 257.573C439.019 275.508 447.781 308.702 451.334 321.711C454.996 335.118 458.813 348.7 461.506 364.223C462.982 372.291 465.726 388.677 465.903 394.74C466.046 399.597 465.206 410.469 463.816 414.865C461.154 424.19 455.552 432.431 447.825 438.387C435.405 448.251 416.194 456.65 403.594 461.348C401.994 454.338 399.711 447.497 396.777 440.922Z" fill="#FFDA71"/>
<path d="M155.93 236.087C156.112 236.056 156.297 236.027 156.488 236.003C157.761 235.855 159.044 235.802 160.325 235.845L158.961 232.515C156.146 225.97 153.334 219.424 150.526 212.876C149.781 211.284 149.191 209.625 148.767 207.921C148.422 206.532 148.376 205.086 148.632 203.678C148.888 202.27 149.44 200.931 150.253 199.748C151.884 197.659 155.21 197.449 157.804 198.411C160.647 199.468 162.222 201.696 163.997 204.512C169.754 213.651 177.346 231.897 180.616 242.219L181.45 244.846C185.036 243.563 188.873 242.896 192.109 244.661C194.712 246.378 196.645 248.922 197.589 251.873C200.05 258.017 201.135 264.616 200.771 271.215C200.407 277.814 198.602 284.257 195.48 290.1C197.995 295.94 200.109 301.94 201.809 308.061L201.956 308.638C192.082 312.232 176.241 316.951 165.044 320.36L164.645 318.886C163.976 316.413 159.972 304.016 157.864 300.999C155.906 298.522 153.638 296.3 151.116 294.385C146.897 290.623 142.905 286.619 139.16 282.394C137.067 280.215 134.705 274.801 135.253 271.558C135.706 267.68 137.308 264.02 139.857 261.039C140.546 260.383 141.369 259.881 142.27 259.565C143.171 259.25 144.13 259.128 145.083 259.208L144.824 258.672C144.062 257.704 143.521 256.585 143.239 255.39C142.958 254.195 142.942 252.954 143.193 251.753C144.02 248.527 145.515 247.849 148.214 247.165C148.28 247.148 148.347 247.135 148.415 247.126L148.441 244.051C148.415 243.124 148.582 242.203 148.931 241.343C149.281 240.483 149.805 239.704 150.472 239.053C151.893 237.474 153.82 236.427 155.93 236.087Z" fill="white"/>
<path d="M335.73 226.863C335.809 226.822 335.809 226.826 335.73 226.863V226.863Z" fill="white"/>
<path d="M367.87 226.771C387.586 232.48 407.208 239.681 420.509 255.983C426.628 263.482 430.859 272.473 434.434 281.375C438.143 290.604 441.203 300.083 443.978 309.624C450.106 329.884 455.078 350.468 458.87 371.28C461.701 387.802 465.107 406.095 456.938 421.743C451.769 431.652 442.636 438.152 433.098 443.619C423.85 448.842 414.201 453.338 404.242 457.066C402.313 457.804 400.375 458.513 398.428 459.193C397.46 459.482 396.641 460.128 396.142 460.997C395.643 461.867 395.501 462.893 395.746 463.863C396.024 464.829 396.675 465.649 397.559 466.145C398.442 466.64 399.487 466.773 400.468 466.514C410.393 463.055 420.074 458.949 429.45 454.223C439.937 448.909 450.916 442.601 458.373 433.373C461.801 429.097 464.508 424.3 466.389 419.168C467.924 414.765 468.875 410.184 469.216 405.54C469.73 401.309 469.867 397.042 469.626 392.788C469.253 388.068 468.524 383.363 467.806 378.684C466.073 367.387 464.07 356.116 461.41 344.989C458.904 334.501 456 324.108 453.109 313.711C450.502 304.335 447.672 295.013 444.325 285.87C440.949 275.872 436.436 266.285 430.872 257.296C424.965 248.317 417.183 240.695 408.049 234.942C398.735 229.369 388.732 225.009 378.289 221.97C375.506 221.087 372.708 220.255 369.904 219.439C365.154 218.063 363.126 225.388 367.864 226.76L367.87 226.771Z" fill="#211715"/>
<path d="M378.936 406.737C386.813 403.433 394.385 399.581 402.08 395.893C402.955 395.382 403.59 394.549 403.848 393.576C404.106 392.603 403.965 391.569 403.457 390.698C402.925 389.849 402.083 389.233 401.106 388.98C400.129 388.726 399.09 388.854 398.205 389.336C390.51 393.024 382.94 396.876 375.062 400.18C374.626 400.432 374.245 400.766 373.94 401.163C373.636 401.561 373.413 402.013 373.285 402.496C373.157 402.978 373.127 403.481 373.195 403.975C373.264 404.469 373.43 404.945 373.685 405.375C374.22 406.221 375.062 406.833 376.037 407.086C377.013 407.34 378.05 407.215 378.936 406.737Z" fill="#211715"/>
<path d="M384.026 335.205L395.727 377.578C397.027 382.288 404.434 380.288 403.129 375.56L391.427 333.187C390.127 328.479 382.72 330.478 384.026 335.205Z" fill="#211715"/>
<path d="M376.403 413.325C370.952 416.767 364.185 416 358.089 415.079C350.548 413.94 342.84 412.45 335.195 412.346C319.607 412.132 309.372 424.428 300.902 435.706C300.395 436.577 300.255 437.61 300.513 438.583C300.77 439.555 301.405 440.388 302.279 440.901C303.163 441.385 304.202 441.514 305.18 441.261C306.158 441.007 307 440.39 307.53 439.539C311.528 434.212 315.676 428.574 321.207 424.689C323.764 422.821 326.641 421.423 329.699 420.564C333.002 419.856 336.407 419.747 339.75 420.239C346.873 420.938 353.894 422.261 360.998 423.069C367.599 423.821 374.521 423.517 380.278 419.88C384.436 417.259 380.583 410.685 376.403 413.325Z" fill="#211715"/>
<path d="M317.144 440.967L305.407 452.479C304.697 453.193 304.301 454.155 304.305 455.157C304.309 456.158 304.713 457.118 305.429 457.826C306.145 458.534 307.114 458.934 308.127 458.938C309.139 458.942 310.112 458.55 310.834 457.848L322.571 446.338C323.292 445.626 323.698 444.66 323.699 443.652C323.7 442.644 323.296 441.677 322.576 440.964C321.857 440.251 320.88 439.85 319.861 439.849C318.842 439.848 317.865 440.247 317.144 440.959V440.967Z" fill="#211715"/>
<path d="M318.23 474.006C324.146 467.165 330.632 460.801 337.099 454.473C337.809 453.759 338.205 452.796 338.201 451.795C338.197 450.793 337.793 449.834 337.077 449.126C336.361 448.417 335.391 448.018 334.379 448.014C333.366 448.01 332.393 448.401 331.672 449.104C325.198 455.432 318.719 461.794 312.802 468.637C312.092 469.351 311.696 470.314 311.7 471.315C311.704 472.317 312.108 473.276 312.824 473.985C313.54 474.693 314.51 475.092 315.522 475.096C316.535 475.101 317.508 474.709 318.23 474.006Z" fill="#211715"/>
<path d="M326.803 488.63C331.162 484.272 335.577 479.96 339.854 475.521C343.633 471.601 347.295 467.573 351.144 463.718C351.5 463.365 351.783 462.946 351.976 462.485C352.169 462.023 352.268 461.529 352.267 461.03C352.267 460.531 352.167 460.037 351.974 459.576C351.78 459.115 351.497 458.696 351.14 458.344C350.783 457.991 350.359 457.711 349.893 457.521C349.427 457.33 348.927 457.232 348.423 457.232C347.918 457.233 347.419 457.331 346.953 457.523C346.487 457.714 346.064 457.994 345.707 458.348C341.86 462.204 338.191 466.23 334.419 470.152C330.141 474.591 325.726 478.903 321.367 483.261C320.657 483.975 320.261 484.938 320.265 485.939C320.269 486.941 320.673 487.9 321.389 488.608C322.105 489.316 323.075 489.716 324.087 489.72C325.1 489.724 326.073 489.332 326.795 488.63H326.803Z" fill="#211715"/>
<path d="M365.046 472.048C372.883 471.147 380.553 469.157 387.827 466.135C390.889 464.916 393.763 463.28 396.366 461.274C396.894 460.853 397.414 460.424 397.938 459.999C398.196 459.792 398.451 459.583 398.712 459.377C399.206 458.988 398.282 459.678 398.65 459.428C400.178 458.398 401.776 457.472 403.431 456.656C404.31 456.148 404.949 455.315 405.207 454.341C405.465 453.367 405.322 452.331 404.808 451.461C404.294 450.592 403.452 449.96 402.467 449.704C401.482 449.449 400.435 449.591 399.556 450.099C396.922 451.425 394.445 453.038 392.172 454.907C391.442 455.541 390.68 456.137 389.887 456.693C388.385 457.586 386.819 458.369 385.201 459.034C378.792 461.814 372.002 463.641 365.053 464.455C364.045 464.486 363.087 464.896 362.374 465.602C361.661 466.307 361.246 467.255 361.215 468.252C361.22 469.257 361.626 470.219 362.345 470.93C363.064 471.641 364.037 472.043 365.053 472.048H365.046Z" fill="#211715"/>
<path d="M375.705 417.037C381.888 421.601 386.39 428.917 389.972 435.65C394.225 443.657 397.449 452.16 399.566 460.96C400.71 465.706 408.113 463.7 406.967 458.942C404.618 449.301 401.032 439.998 396.295 431.258C392.073 423.441 386.823 415.83 379.574 410.48C378.694 409.978 377.649 409.84 376.666 410.095C375.683 410.35 374.841 410.977 374.323 411.842C373.833 412.717 373.703 413.745 373.959 414.712C374.215 415.68 374.839 416.512 375.7 417.037H375.705Z" fill="#211715"/>
<path d="M340.448 465.02C338.879 468.119 337.249 471.189 335.714 474.3C334.493 476.546 333.408 478.861 332.465 481.235C331.853 483.244 331.835 485.385 332.412 487.404C332.719 488.627 333.291 489.769 334.089 490.751C334.887 491.733 335.892 492.531 337.033 493.089C338.175 493.648 339.426 493.953 340.699 493.985C341.972 494.016 343.237 493.773 344.405 493.271C349.017 491.459 352.056 487.056 355.195 483.449C358.828 478.983 362.855 474.845 367.229 471.084C367.942 470.368 368.342 469.404 368.342 468.399C368.342 467.394 367.942 466.43 367.229 465.714C366.499 465.023 365.527 464.638 364.516 464.638C363.505 464.638 362.533 465.023 361.802 465.714C354.729 471.409 349.571 478.935 343.203 485.316C343.104 485.416 342.555 485.83 342.985 485.522C343.446 485.191 342.485 485.813 342.378 485.874C342.199 485.974 341.466 486.3 342.028 486.083C341.804 486.17 340.889 486.43 341.095 486.4C340.933 486.464 340.756 486.482 340.583 486.451C340.411 486.421 340.251 486.343 340.121 486.227C340.492 486.442 339.907 485.865 340.251 486.385C340.127 486.197 340.014 486.001 339.914 485.798C340.091 486.148 339.986 486.04 339.914 485.738C339.834 485.395 339.728 485.061 339.667 484.713C339.794 485.433 339.693 484.443 339.682 484.201C339.674 484.043 339.714 483.884 339.699 483.726C339.699 483.808 339.509 484.359 339.658 484.006C339.709 483.889 339.707 483.737 339.749 483.614C339.939 483.057 339.575 483.954 339.869 483.334C340.72 481.546 341.556 479.754 342.427 477.977C343.935 474.921 345.536 471.912 347.076 468.874C347.565 467.998 347.695 466.971 347.439 466.003C347.182 465.036 346.559 464.204 345.699 463.679C344.818 463.18 343.774 463.044 342.792 463.298C341.81 463.553 340.968 464.179 340.448 465.041V465.02Z" fill="#211715"/>
<path d="M334.178 209.707C339.45 205.001 344.161 199.714 348.218 193.948C350.95 190.228 353.33 186.266 355.327 182.114C355.812 181.238 355.94 180.212 355.684 179.246C355.428 178.28 354.807 177.448 353.951 176.921C353.07 176.42 352.026 176.282 351.044 176.537C350.061 176.792 349.22 177.419 348.701 178.283C346.767 182.301 344.473 186.14 341.847 189.753C338.069 195.101 333.674 199.996 328.751 204.338C328.04 205.052 327.644 206.015 327.648 207.016C327.653 208.018 328.057 208.977 328.773 209.685C329.488 210.394 330.458 210.793 331.471 210.797C332.483 210.801 333.456 210.41 334.178 209.707Z" fill="#211715"/>
<path d="M315.786 211.506C299.407 219.474 279.869 223.674 262.579 215.837C254.476 212.404 247.482 206.834 242.362 199.735C237.665 192.354 234.524 184.111 233.126 175.5C230.834 163.555 229.889 151.347 227.967 139.336C227.69 138.369 227.04 137.548 226.156 137.052C225.273 136.556 224.228 136.424 223.247 136.684C222.278 136.972 221.46 137.618 220.961 138.488C220.462 139.358 220.32 140.384 220.566 141.354C222.389 152.744 223.418 164.271 225.381 175.639C226.794 185.173 230.097 194.338 235.101 202.606C245.719 219.143 266.026 228.432 285.563 227.554C297.601 227.015 308.91 223.291 319.661 218.063C320.532 217.548 321.164 216.715 321.421 215.744C321.679 214.773 321.541 213.741 321.038 212.869C320.51 212.015 319.668 211.396 318.689 211.143C317.71 210.889 316.67 211.018 315.786 211.506Z" fill="#211715"/>
<path d="M359.98 144.336C360.997 143.605 362.179 143.132 363.423 142.956C364.667 142.781 365.936 142.908 367.119 143.328C367.968 143.584 368.747 144.026 369.399 144.622C369.521 144.73 370.219 145.527 369.733 144.91C369.973 145.225 370.187 145.559 370.373 145.908C372.517 149.827 371.627 155.733 370.314 159.88C368.891 164.407 366.224 168.454 362.611 171.568C359.592 174.074 354.022 176.225 349.946 174.506C349.06 174.031 348.024 173.907 347.048 174.16C346.073 174.413 345.231 175.024 344.695 175.868C344.188 176.739 344.049 177.772 344.307 178.744C344.564 179.716 345.198 180.548 346.072 181.061C348.842 182.119 351.807 182.585 354.772 182.43C357.737 182.275 360.635 181.503 363.278 180.163C368.227 177.89 372.167 173.217 374.742 168.567C377.393 163.891 378.914 158.67 379.184 153.315C379.409 148.446 378.544 142.994 374.953 139.384C372.45 137.059 369.228 135.636 365.808 135.345C362.387 135.054 358.967 135.912 356.099 137.78C355.241 138.306 354.619 139.139 354.363 140.105C354.107 141.072 354.236 142.098 354.723 142.974C355.242 143.837 356.084 144.464 357.066 144.719C358.049 144.973 359.093 144.836 359.974 144.336H359.98Z" fill="#211715"/>
<path d="M310.356 147.367C311.552 150.689 311.203 158.488 304.772 159.422C296.229 159.738 295.369 150.368 298.056 145.835C300.25 142.122 307.105 140.328 310.356 147.367Z" fill="#211715"/>
<path d="M258.913 148.081C260.023 151.314 259.732 158.87 253.834 159.752C245.999 160.023 245.172 150.935 247.617 146.548C249.619 142.956 255.903 141.239 258.913 148.081Z" fill="#211715"/>
<path d="M272.06 163.065C270.871 165.239 269.796 167.472 268.838 169.755L269.225 168.848C268.656 169.91 268.329 171.081 268.266 172.281C268.26 173.025 268.424 173.76 268.746 174.432C269.068 175.105 269.539 175.696 270.124 176.163C271.004 176.936 272.065 177.48 273.212 177.745C273.96 177.884 274.696 177.903 275.451 177.973C275.955 177.974 276.455 177.877 276.921 177.687C277.388 177.497 277.812 177.218 278.169 176.865C278.889 176.153 279.293 175.188 279.293 174.181C279.293 173.174 278.889 172.208 278.169 171.496C277.419 170.827 276.459 170.436 275.451 170.389C275.081 170.353 274.709 170.361 274.341 170.313L275.361 170.449C275.099 170.409 274.842 170.339 274.595 170.242L275.513 170.625C275.254 170.509 275.008 170.368 274.779 170.202L275.556 170.796C275.386 170.668 275.225 170.528 275.076 170.376L275.678 171.145C275.605 171.051 275.545 170.948 275.5 170.838L275.885 171.746C275.86 171.672 275.84 171.595 275.828 171.517L275.965 172.526C275.947 172.362 275.947 172.196 275.965 172.031L275.829 173.04C275.892 172.687 275.996 172.343 276.14 172.014L275.753 172.922C275.957 172.45 276.159 171.976 276.359 171.498L275.972 172.404C276.781 170.525 277.731 168.693 278.69 166.891C279.192 166.001 279.33 164.955 279.077 163.966C278.877 163.246 278.466 162.6 277.896 162.109C277.326 161.619 276.623 161.306 275.874 161.209C275.125 161.112 274.364 161.236 273.686 161.565C273.007 161.895 272.443 162.415 272.062 163.06L272.06 163.065Z" fill="#211715"/>
<path d="M288.776 204.562C290.088 203.422 291.289 202.163 292.363 200.801C293.37 199.503 294.278 198.132 295.081 196.701C296.962 193.276 299.365 187.747 294.939 185.14C292.767 183.862 289.783 184.468 287.385 184.666C284.844 184.87 282.308 185.115 279.775 185.382C276.924 185.686 274.076 186.015 271.236 186.423C270.255 186.693 269.423 187.336 268.921 188.211C268.419 189.086 268.287 190.122 268.555 191.093C268.853 192.047 269.507 192.853 270.384 193.346C271.261 193.839 272.296 193.982 273.276 193.746C273.562 193.705 273.848 193.67 274.133 193.627C272.964 193.806 273.775 193.675 274.052 193.64C274.655 193.562 275.259 193.487 275.863 193.415C277.216 193.254 278.57 193.102 279.925 192.96C282.68 192.669 285.437 192.405 288.199 192.196C289.294 192.114 290.391 192.038 291.49 191.989C291.678 191.968 291.868 191.961 292.057 191.966C291.667 191.951 291.287 191.836 290.955 191.632C290.623 191.428 290.351 191.142 290.164 190.802C289.916 190.342 289.815 189.818 289.875 189.299C289.729 189.656 289.622 190.027 289.555 190.407C289.475 190.65 289.395 190.894 289.299 191.134C289.129 191.558 289.109 191.609 289.24 191.304C288.474 192.968 287.537 194.549 286.445 196.024C286.214 196.34 285.987 196.669 285.739 196.973C286.158 196.457 285.42 197.29 285.33 197.388C284.703 198.02 284.014 198.596 283.353 199.197C282.641 199.913 282.242 200.877 282.242 201.882C282.242 202.886 282.641 203.851 283.353 204.566C284.084 205.258 285.056 205.645 286.067 205.645C287.078 205.645 288.051 205.258 288.781 204.566L288.776 204.562Z" fill="#211715"/>
<path d="M317.996 521.623C330.517 516.45 342.929 511.024 355.348 505.612C369.688 499.373 384.008 493.092 398.309 486.768C403.107 484.65 407.893 482.538 412.66 480.373C413.533 479.859 414.166 479.027 414.424 478.055C414.682 477.083 414.542 476.05 414.036 475.179C413.507 474.327 412.666 473.71 411.688 473.456C410.71 473.202 409.671 473.332 408.787 473.817C383.761 485.185 358.5 496.079 333.252 506.949C329.869 508.405 326.484 509.855 323.096 511.297C321.68 511.898 320.263 512.498 318.845 513.094C318.526 513.229 316.672 514.004 317.629 513.605L315.956 514.3C314.993 514.595 314.179 515.243 313.682 516.11C313.184 516.978 313.039 518 313.276 518.97C313.551 519.937 314.202 520.759 315.085 521.255C315.969 521.752 317.015 521.884 317.996 521.623Z" fill="#211715"/>
<path d="M64.8451 366.922C114.078 367.731 226.469 367.984 266.6 368.249C269.573 368.266 272.464 369.216 274.857 370.961C277.25 372.707 279.022 375.158 279.917 377.962C289.467 407.838 310.94 475.473 321.044 507.45C321.468 508.787 321.567 510.205 321.332 511.587C321.098 512.969 320.538 514.277 319.696 515.405C318.855 516.533 317.757 517.448 316.491 518.077C315.224 518.706 313.826 519.031 312.409 519.025C268.922 518.866 151.759 518.455 106.714 517.553C104.823 517.518 102.991 516.893 101.48 515.767C99.9682 514.641 98.8543 513.073 98.2966 511.284C89.4153 482.865 66.6058 411.257 56.0965 378.545C55.6624 377.195 55.5593 375.763 55.7958 374.366C56.0323 372.97 56.6016 371.649 57.4565 370.513C58.3115 369.377 59.4276 368.459 60.7124 367.835C61.9972 367.21 63.4139 366.898 64.8451 366.922Z" fill="white"/>
<path d="M64.8452 370.719C87.8402 371.094 110.838 371.241 133.835 371.386C160.7 371.559 187.565 371.695 214.429 371.794C225.73 371.844 237.03 371.894 248.33 371.945C252.744 371.967 257.157 371.99 261.571 372.014C266.477 372.043 271.519 371.75 274.763 376.162C276.072 378.341 277.018 380.713 277.565 383.189C278.32 385.55 279.073 387.912 279.826 390.274C281.624 395.912 283.419 401.55 285.213 407.188C289.383 420.292 293.547 433.396 297.707 446.5C301.807 459.413 305.904 472.327 309.996 485.243C311.723 490.689 313.448 496.136 315.171 501.584C316.412 505.507 320.053 512.314 314.653 514.756C312.833 515.579 310.495 515.221 308.53 515.215L302.173 515.191L287.507 515.136C275.82 515.092 264.133 515.043 252.445 514.991C225.857 514.869 199.269 514.711 172.68 514.516C151.107 514.358 129.532 514.19 107.962 513.774C105.563 513.728 103.281 513.163 102.179 510.784C101.412 508.811 100.771 506.792 100.26 504.74C98.7188 499.833 97.1731 494.929 95.623 490.028C91.7532 477.778 87.87 465.53 83.9736 453.286C76.3246 429.22 68.6489 405.164 60.9466 381.118C60.2734 379.02 59.0277 376.594 59.7105 374.409C60.0428 373.324 60.7243 372.377 61.6512 371.711C62.5781 371.044 63.6997 370.696 64.8452 370.719C69.78 370.654 69.7944 363.061 64.8452 363.125C62.9258 363.131 61.0314 363.557 59.2979 364.372C57.5645 365.187 56.0349 366.372 54.8189 367.841C53.603 369.31 52.7308 371.028 52.2649 372.87C51.799 374.712 51.7511 376.633 52.1244 378.495C52.7559 380.969 53.5159 383.409 54.4015 385.805C55.2394 388.419 56.0768 391.032 56.9137 393.647C60.9167 406.147 64.9097 418.651 68.8925 431.159C76.7867 455.937 84.6473 480.724 92.4744 505.521C94.2334 511.132 95.4311 517.327 101.369 520.092C105.857 522.182 111.828 521.449 116.705 521.525C127.651 521.695 138.598 521.826 149.546 521.918C176.59 522.177 203.634 522.364 230.678 522.479C254.629 522.603 278.581 522.705 302.533 522.786L309.013 522.81C311.753 523.039 314.513 522.737 317.136 521.921C318.953 521.206 320.583 520.095 321.906 518.671C323.229 517.247 324.211 515.546 324.778 513.695C325.821 510.297 324.964 507.124 323.934 503.868C320.238 492.179 316.536 480.492 312.828 468.808C304.49 442.514 296.135 416.223 287.764 389.937C286.143 384.851 284.916 379.305 282.623 374.472C279.374 367.623 272.475 364.484 265.143 364.438C255.583 364.376 246.022 364.327 236.462 364.291C209.917 364.173 183.372 364.051 156.827 363.924C130.936 363.784 105.043 363.633 79.1523 363.32C74.3806 363.263 69.6089 363.197 64.8372 363.121C59.904 363.043 59.9024 370.636 64.8452 370.719Z" fill="#211715"/>
<path d="M310.105 93.5145C313.295 102.927 316.954 112.735 322.407 121.127C327.458 128.903 334.11 137.408 342.672 141.598C343.557 142.081 344.595 142.209 345.573 141.956C346.551 141.702 347.392 141.087 347.923 140.236C348.427 139.364 348.565 138.332 348.308 137.36C348.05 136.389 347.418 135.556 346.547 135.041C338.967 131.332 333.165 123.759 328.742 116.849C323.785 109.098 320.44 100.155 317.507 91.5023C315.945 86.8926 308.528 88.87 310.105 93.5208V93.5145Z" fill="#211715"/>
<path d="M310.935 89.4236C305.28 95.8741 298.644 101.414 291.266 105.845C287.409 108.191 283.407 110.296 279.284 112.146C277.348 113.018 275.384 113.826 273.393 114.568C271.193 115.547 268.898 116.303 266.544 116.824H268.584C269.342 119.039 269.78 119.584 269.897 118.46C269.942 118.214 269.985 117.968 270.028 117.722C270.135 117.112 270.238 116.5 270.337 115.887C270.532 114.674 270.709 113.459 270.877 112.249C271.226 109.718 271.521 107.184 271.762 104.646C272.072 101.373 267.347 99.6286 265.205 101.957C253.725 114.404 240.173 124.812 225.138 132.73C220.771 135.017 224.646 141.573 229.013 139.287C236.772 135.106 244.152 130.273 251.073 124.839C258.098 119.577 264.643 113.714 270.633 107.32L264.076 104.631C263.737 108.214 263.291 111.779 262.682 115.327C262.325 117.397 261.707 119.44 262.776 121.419C263.162 122.118 263.698 122.724 264.348 123.194C264.998 123.664 265.744 123.986 266.534 124.137C268.283 124.296 270.042 123.984 271.626 123.234C273.324 122.663 275.008 122.053 276.677 121.404C279.789 120.195 282.861 118.872 285.866 117.428C297.479 112.009 307.855 104.304 316.357 94.7847C317.054 94.0607 317.442 93.0996 317.442 92.1002C317.442 91.1009 317.054 90.1398 316.357 89.4157C315.633 88.7118 314.659 88.3174 313.644 88.3174C312.628 88.3174 311.654 88.7118 310.93 89.4157L310.935 89.4236Z" fill="#211715"/>
<path d="M366.491 220.066C362.923 218.75 359.451 217.195 356.096 215.414C352.898 213.734 350.097 212.012 348.459 209.273C348.21 208.87 347.99 208.451 347.8 208.018C348.072 208.676 347.656 207.496 347.655 207.488C347.361 206.558 347.142 205.604 346.943 204.652C346.903 204.454 346.623 203.703 346.718 203.497C346.607 203.722 346.831 204.437 346.764 203.951C346.718 203.616 346.681 203.279 346.638 202.943L345.984 197.701C345.954 196.703 345.54 195.755 344.826 195.049C344.113 194.344 343.154 193.934 342.146 193.904C341.13 193.91 340.157 194.311 339.438 195.022C338.72 195.733 338.314 196.696 338.308 197.701C338.964 202.947 339.108 208.871 342.045 213.449C344.54 217.022 347.928 219.895 351.878 221.789C355.932 223.942 360.134 225.813 364.452 227.387C365.433 227.646 366.477 227.513 367.36 227.017C368.243 226.521 368.894 225.702 369.172 224.736C369.421 223.766 369.281 222.738 368.782 221.868C368.282 220.997 367.46 220.352 366.491 220.066Z" fill="#211715"/>
<path d="M256.633 236.489C257.554 240.293 259.245 243.873 261.605 247.013C263.964 250.152 266.942 252.785 270.359 254.754C277.947 259.354 287.183 260.719 295.945 260.473C312.628 259.998 328.739 254.303 342.798 245.571C350.704 240.583 358.108 234.855 364.906 228.466C368.518 225.117 363.083 219.756 359.479 223.097C348.749 233.044 336.543 241.877 322.775 247.229C315.906 249.961 308.69 251.747 301.331 252.539C293.594 253.302 285.445 253.158 278.152 250.196C271.276 247.403 265.573 241.804 264.035 234.474C263.031 229.692 255.63 231.717 256.633 236.492V236.489Z" fill="#211715"/>
<path d="M468.684 188.728C467.991 187.564 467.779 186.18 468.092 184.865C469.608 177.634 471.827 170.564 474.719 163.756C474.719 163.756 475.168 163.095 475.781 162.187C484.047 166.508 492.733 169.995 501.707 172.592C501.668 173.682 501.649 174.491 501.649 174.491C502.305 176.03 497.197 188.449 494.562 193.521C494.1 194.416 493.499 195.233 492.782 195.945C491.309 196.983 489.543 197.536 487.734 197.526C482.758 196.089 477.903 194.27 473.213 192.086C471.498 191.413 469.982 190.326 468.804 188.922C468.762 188.858 468.722 188.788 468.684 188.728Z" fill="white"/>
<path d="M524.294 116.324C524.977 117.085 525.653 117.906 526.308 118.791C529.744 123.175 531.894 128.409 532.522 133.921C533.151 139.433 532.233 145.01 529.87 150.041C527.822 154.687 524.847 158.877 521.125 162.36C518.415 165.082 515.35 167.432 512.01 169.349C509.26 170.901 506.339 172.132 503.303 173.019C493.076 170.23 483.222 166.243 473.95 161.142C469.093 156.659 466.754 145.994 467.074 140.22C467.192 135.995 467.947 131.81 469.313 127.805C470.955 123.409 473.447 119.371 476.649 115.917C480.804 111.154 486.325 107.755 492.48 106.171C499.241 104.849 506.244 105.47 512.659 107.96C517.114 109.865 521.087 112.721 524.294 116.324Z" fill="#FFDA71"/>
<path d="M521.579 119.008C525.158 122.938 527.518 127.803 528.377 133.024C529.236 138.245 528.557 143.6 526.422 148.449C524.127 153.429 520.786 157.87 516.623 161.475C512.46 165.081 507.57 167.769 502.276 169.362H504.316C496.1 167.209 488.136 164.204 480.557 160.397C478.767 159.75 477.124 158.76 475.72 157.485C474.673 156.119 473.833 154.61 473.225 153.005C471.794 149.457 471.001 145.689 470.883 141.872C470.619 133.333 473.649 125.015 479.358 118.605C484.817 112.726 491.733 109.018 499.986 109.216C501.78 109.253 503.567 109.451 505.324 109.809C506.317 109.996 507.304 110.213 508.277 110.483C508.93 110.664 509.576 110.866 510.216 111.089C510.692 111.255 511.164 111.433 511.632 111.624C510.944 111.334 510.796 111.273 511.189 111.442C515.096 113.311 518.619 115.877 521.584 119.011C524.916 122.634 530.331 117.252 527.012 113.642C516.634 102.357 499.278 98.1396 485.103 104.784C479.657 107.492 474.942 111.447 471.351 116.321C466.129 123.374 463.283 131.874 463.217 140.617C462.958 147.804 464.913 154.899 468.823 160.962C469.882 162.606 471.31 163.985 472.997 164.993C474.744 165.985 476.539 166.891 478.354 167.764C482.231 169.615 486.215 171.265 490.238 172.774C493.564 174.021 496.93 175.18 500.348 176.156C501.922 176.765 503.655 176.846 505.281 176.386C514.303 173.515 522.217 167.974 527.954 160.511C533.586 153.647 536.619 145.054 536.532 136.215C536.093 127.828 532.727 119.852 527.008 113.647C523.752 109.952 518.342 115.341 521.579 119.008Z" fill="#211715"/>
<path d="M471.594 180.029C479.299 183.358 487.18 186.275 495.202 188.767C496.183 189.026 497.227 188.893 498.11 188.397C498.993 187.901 499.644 187.082 499.922 186.116C500.171 185.146 500.031 184.118 499.532 183.248C499.032 182.377 498.212 181.732 497.242 181.446C493.51 180.287 489.813 179.015 486.144 177.672C484.19 176.957 482.245 176.218 480.308 175.457C479.372 175.09 478.439 174.716 477.509 174.334L476.833 174.055C477.192 174.205 477.166 174.194 476.754 174.021C476.324 173.839 475.896 173.657 475.475 173.472C474.59 172.99 473.552 172.862 472.575 173.116C471.597 173.369 470.756 173.984 470.224 174.834C469.721 175.706 469.584 176.737 469.841 177.708C470.099 178.679 470.73 179.511 471.601 180.027L471.594 180.029Z" fill="#211715"/>
<path d="M471.413 161.838C468.957 166.176 467.648 171.48 466.276 176.224C465.504 178.73 464.878 181.278 464.4 183.855C463.971 186.024 464.288 188.272 465.301 190.242C466.313 192.212 467.962 193.79 469.985 194.726C472.852 196.175 475.807 197.448 478.832 198.539C481.368 199.675 484.011 200.563 486.722 201.191C488.607 201.468 490.533 201.24 492.298 200.529C494.064 199.818 495.604 198.651 496.757 197.15C498.225 194.963 499.435 192.617 500.363 190.158C501.727 187.041 503.042 183.895 504.161 180.684C504.894 178.578 506.09 175.726 505.357 173.481C503.845 168.851 496.431 170.831 497.955 175.501C498 175.636 497.877 174.275 497.859 175.185C497.871 174.607 497.966 174.552 497.786 175.321C497.575 176.221 497.29 177.104 496.996 177.98C496.238 180.244 495.358 182.47 494.437 184.675C493.734 186.369 492.776 188.538 491.808 190.506C491.378 191.43 490.851 192.307 490.235 193.122C490.395 192.94 490.99 192.725 490.331 192.999C490.092 193.097 489.87 193.257 489.635 193.366C488.615 193.84 489.192 193.548 489.296 193.51C489.263 193.522 488.226 193.935 488.541 193.777C488.14 193.98 488.007 193.747 488.497 193.826C488.302 193.792 488.11 193.746 487.921 193.69C487.408 193.545 486.896 193.404 486.387 193.242C485.055 192.822 483.742 192.336 482.438 191.838C480.002 190.906 477.96 190.063 475.637 189.034C474.493 188.617 473.42 188.03 472.454 187.294C471.772 186.685 471.743 186.29 471.906 185.282C472.339 182.978 472.908 180.702 473.611 178.464C474.405 175.701 475.276 172.959 476.224 170.238C476.588 169.191 476.966 168.149 477.373 167.117C477.461 166.894 477.554 166.674 477.64 166.451C477.514 166.767 477.359 167.049 477.594 166.565C477.739 166.268 477.872 165.969 478.037 165.679C480.453 161.408 473.825 157.578 471.409 161.846L471.413 161.838Z" fill="#211715"/>
<path d="M544.126 92.9632C541.328 95.0725 538.517 97.168 535.695 99.2498C534.855 99.7749 534.231 100.579 533.936 101.518C533.671 102.506 533.81 103.558 534.323 104.445C534.833 105.295 535.654 105.919 536.617 106.185C537.11 106.326 537.627 106.364 538.135 106.298C538.644 106.233 539.134 106.064 539.573 105.802C542.395 103.722 545.206 101.626 548.005 99.5139C548.839 98.9811 549.46 98.1797 549.764 97.2455C550.029 96.2581 549.89 95.2072 549.377 94.3205C548.868 93.4692 548.046 92.8457 547.083 92.5804C546.59 92.4381 546.073 92.3987 545.564 92.4646C545.055 92.5305 544.565 92.7003 544.126 92.9632Z" fill="#211715"/>
<path d="M525.375 90.2708C525.833 89.0875 526.31 87.9121 526.806 86.7447L526.419 87.6511C527.106 86.0471 527.831 84.4604 528.596 82.8912C529.09 81.9979 529.228 80.9537 528.983 79.9646C528.71 79.0142 528.081 78.2027 527.224 77.6962C526.781 77.4423 526.292 77.2778 525.784 77.2121C525.277 77.1464 524.761 77.1808 524.267 77.3133C523.3 77.5712 522.475 78.1967 521.972 79.0534C520.509 82.0591 519.18 85.1311 517.975 88.2475C517.84 88.7363 517.805 89.2468 517.871 89.7492C517.937 90.2516 518.104 90.736 518.362 91.174C518.875 92.0433 519.717 92.6752 520.701 92.9306C521.686 93.186 522.733 93.0441 523.611 92.5361L524.389 91.9413C524.859 91.4773 525.199 90.8999 525.375 90.266V90.2708Z" fill="#211715"/>
<path d="M505.685 86.6152C505.205 83.1207 504.641 79.631 503.862 76.1888C503.585 75.2221 502.935 74.4021 502.051 73.906C501.168 73.4098 500.123 73.2775 499.142 73.5375C498.173 73.8239 497.353 74.4696 496.853 75.3398C496.354 76.2099 496.214 77.2373 496.462 78.2073C497.24 81.6496 497.803 85.1393 498.283 88.6337C498.548 89.5877 499.179 90.4016 500.042 90.9022C500.939 91.4098 502.002 91.5473 503 91.285C503.963 91.0183 504.784 90.3951 505.293 89.5449L505.68 88.6385C505.863 87.9777 505.863 87.2807 505.68 86.6199L505.685 86.6152Z" fill="#211715"/>
<path d="M515.112 150.27C514.849 146.488 513.275 142.912 510.655 140.146C508.257 137.388 504.988 134.326 501.253 133.692C493.342 132.349 485.701 139.496 488.3 147.473C488.858 149.182 489.848 150.722 491.175 151.948C492.502 153.174 494.123 154.045 495.885 154.479C497.669 155.032 499.578 155.061 501.379 154.565C503.309 153.86 505.025 152.676 506.36 151.127C507.673 149.701 508.605 147.972 509.069 146.098C509.533 144.225 509.515 142.266 509.016 140.4C507.957 137.022 505.854 134.057 503.004 131.921C501.279 130.439 499.275 129.309 497.107 128.597C494.939 127.884 492.649 127.603 490.371 127.77C488.123 128.068 485.958 128.806 484.003 129.942C482.048 131.079 480.342 132.59 478.985 134.388C478.294 135.114 477.91 136.074 477.91 137.072C477.91 138.07 478.294 139.03 478.985 139.757C479.708 140.463 480.683 140.859 481.699 140.859C482.715 140.859 483.69 140.463 484.413 139.757C487.173 136.276 490.796 134.043 495.286 135.976C497.338 136.855 499.114 138.263 500.429 140.052C500.327 139.913 500.95 140.888 501.043 141.052C501.185 141.293 501.314 141.542 501.43 141.796C501.392 141.709 501.291 141.437 501.43 141.84C501.542 142.156 501.771 143.106 501.769 143.096C501.748 142.887 501.625 144.474 501.736 143.982C501.672 144.367 501.541 144.738 501.349 145.078C501.195 145.368 501.013 145.642 500.805 145.896C500.497 146.237 500.165 146.557 499.814 146.853C499.79 146.87 498.457 147.56 498.992 147.359C499.751 147.073 498.341 147.28 498.755 147.34C498.272 147.255 497.797 147.136 497.332 146.983C496.692 146.791 497.811 147.25 497.201 146.937C496.958 146.816 496.722 146.681 496.495 146.534C496.583 146.592 495.875 145.861 496.121 146.206C495.742 145.686 495.511 145.074 495.454 144.434C495.419 143.846 495.553 143.261 495.84 142.745C496.035 142.517 496.26 142.326 496.463 142.112C496.516 142.057 496.897 141.774 496.535 142.041C496.128 142.343 496.706 141.943 496.809 141.883L497.415 141.544C497.936 141.247 496.924 141.702 497.511 141.482C497.69 141.416 497.872 141.354 498.054 141.299C498.304 141.226 498.561 141.16 498.817 141.111C498.2 141.231 499.356 141.095 499.406 141.093C500.266 141.162 501.073 141.531 501.681 142.136C502.78 143.014 503.811 143.972 504.766 145.002C505.56 145.83 506.231 146.765 506.758 147.78C507.164 148.554 507.397 149.405 507.443 150.276C507.463 151.277 507.874 152.231 508.59 152.939C509.305 153.646 510.269 154.053 511.281 154.073C512.295 154.063 513.266 153.66 513.984 152.95C514.701 152.24 515.109 151.28 515.118 150.276L515.112 150.27Z" fill="#211715"/>
<path d="M199.177 291.307C202.966 283.934 204.852 275.748 204.668 267.478C204.472 259.885 202.777 250.816 197.898 244.72C191.927 237.258 182.676 239.956 175.24 243.343C168.094 246.599 160.429 252.969 162.516 261.722C162.993 263.796 164.092 265.679 165.669 267.124C167.246 268.569 169.228 269.51 171.354 269.823C173.809 269.933 176.258 269.516 178.534 268.602L186.157 266.164C190.838 264.666 188.836 257.332 184.117 258.841C180.795 259.904 177.489 261.1 174.124 262.021C172.224 262.54 170.795 262.222 170.062 260.225C168.123 254.934 176.139 251.221 179.751 249.614C182.181 248.347 184.848 247.589 187.587 247.388C190.294 247.379 191.887 249.024 193.102 251.258C195.729 256.505 197.068 262.291 197.01 268.146C197.11 274.849 195.582 281.478 192.554 287.475C190.336 291.827 196.954 295.676 199.182 291.307H199.177Z" fill="#211715"/>
<path d="M192.371 292.505C194.68 297.886 196.601 303.421 198.12 309.07C198.391 310.041 199.04 310.866 199.926 311.364C200.811 311.861 201.86 311.99 202.842 311.722C203.823 311.455 204.657 310.812 205.16 309.936C205.663 309.061 205.793 308.023 205.522 307.052C204 301.403 202.077 295.867 199.766 290.486C199.467 289.549 198.844 288.746 198.007 288.218C197.11 287.709 196.047 287.572 195.048 287.835C193.269 288.404 191.548 290.54 192.368 292.505H192.371Z" fill="#211715"/>
<path d="M205.022 303.416C188.909 309.962 171.822 314.078 155.29 319.415C154.318 319.697 153.495 320.342 152.995 321.214C152.494 322.085 152.356 323.115 152.61 324.085C156.731 337.821 161.285 351.383 166.552 364.74C166.849 365.692 167.502 366.496 168.378 366.987C169.253 367.479 170.285 367.621 171.263 367.385C172.241 367.112 173.07 366.468 173.572 365.594C174.073 364.72 174.207 363.686 173.944 362.716C168.667 349.364 164.122 335.803 159.999 322.06L157.324 326.73C173.862 321.394 190.95 317.277 207.056 310.732C208.02 310.437 208.834 309.79 209.332 308.922C209.83 308.054 209.975 307.031 209.738 306.061C209.461 305.093 208.811 304.273 207.927 303.776C207.043 303.28 205.997 303.148 205.016 303.41L205.022 303.416Z" fill="#211715"/>
<path d="M162.275 230.6C159.425 223.976 156.496 217.38 153.741 210.718C152.74 208.298 151.633 205.34 152.843 202.774C153.577 201.214 155.543 201.496 156.883 202.141C158.818 203.073 159.971 205.254 161.04 206.99C162.264 208.981 163.378 211.036 164.445 213.113C166.869 217.832 169.061 222.674 171.091 227.572C173.226 232.716 175.232 237.926 176.926 243.233C178.407 247.876 185.82 245.894 184.326 241.214C180.595 229.452 175.784 218.051 169.954 207.156C167.171 201.991 163.832 195.644 157.481 194.379C155.732 193.921 153.891 193.929 152.146 194.401C150.401 194.873 148.813 195.793 147.542 197.068C146.402 198.495 145.571 200.139 145.104 201.898C144.636 203.657 144.541 205.493 144.824 207.29C145.395 211.949 147.88 216.344 149.714 220.616C151.693 225.225 153.672 229.832 155.651 234.438C156.17 235.302 157.011 235.93 157.994 236.185C158.977 236.44 160.023 236.302 160.903 235.8C161.762 235.273 162.384 234.441 162.64 233.474C162.896 232.507 162.767 231.48 162.28 230.605L162.275 230.6Z" fill="#211715"/>
<path d="M151.406 279.295C155.754 282.685 162.313 288.173 168.113 285.196C169.303 284.506 170.343 283.589 171.174 282.5C172.004 281.411 172.609 280.169 172.953 278.848C173.297 277.526 173.373 276.151 173.177 274.8C172.981 273.449 172.517 272.15 171.812 270.977C169.515 268.088 166.856 265.499 163.899 263.272C159.992 259.971 155.404 257.553 150.456 256.187C146.114 254.883 140.106 254.843 136.958 258.597C133.659 262.528 130.944 268.184 131.383 273.421C131.842 278.89 134.674 283.161 138.333 287.061C141.905 290.978 145.703 294.688 149.707 298.172C151.875 299.744 153.727 301.701 155.17 303.944C155.995 305.539 156.699 307.193 157.274 308.893C158.629 312.504 159.926 316.169 160.952 319.895C162.251 324.604 169.656 322.605 168.353 317.876C166.811 312.028 164.741 306.329 162.169 300.847C160.325 297.05 156.983 294.402 153.838 291.7C150.593 288.837 147.511 285.797 144.608 282.595C142.04 279.839 139.587 277.406 139.059 273.42C138.963 271.502 139.328 269.589 140.126 267.839C140.679 266.173 141.615 264.657 142.86 263.41C142.499 263.693 143.412 263.16 143.087 263.299C143.046 263.318 144.155 263.03 143.992 263.055C144.829 262.947 145.676 262.947 146.512 263.055C148.282 263.392 150.012 263.906 151.676 264.59C154.585 265.743 157.25 267.426 159.532 269.551C160.994 270.816 162.447 272.097 163.826 273.45C164.429 273.99 164.986 274.577 165.492 275.207C165.102 274.67 165.575 275.524 165.585 276.109C165.606 277.291 165.156 278.473 164.098 278.382C162.811 277.981 161.612 277.344 160.562 276.506C159.27 275.716 158.025 274.853 156.833 273.921C156.098 273.238 155.128 272.858 154.119 272.858C153.111 272.858 152.14 273.238 151.406 273.921C150.692 274.637 150.292 275.602 150.292 276.607C150.292 277.612 150.692 278.576 151.406 279.292V279.295Z" fill="#211715"/>
<path d="M147.544 255.987C148.17 256.758 147.619 256.038 147.499 255.829C147.445 255.736 147.034 254.823 147.315 255.546C147.184 255.211 147.072 254.87 146.981 254.523C146.962 254.45 146.803 253.358 146.861 254.056C146.825 253.673 146.822 253.288 146.853 252.904C146.797 253.524 146.952 252.564 146.992 252.43C147.021 252.327 147.27 251.452 147.107 251.993C146.947 252.495 147.28 251.692 147.333 251.58C147.395 251.471 147.462 251.366 147.536 251.264C147.193 251.68 147.118 251.786 147.309 251.58C147.468 251.49 147.887 250.867 147.515 251.359C147.184 251.797 147.473 251.359 147.702 251.294C148.447 251.069 146.944 251.522 147.665 251.294C148.182 251.136 148.732 251.014 149.24 250.832C148.829 250.86 148.772 250.865 149.069 250.845C149.25 250.829 149.431 250.821 149.613 250.821C149.971 250.821 150.331 250.835 150.689 250.857C151.99 250.936 153.277 251.161 154.527 251.526C155.936 251.882 157.325 252.268 158.699 252.743C159.513 253.024 158.459 252.585 159.155 252.937C159.484 253.105 159.814 253.266 160.133 253.455C160.156 253.469 161.115 254.106 160.567 253.69C160.855 253.915 161.127 254.16 161.379 254.423C161.494 254.54 162.084 255.328 161.684 254.739C161.886 255.032 162.051 255.344 162.241 255.643C162.599 256.209 162.228 255.499 162.356 255.866C162.492 256.254 162.606 256.651 162.697 257.052C162.974 258.019 163.625 258.838 164.508 259.335C165.391 259.831 166.436 259.964 167.417 259.705C168.387 259.418 169.206 258.772 169.706 257.902C170.205 257.031 170.345 256.004 170.097 255.033C169.52 252.831 168.393 250.808 166.819 249.149C165.245 247.491 163.275 246.25 161.09 245.542C157.344 243.974 153.312 243.186 149.245 243.226C145.714 243.421 141.968 245.023 140.392 248.328C139.395 250.434 139.027 252.779 139.332 255.086C139.636 257.392 140.602 259.565 142.113 261.347C142.834 262.056 143.81 262.455 144.827 262.455C145.844 262.455 146.819 262.056 147.54 261.347C148.234 260.621 148.62 259.661 148.62 258.662C148.62 257.664 148.234 256.703 147.54 255.978L147.544 255.987Z" fill="#211715"/>
<path d="M152.285 244.054C152.302 243.802 152.302 243.549 152.285 243.297C152.234 243.669 152.487 242.752 152.364 243.036C152.298 243.195 152.672 242.456 152.739 242.339C152.751 242.317 153.11 241.798 152.899 242.062C153.26 241.637 153.656 241.243 154.083 240.883C154.345 240.641 154.374 240.69 154.083 240.883C154.324 240.725 154.562 240.567 154.813 240.433C154.917 240.374 155.629 240.04 155.056 240.274C155.299 240.176 155.554 240.097 155.803 240.024C156.142 239.926 156.487 239.845 156.835 239.782C157.532 239.659 156.435 239.814 157.154 239.741C158.568 239.61 159.989 239.595 161.405 239.697C161.68 239.716 161.953 239.736 162.228 239.762C162.321 239.762 163.338 239.892 162.846 239.823C162.415 239.765 163.263 239.893 163.34 239.904C163.703 239.963 164.064 240.02 164.426 240.084C165.535 240.276 166.629 240.546 167.699 240.893C168.03 241.037 168.35 241.205 168.658 241.393C168.765 241.456 169.471 241.986 169.023 241.606C169.221 241.774 169.397 241.962 169.587 242.138L169.854 242.427C169.717 242.228 169.722 242.235 169.87 242.448C170.026 242.67 170.17 242.899 170.301 243.136C170.376 243.267 170.662 243.963 170.507 243.527C170.597 243.786 170.672 244.05 170.732 244.318C170.608 243.799 170.76 244.843 170.76 244.928C170.76 245.935 171.164 246.901 171.884 247.613C172.603 248.325 173.58 248.725 174.597 248.725C175.615 248.725 176.591 248.325 177.311 247.613C178.031 246.901 178.435 245.935 178.435 244.928C178.399 242.89 177.838 240.894 176.805 239.129C175.772 237.365 174.302 235.89 172.533 234.844C169.088 233.096 165.281 232.161 161.41 232.112C157.645 231.643 153.827 232.357 150.494 234.151C148.734 235.164 147.268 236.609 146.237 238.346C145.206 240.083 144.645 242.054 144.608 244.068C144.608 245.075 145.012 246.04 145.732 246.752C146.452 247.464 147.428 247.864 148.446 247.864C149.464 247.864 150.44 247.464 151.159 246.752C151.879 246.04 152.284 245.075 152.284 244.068L152.285 244.054Z" fill="#211715"/>
<path d="M207.667 305.897C208.551 299.062 210.086 292.326 211.53 285.592C212.932 278.877 215.074 272.335 217.917 266.082C221.056 259.28 225.038 252.31 230.737 247.283C236.564 242.145 244.021 238.582 251.205 235.695C253.5 234.773 255.851 234.004 258.158 233.117C258.285 233.069 259.815 232.452 258.656 232.908C258.975 232.781 259.295 232.653 259.629 232.53C260.325 232.265 261.025 232.012 261.724 231.756C265.411 230.554 269 229.08 272.462 227.344C276.78 224.971 272.915 218.413 268.588 220.787C262.753 223.989 256.132 225.631 250.116 227.994C241.766 231.023 233.925 235.28 226.858 240.623C220.54 245.667 215.929 252.854 212.378 259.993C208.968 266.856 206.357 274.079 204.595 281.525C202.643 289.566 201.108 297.701 199.998 305.897C200.003 306.903 200.409 307.865 201.127 308.576C201.846 309.287 202.819 309.689 203.835 309.694C204.845 309.669 205.807 309.261 206.522 308.555C207.236 307.848 207.648 306.896 207.673 305.897H207.667Z" fill="#211715"/>
<path d="M353.893 47.0482C334.544 32.8458 307.9 28.4655 284.436 32.5072C265.484 35.6541 248.236 45.2431 235.664 59.6212C223.394 73.9929 217.767 91.9017 216.198 110.435C215.749 115.973 215.598 121.53 215.744 127.083C215.73 130.346 215.974 133.604 216.471 136.83C217.058 140.052 217.546 143.29 217.911 146.546C219.035 158.355 219.265 170.232 218.597 182.075C218.374 187.785 218.117 193.495 218.046 199.209C217.976 204.613 217.516 210.526 218.678 215.838C220.527 224.286 227.657 233.519 236.174 236.123C238.483 236.795 240.923 236.899 243.282 236.427C244.258 236.151 245.087 235.507 245.588 234.633C246.089 233.76 246.223 232.726 245.962 231.755C245.672 230.797 245.02 229.985 244.14 229.491C243.26 228.997 242.222 228.859 241.241 229.104C239.862 229.246 238.47 229.013 237.215 228.429C235.525 227.607 233.995 226.498 232.694 225.152C229.952 222.455 227.859 219.182 226.568 215.576C226.312 214.819 226.111 214.046 225.967 213.261C226.076 213.877 225.952 213.103 225.938 212.874C225.882 211.962 225.855 211.048 225.823 210.137C225.727 207.362 225.686 204.587 225.701 201.811C225.721 196.382 225.92 190.956 226.136 185.532C226.77 174.536 226.774 163.512 226.146 152.516C225.666 146.217 224.424 140.065 223.704 133.81C223.212 128.25 223.135 122.662 223.474 117.09C224.113 99.8476 227.972 82.6554 238.291 68.5163C248.178 55.3334 262.295 45.86 278.332 41.646C289.6 38.6931 301.343 37.9531 312.898 39.4677C323.062 40.5379 332.921 43.5417 341.932 48.3137C344.735 49.9137 347.435 51.683 350.018 53.6115C350.899 54.1133 351.944 54.2517 352.927 53.9968C353.91 53.7419 354.751 53.1141 355.27 52.2495C355.76 51.3749 355.89 50.347 355.634 49.3797C355.378 48.4123 354.754 47.5801 353.893 47.0561V47.0482Z" fill="#211715"/>
<path d="M212.218 315.782C214.522 323.176 217.09 330.494 219.716 337.785C219.85 338.266 220.078 338.715 220.388 339.109C220.698 339.502 221.083 339.831 221.521 340.078C221.959 340.324 222.442 340.482 222.943 340.544C223.443 340.605 223.95 340.569 224.436 340.436C224.922 340.304 225.377 340.078 225.775 339.771C226.172 339.465 226.505 339.084 226.754 338.65C227.003 338.217 227.163 337.739 227.225 337.244C227.287 336.749 227.25 336.247 227.116 335.766C224.491 328.48 221.923 321.157 219.618 313.763C219.348 312.793 218.698 311.968 217.813 311.471C216.928 310.973 215.879 310.845 214.898 311.112C213.916 311.38 213.083 312.022 212.58 312.898C212.077 313.774 211.947 314.811 212.218 315.782Z" fill="#211715"/>
<path d="M216.474 424.787C215.91 424.683 215.359 424.287 215.105 423.803C214.654 422.937 215.248 422.21 216.257 422.396C216.819 422.5 217.37 422.896 217.624 423.38C218.074 424.246 217.481 424.973 216.473 424.787L216.474 424.787Z" fill="#FFDA71"/>
<path d="M208.281 416.51C207.496 416.383 206.722 415.824 206.386 415.146C205.833 414.025 206.596 413.092 207.892 413.303C208.677 413.431 209.452 413.989 209.787 414.668C210.34 415.789 209.577 416.722 208.281 416.509L208.281 416.51Z" fill="#FFDA71"/>
<path d="M218.529 428.967C218.557 428.834 218.546 428.691 218.501 428.544L217.664 425.867C218.623 425.672 219.18 424.903 219.017 423.951C218.758 422.437 216.934 421.124 215.31 421.281C214.202 421.387 213.534 422.203 213.712 423.235C213.92 424.448 215.133 425.53 216.441 425.833L217.206 428.276C217.251 428.422 217.261 428.566 217.234 428.697L216.457 432.459L214.153 432.408L209.533 417.598C210.711 417.397 211.402 416.477 211.207 415.33C210.901 413.551 208.757 412.007 206.846 412.19C205.544 412.316 204.762 413.276 204.97 414.489C205.222 415.956 206.723 417.259 208.312 417.569L212.934 432.381L207.558 432.261L204.631 422.852L204.62 422.852L204.614 422.832L179.849 422.282L182.785 431.718L165.696 431.338L157.959 406.468L216.976 407.779L224.713 432.642L217.802 432.489L218.53 428.967L218.529 428.967Z" fill="#FFDA71"/>
<path d="M197.754 468.749C197.802 469.229 197.492 469.608 196.985 469.687C196.081 469.831 195.021 469.067 194.936 468.21C194.89 467.732 195.201 467.353 195.705 467.273C196.61 467.129 197.669 467.892 197.754 468.749Z" fill="#FFDA71"/>
<path d="M188.351 473.594C188.437 474.268 188.002 474.798 187.286 474.893C186.105 475.051 184.748 474.071 184.604 472.959C184.518 472.286 184.955 471.755 185.671 471.66C186.852 471.502 188.209 472.483 188.351 473.594L188.351 473.594Z" fill="#FFDA71"/>
<path d="M239.398 479.838L180.377 478.527L172.638 453.651L189.726 454.031L192.652 463.436L217.417 463.986L214.5 454.576L220.769 454.715L225.691 470.574L208.844 470.191C208.724 470.188 208.598 470.161 208.474 470.113L203.586 468.205C203.418 468.139 203.248 468.104 203.085 468.101L198.689 468.001C198.159 467.07 197.064 466.329 195.965 466.184C194.22 465.952 193.195 467.204 193.881 468.728C194.349 469.765 195.537 470.621 196.727 470.778C198.124 470.964 199.059 470.197 199.021 469.1L203.158 469.194C203.32 469.198 203.491 469.233 203.658 469.298L208.549 471.207C208.671 471.255 208.796 471.282 208.916 471.284L227.252 471.701L227.251 471.697L221.988 454.742L224.169 454.791L230.041 473.71L189.281 472.794C188.676 471.661 187.356 470.751 186.033 470.576C183.981 470.304 182.774 471.776 183.582 473.566C184.131 474.787 185.529 475.793 186.926 475.977C188.617 476.201 189.73 475.241 189.618 473.893L231.597 474.837L231.596 474.835L231.6 474.835L225.389 454.818L231.656 454.957L239.398 479.838Z" fill="#FFDA71"/>
<path d="M151.154 433.359C150.37 433.232 149.594 432.673 149.259 431.994C148.707 430.875 149.469 429.942 150.765 430.153C151.55 430.281 152.326 430.839 152.66 431.518C153.213 432.639 152.451 433.572 151.154 433.359Z" fill="#FFDA71"/>
<path d="M159.887 443.378C159.324 443.274 158.772 442.878 158.519 442.394C158.068 441.528 158.661 440.801 159.669 440.987C160.232 441.09 160.784 441.486 161.038 441.971C161.489 442.836 160.895 443.564 159.887 443.378Z" fill="#FFDA71"/>
<path d="M201.882 426.234L212.526 460.448L195.376 460.067L192.461 450.696L167.766 450.147L176.572 478.454L169.45 478.296L161.569 453.015C161.536 452.907 161.527 452.801 161.547 452.704L162.344 448.849C162.371 448.717 162.36 448.573 162.315 448.426L161.078 444.465C162.038 444.27 162.594 443.501 162.431 442.549C162.17 441.034 160.348 439.721 158.725 439.878C157.617 439.985 156.949 440.8 157.127 441.833C157.335 443.046 158.548 444.129 159.856 444.431L161.02 448.158C161.065 448.305 161.074 448.449 161.048 448.579L160.252 452.435C160.232 452.533 160.238 452.639 160.272 452.747L168.23 478.269L166.053 478.221L152.406 434.453C153.583 434.252 154.274 433.332 154.077 432.184C153.774 430.405 151.629 428.86 149.719 429.044C148.417 429.169 147.635 430.129 147.843 431.343C148.093 432.81 149.596 434.114 151.185 434.424L164.832 478.193L159.423 478.073L137 406L154.15 406.381L162.956 434.687L187.651 435.236L184.732 425.853L201.882 426.234Z" fill="#FFDA71"/>
</svg>
