<svg width="0" height="0" class="hidden">
    
    <symbol fill="none" xmlns="http://www.w3.org/2000/svg" viewBox="0 0 603 206" id="NSLogo">
        <path d="M507.318 110.734L506.233 109.69C502.052 106.075 496.354 103.979 491.073 103.979H467.76L453.534 103.996V103.991L429.894 103.979C422.636 103.825 416.747 106.573 413.472 109.65L412.026 111.136C408.069 115.285 406.044 122.656 406.044 128.388L406.122 156.769C406.122 161.815 407.163 167.853 410.961 171.648L412.046 172.853C416.083 177.053 421.812 179.843 430.252 179.964L452.468 179.993L452.771 205.951C461.247 205.951 461.444 206.004 468.224 205.872L468.085 180.042L491.975 180.005C498.012 180.084 503.7 177.367 506.995 173.938L507.899 172.853C512.218 168.36 514.169 163.334 514.182 154.922L514.104 130.027C514.068 120.133 512 115.644 507.317 110.733L507.318 110.734ZM452.44 119.339L452.469 164.635H429.848C424.899 164.635 420.886 160.624 420.886 155.676L420.809 129.06C420.809 123.691 425.164 119.34 430.535 119.34H452.441L452.44 119.339ZM489.621 164.635H468.003L467.76 119.34H489.32C494.856 119.34 499.343 123.825 499.343 129.357L499.42 154.842C499.42 160.25 495.034 164.636 489.622 164.636L489.621 164.635Z" fill="#FFFEFD"></path>
        <path d="M525.975 103.626V118.974H557.172V188.221H572.528V118.974H603V103.626H525.975Z" fill="#FFFEFD"></path>
        <path d="M319.993 110.89C314.581 116.299 311.54 123.636 311.54 131.286V188.638H362.275C369.305 188.638 376.047 185.847 381.017 180.879C385.886 176.012 388.622 169.412 388.622 162.529V103.979H336.687C330.425 103.979 324.42 106.464 319.993 110.89ZM373.255 119.339V160.974C373.255 167.769 367.743 173.279 360.942 173.279H326.908V131.352C326.908 124.717 332.29 119.339 338.928 119.339H373.255Z" fill="#FFFEFD"></path>
        <path d="M227.573 110.055C221.617 115.53 218.25 123.236 218.25 131.287V188.638H268.984C272.498 188.638 275.944 187.941 279.13 186.622C283.136 184.962 286.732 182.323 289.557 178.853C293.41 174.119 295.332 168.102 295.332 161.999V159.816H279.964V160.974C279.964 167.769 274.452 173.279 267.651 173.279H233.618V131.353C233.618 124.718 239 119.34 245.638 119.34H279.964V130.806C288.451 130.806 295.332 123.928 295.332 115.446V103.98H243.427C237.573 103.98 231.882 106.097 227.574 110.056L227.573 110.055Z" fill="#FFFEFD"></path>
        <path d="M357.595 0.00846296C332.786 0.015876 312.689 19.5122 312.729 43.5348L312.795 84.8626C321.28 84.8234 321.337 85.0024 327.788 84.87L327.812 56.084H372.006L372.048 84.8615C380.535 84.8223 380.576 84.9187 387.042 84.8689L387.055 -0.00106812L357.595 0.00740395V0.00846296ZM327.796 40.7475C329.949 26.13 343.401 14.8769 359.108 14.8769H372.002L371.996 40.7316L327.796 40.7475Z" fill="#FFFEFD"></path>
        <path d="M279.743 0.278517L279.723 34.8424V40.1269L233.408 40.1428L233.422 0.249924C224.948 0.249924 227.171 0.277458 218.286 0.277458L218.249 84.9102C223.898 84.9102 228.954 84.9127 233.418 84.9176L233.444 55.4793H279.722V84.9102C288.21 84.9102 288.313 84.9176 294.682 84.8192L294.684 0.250983C286.196 0.250983 286.653 0.278517 279.741 0.278517H279.743Z" fill="#FFFEFD"></path>
        <path d="M467.101 0.278517L467.081 34.8424V40.1269L420.766 40.1428L420.78 0.249924C412.306 0.249924 414.529 0.277458 405.644 0.277458L405.606 84.9102C411.256 84.9102 416.312 84.9127 420.776 84.9176L420.802 55.4793H467.08V84.9102C475.567 84.9102 475.671 84.9176 482.039 84.8192L482.042 0.250983C473.554 0.250983 474.011 0.278517 467.099 0.278517H467.101Z" fill="#FFFEFD"></path>
        <path d="M507.592 7.17054C502.179 12.58 499.138 19.9168 499.138 27.567V84.9187H549.874C556.903 84.9187 563.645 82.1282 568.616 77.1593C573.486 72.2932 576.221 65.6924 576.221 58.8099V0.259445H524.285C518.023 0.259445 512.019 2.74494 507.591 7.17054H507.592ZM560.853 15.6193V57.2542C560.853 64.0499 555.341 69.5599 548.541 69.5599H514.507V27.6327C514.507 20.998 519.888 15.6193 526.527 15.6193H560.853Z" fill="#FFFEFD"></path>
        <path d="M174.372 45.1656C173.114 44.9263 172.099 43.9181 171.855 42.66C171.425 40.4128 173.367 38.4674 175.62 38.8974C176.873 39.1367 177.887 40.1449 178.131 41.403C178.561 43.6502 176.619 45.5956 174.371 45.1656H174.372Z" fill="url(#paint0_linear_319_251)"></path>
        <path d="M161.067 23.8997C159.302 23.6127 157.881 22.1883 157.584 20.4283C157.101 17.516 159.593 15.021 162.507 15.4986C164.273 15.7898 165.698 17.2099 165.99 18.9743C166.473 21.8865 163.981 24.3816 161.067 23.8986V23.8997Z" fill="url(#paint1_linear_319_251)"></path>
        <path d="M176.16 56.0237C176.323 55.6742 176.404 55.2972 176.404 54.9149L176.394 47.9297C178.81 47.361 180.695 45.3097 181.011 42.8189C181.513 38.855 178.16 35.5128 174.199 36.0201C171.496 36.3642 169.314 38.5447 168.975 41.2463C168.573 44.4212 170.649 47.1937 173.525 47.9117L173.534 54.2848C173.534 54.6671 173.453 55.0451 173.291 55.3893L168.679 65.3196H163.26L163.231 26.6828C166.168 26.0855 168.483 23.6275 168.866 20.6252C169.454 15.9688 165.512 12.0377 160.853 12.6308C157.677 13.0375 155.118 15.6045 154.716 18.7794C154.233 22.6183 156.826 25.9563 160.36 26.6775L160.394 65.3186H147.75V40.7718H147.726V40.7189H89.4829V65.3376H49.2935V0.452194H188.092L188.098 65.3186H171.842L176.162 56.0237H176.16Z" fill="url(#paint2_linear_319_251)"></path>
        <path d="M97.6483 161.755C97.4088 163.012 96.3948 164.027 95.137 164.265C92.8886 164.695 90.9421 162.749 91.3723 160.502C91.616 159.249 92.63 158.236 93.8835 157.997C96.132 157.567 98.0785 159.508 97.6483 161.755Z" fill="url(#paint3_linear_319_251)"></path>
        <path d="M71.81 175.028C71.5186 176.792 70.0977 178.212 68.3324 178.503C65.4185 178.986 62.9263 176.49 63.4053 173.579C63.6966 171.815 65.1229 170.394 66.8882 170.103C69.8021 169.62 72.2942 172.116 71.811 175.028H71.81Z" fill="url(#paint4_linear_319_251)"></path>
        <path d="M188.101 188.454H49.2925V123.553H89.482V148.091H147.725L147.749 123.54H162.494L162.465 164.916L122.85 164.892C122.568 164.892 122.29 164.829 122.032 164.71L111.862 159.981C111.512 159.818 111.135 159.738 110.752 159.738L100.415 159.732C99.8459 157.318 97.7977 155.434 95.3013 155.118C91.3405 154.611 87.9911 157.959 88.4933 161.922C88.8377 164.619 91.0194 166.799 93.7225 167.143C96.8938 167.55 99.6732 165.48 100.392 162.601L110.118 162.607C110.5 162.607 110.878 162.688 111.227 162.85L121.402 167.579C121.656 167.698 121.933 167.761 122.215 167.761L165.332 167.785V167.776L165.361 123.54H170.489L170.455 172.901L74.602 172.873C74.0044 169.932 71.5504 167.618 68.5454 167.235C63.8863 166.642 59.9436 170.578 60.5369 175.234C60.9385 178.409 63.508 180.972 66.6794 181.373C70.5205 181.861 73.8645 179.274 74.5914 175.741L173.311 175.77V175.765H173.32L173.359 123.54H188.098L188.102 188.454H188.101Z" fill="url(#paint5_linear_319_251)"></path>
        <path d="M13.3615 71.5011C11.5963 71.2141 10.1711 69.7897 9.87865 68.0254C9.39548 65.1184 11.8876 62.6223 14.8015 63.101C16.5668 63.3922 17.992 64.8124 18.2844 66.5767C18.7676 69.489 16.2754 71.984 13.3615 71.5011Z" fill="url(#paint6_linear_319_251)"></path>
        <path d="M26.6648 97.3091C25.4071 97.0698 24.392 96.0616 24.1483 94.8035C23.7181 92.5563 25.6603 90.6109 27.9088 91.0408C29.1665 91.2802 30.1816 92.2884 30.4253 93.5465C30.8555 95.7937 28.9133 97.7391 26.6648 97.3091Z" fill="url(#paint7_linear_319_251)"></path>
        <path d="M138.774 49.8083V139.049H98.4324V114.607H40.3421V188.438H23.5888L23.5506 122.501C23.5506 122.219 23.6078 121.942 23.7276 121.683L28.4544 111.514C28.6166 111.164 28.6981 110.787 28.6981 110.405L28.6886 100.073C31.1045 99.5044 32.9895 97.4531 33.3053 94.9623C33.8033 90.9985 30.4539 87.6562 26.4931 88.1635C23.7901 88.5077 21.6084 90.6882 21.2693 93.3897C20.8677 96.5646 22.9435 99.3371 25.8182 100.055L25.8277 109.776C25.8277 110.158 25.7419 110.536 25.584 110.88L20.8571 121.054C20.7374 121.313 20.6749 121.59 20.6749 121.872L20.7183 188.44H15.5952L15.5231 74.2841C18.4603 73.6869 20.7755 71.2289 21.1538 68.2266C21.7472 63.5702 17.8055 59.6391 13.1454 60.2322C9.96869 60.6388 7.40977 63.2059 7.00818 66.3808C6.5197 70.2197 9.11784 73.5577 12.6527 74.2789L12.7247 188.439H0V0.452194H40.3421V74.2831H98.4324V49.8083H138.774Z" fill="url(#paint8_linear_319_251)"></path>
        <defs>
        <linearGradient id="paint0_linear_319_251" x1="171.795" y1="42.032" x2="178.191" y2="42.032" gradientUnits="userSpaceOnUse">
            <stop stop-color="#FFD488"></stop>
            <stop offset="0.47" stop-color="#FFC678"></stop>
            <stop offset="1" stop-color="#FFBC6C"></stop>
        </linearGradient>
        <linearGradient id="paint1_linear_319_251" x1="157.524" y1="19.6997" x2="166.051" y2="19.6997" gradientUnits="userSpaceOnUse">
            <stop stop-color="#FFD488"></stop>
            <stop offset="0.47" stop-color="#FFC678"></stop>
            <stop offset="1" stop-color="#FFBC6C"></stop>
        </linearGradient>
        <linearGradient id="paint2_linear_319_251" x1="49.2924" y1="32.8949" x2="188.095" y2="32.8949" gradientUnits="userSpaceOnUse">
            <stop stop-color="#FFD488"></stop>
            <stop offset="0.47" stop-color="#FFC678"></stop>
            <stop offset="1" stop-color="#FFBC6C"></stop>
        </linearGradient>
        <linearGradient id="paint3_linear_319_251" x1="91.3108" y1="161.131" x2="97.7076" y2="161.131" gradientUnits="userSpaceOnUse">
            <stop stop-color="#FFD488"></stop>
            <stop offset="0.47" stop-color="#FFC678"></stop>
            <stop offset="1" stop-color="#FFBC6C"></stop>
        </linearGradient>
        <linearGradient id="paint4_linear_319_251" x1="63.3459" y1="174.303" x2="71.8704" y2="174.303" gradientUnits="userSpaceOnUse">
            <stop stop-color="#FFD488"></stop>
            <stop offset="0.47" stop-color="#FFC678"></stop>
            <stop offset="1" stop-color="#FFBC6C"></stop>
        </linearGradient>
        <linearGradient id="paint5_linear_319_251" x1="49.2925" y1="155.996" x2="188.101" y2="155.996" gradientUnits="userSpaceOnUse">
            <stop stop-color="#FFD488"></stop>
            <stop offset="0.47" stop-color="#FFC678"></stop>
            <stop offset="1" stop-color="#FFBC6C"></stop>
        </linearGradient>
        <linearGradient id="paint6_linear_319_251" x1="9.81825" y1="67.301" x2="18.3438" y2="67.301" gradientUnits="userSpaceOnUse">
            <stop stop-color="#FFD488"></stop>
            <stop offset="0.47" stop-color="#FFC678"></stop>
            <stop offset="1" stop-color="#FFBC6C"></stop>
        </linearGradient>
        <linearGradient id="paint7_linear_319_251" x1="24.0889" y1="94.1755" x2="30.4857" y2="94.1755" gradientUnits="userSpaceOnUse">
            <stop stop-color="#FFD488"></stop>
            <stop offset="0.47" stop-color="#FFC678"></stop>
            <stop offset="1" stop-color="#FFBC6C"></stop>
        </linearGradient>
        <linearGradient id="paint8_linear_319_251" x1="0" y1="94.4456" x2="138.774" y2="94.4456" gradientUnits="userSpaceOnUse">
            <stop stop-color="#FFD488"></stop>
            <stop offset="0.47" stop-color="#FFC678"></stop>
            <stop offset="1" stop-color="#FFBC6C"></stop>
        </linearGradient>
        </defs>
    </symbol>

    <symbol xmlns="http://www.w3.org/2000/svg" viewBox="0 0 22 22" id="corner">
        <path d="M0 0V22H22C11 22 0 11.2 0 0Z"></path>
    </symbol>

    <symbol xmlns="http://www.w3.org/2000/svg" viewBox="0 0 24 24" id="close">
        <path fill-rule="evenodd" clip-rule="evenodd" d="M5.29289 5.29289C5.68342 4.90237 6.31658 4.90237 6.70711 5.29289L12 10.5858L17.2929 5.29289C17.6834 4.90237 18.3166 4.90237 18.7071 5.29289C19.0976 5.68342 19.0976 6.31658 18.7071 6.70711L13.4142 12L18.7071 17.2929C19.0976 17.6834 19.0976 18.3166 18.7071 18.7071C18.3166 19.0976 17.6834 19.0976 17.2929 18.7071L12 13.4142L6.70711 18.7071C6.31658 19.0976 5.68342 19.0976 5.29289 18.7071C4.90237 18.3166 4.90237 17.6834 5.29289 17.2929L10.5858 12L5.29289 6.70711C4.90237 6.31658 4.90237 5.68342 5.29289 5.29289Z"></path>
    </symbol>

    <symbol xmlns="http://www.w3.org/2000/svg" viewBox="0 0 24 24" id="menu">
        <path d="M4 6H20M4 12H20M4 18H20" stroke="#FFFEFD" stroke-width="2" stroke-linecap="round" stroke-linejoin="round"></path>
    </symbol>

    <symbol xmlns="http://www.w3.org/2000/svg" viewBox="0 0 568 568" id="plus">
        <path d="M34 284H534M284 34V534" stroke-width="66.6667" stroke-linecap="round" stroke-linejoin="round"></path>
    </symbol>

</svg>