<svg width="160" height="160" viewBox="0 0 160 160" fill="none" xmlns="http://www.w3.org/2000/svg">
<g clip-path="url(#clip0_296_1552)">
<path d="M53.5184 92.9231C45.2306 94.2988 39.9379 87.7183 39.9768 82.9778C40.1132 78.9894 40.6796 75.0274 41.6663 71.1606C42.9809 66.4674 43.9183 58.2139 43.9183 46.7683C43.3582 29.8812 47.7998 17.6354 54.8027 10.9309C59.0243 6.88929 68.537 1.38564 79.2253 1.38564C84.5459 1.30208 89.8269 2.31376 94.74 4.35781L99.4966 6.71553C101.558 7.92211 102.293 8.95608 104.412 10.9886C109.739 16.0921 113.443 25.2744 114.03 33.4976C114.202 35.8696 114.533 41.535 114.377 46.3139C114.488 54.5913 115.433 62.6665 117.786 70.6164C119.152 75.2301 120.987 81.1659 119.511 85.7459C117.71 91.3358 111.255 94.7767 105.648 92.779L53.5184 92.9231Z" fill="#A88876"/>
<path d="M55.7025 42.1969C60.7678 38.045 66.2194 32.8729 71.2109 27.9711C70.9983 29.7658 70.2547 32.834 70.1341 34.6905C70.0861 35.4369 70.245 35.6953 70.8114 35.9634C71.3106 36.0906 71.8365 36.0665 72.322 35.8942C79.5691 33.5252 85.8827 28.9277 90.3619 22.7578C91.3496 26.553 92.7511 31.2742 93.9702 33.5793C96.9864 39.2739 102.105 44.0699 106.656 45.4583C107.067 45.0809 107.55 44.7888 108.075 44.5989C108.6 44.409 109.158 44.325 109.716 44.3517C110.425 44.3314 111.127 44.504 111.746 44.8512C112.365 45.1984 112.879 45.7071 113.232 46.323C114.421 48.4041 114.355 52.2296 113.542 54.5942C112.967 56.2684 112.024 58.8296 109.77 60.6597C109.274 61.0695 108.698 61.372 108.079 61.5481C107.46 61.7242 106.811 61.7701 106.174 61.6828L105.831 61.6257C105.488 62.7684 105.071 63.8875 104.581 64.9756C103.673 67.414 98.7297 75.8652 92.4641 79.3358C92.4859 80.6412 92.4464 81.1145 92.5665 82.7589C92.5855 83.5264 92.7151 84.2872 92.9511 85.0177C93.2768 85.9558 93.8495 86.7886 94.6087 87.4286C96.2914 88.7838 98.0209 89.4291 100.153 90.2327L102.374 91.1067C96.7532 94.9402 87.4755 97.095 79.605 97.2722C71.8471 97.0956 62.6814 94.9973 57.0514 91.2558L59.6503 90.2327C61.7806 89.4325 63.5096 88.7838 65.1946 87.4286C65.954 86.7888 66.5266 85.9559 66.8521 85.0177C67.0881 84.2871 67.2178 83.5264 67.2374 82.7589C67.3517 81.2345 67.3225 80.7167 67.3351 79.609C64.4087 78.2006 61.7852 75.9572 59.2897 72.9473C56.5058 69.5565 54.4453 65.6318 53.235 61.4148C52.5553 61.5561 51.8522 61.5406 51.1794 61.3694C50.5065 61.1983 49.8815 60.876 49.3518 60.4271C47.1113 58.5792 46.1887 56.0106 45.6263 54.3319C44.8318 51.9616 44.7964 48.1349 46.0013 46.0636C46.359 45.4505 46.8763 44.9459 47.4982 44.6037C48.12 44.2614 48.8231 44.0944 49.5324 44.1202C50.4941 44.0855 51.4398 44.3736 52.2188 44.9387C53.3459 44.0905 54.5136 43.172 55.7025 42.1969Z" fill="white"/>
<path d="M72.7523 79.8285C68.3032 79.1535 64.6423 76.7746 61.6107 73.5224C58.3169 69.9717 55.899 65.7 54.5501 61.0485C54.4466 60.7021 54.2133 60.409 53.8989 60.2305C53.5845 60.052 53.2133 60.0019 52.8628 60.0905C50.6497 60.5729 48.9504 58.3232 48.0371 56.6217C47.155 55.0285 46.6166 53.2681 46.4567 51.4541C46.371 50.4682 46.4148 49.4753 46.587 48.5008C46.6636 48.0605 46.7833 47.6288 46.9442 47.2119C47.024 47.0259 47.118 46.8462 47.2254 46.6747C47.2574 46.6221 47.5164 46.2705 47.3197 46.514C47.8544 45.9152 48.602 45.549 49.4029 45.4937C50.2038 45.4384 50.9946 45.6983 51.6065 46.218C52.9091 47.4051 54.8547 45.4704 53.5464 44.2781C52.6647 43.4855 51.5667 42.9738 50.3927 42.8083C49.2187 42.6429 48.0221 42.8312 46.9556 43.3493C46.1983 43.7626 45.5424 44.3392 45.0357 45.0375C44.5289 45.7358 44.1839 46.5381 44.0258 47.3863C43.5916 49.4086 43.577 51.4985 43.9829 53.5266C44.3887 55.5548 45.2063 57.4782 46.3852 59.1777C48.0513 61.5635 50.5497 63.3993 53.5921 62.7358L51.9049 61.7778C53.0253 65.6759 54.8423 69.3389 57.2679 72.5896C59.6588 75.7515 62.5698 78.6814 66.1158 80.5304C67.9641 81.4998 69.9601 82.1565 72.023 82.4738C72.3733 82.559 72.743 82.5073 73.0565 82.3293C73.3701 82.1512 73.6039 81.8603 73.7102 81.5158C73.8044 81.1651 73.7566 80.7915 73.5773 80.4757C73.3981 80.1599 73.1017 79.9274 72.7523 79.8285Z" fill="#211715"/>
<path d="M107.626 46.4276C107.983 46.1255 108.405 45.9098 108.859 45.7974C109.313 45.685 109.787 45.6788 110.243 45.7794C110.655 45.8499 111.047 46.0098 111.39 46.2481C111.293 46.1795 111.615 46.4441 111.66 46.4904C111.705 46.5367 112.014 46.938 111.831 46.6773C112.849 48.1388 112.865 50.2131 112.708 51.9301C112.501 53.7387 111.919 55.4844 111 57.0553C110.011 58.7935 108.399 60.6814 106.191 60.2996C105.841 60.2131 105.471 60.2641 105.157 60.4423C104.843 60.6205 104.609 60.9123 104.504 61.2575C104.192 62.2857 103.821 63.2951 103.393 64.2805C103.317 64.452 103.251 64.6235 103.18 64.7984C103.097 65.0036 103.326 64.4903 103.18 64.7955C103.079 65.0064 102.985 65.2208 102.881 65.4305C102.271 66.6405 101.589 67.8126 100.838 68.9405C98.9713 71.9151 96.6223 74.5578 93.8873 76.7602C92.3913 77.9669 90.6503 78.8329 88.7855 79.298C87.0645 79.6883 87.7927 82.3336 89.5148 81.9432C93.3317 81.0772 96.5628 78.4177 99.1452 75.5896C101.47 73.0603 103.457 70.2396 105.055 67.1984C105.35 66.6303 105.599 66.049 105.855 65.462C105.869 65.4317 105.918 65.3197 105.855 65.4671C105.765 65.6757 105.947 65.2694 105.963 65.2322C106.104 64.9068 106.239 64.5791 106.369 64.2491C106.659 63.5061 106.917 62.7493 107.155 61.9868L105.466 62.9453C108.038 63.3895 110.22 62.4412 111.916 60.4876C113.239 58.8761 114.234 57.0206 114.843 55.0263C115.516 52.9308 115.69 50.7072 115.351 48.5327C115.093 46.7505 114.396 45.0461 112.902 43.9641C111.812 43.2396 110.512 42.8977 109.206 42.9919C107.901 43.0861 106.663 43.6113 105.688 44.4848C104.374 45.6668 106.317 47.6016 107.628 46.4247L107.626 46.4276Z" fill="#211715"/>
<path d="M89.1232 23.4507C90.112 27.1927 91.0871 31.1668 92.9527 34.5865C94.9405 38.238 97.6755 41.4296 100.979 43.9534C102.574 45.1934 104.371 46.149 106.291 46.7781C107.979 47.308 108.702 44.6633 107.02 44.1329C102.867 42.8297 99.3892 39.3317 96.9606 35.8417C94.217 31.9042 92.9796 27.3065 91.7673 22.719C91.3169 21.0135 88.6699 21.7371 89.1221 23.4484L89.1232 23.4507Z" fill="#211715"/>
<path d="M89.1528 22.0987C86.7349 25.3633 83.7774 28.1911 80.4078 30.4602C78.7027 31.5985 76.902 32.5864 75.0259 33.413C74.0959 33.8228 73.1397 34.184 72.1738 34.4989C71.9705 34.578 71.7599 34.6366 71.545 34.6738C71.4767 34.6681 71.4081 34.6681 71.3398 34.6738C71.0689 34.7767 71.3461 34.5595 71.361 34.7196C71.3713 34.8253 71.4559 35.1522 71.501 34.9922C71.5333 34.7501 71.5473 34.5059 71.5427 34.2617C71.7542 32.1469 72.3206 30.0801 72.583 27.971C72.7367 26.7324 71.0146 26.2415 70.2396 26.9994C65.2098 31.9389 60.0988 36.8246 54.6431 41.2978C54.3884 41.5563 54.2456 41.9047 54.2456 42.2677C54.2456 42.6307 54.3884 42.9791 54.6431 43.2377C54.9044 43.4875 55.2519 43.6269 55.6134 43.6269C55.9749 43.6269 56.3224 43.4875 56.5836 43.2377C62.0387 38.7646 67.1479 33.8788 72.1795 28.9393L69.836 27.9676C69.5914 29.9315 69.005 32.1664 68.7958 34.2583C68.678 35.4409 68.9278 36.5 70.0367 37.1041C71.2227 37.7506 72.5973 37.2642 73.7661 36.8424C78.278 35.218 82.4373 32.7451 86.0194 29.5571C88.0539 27.7243 89.8968 25.6893 91.5197 23.4836C91.701 23.1689 91.751 22.7955 91.6589 22.4441C91.5668 22.0928 91.3399 21.7919 91.0275 21.6066C90.7115 21.4315 90.3402 21.385 89.9907 21.4766C89.6412 21.5683 89.3405 21.7911 89.1511 22.0987H89.1528Z" fill="#211715"/>
<path d="M113.007 46.3091C113.049 54.7976 114.255 63.2402 116.591 71.401C117.62 74.8682 118.727 78.4428 118.685 82.0957C118.704 83.5943 118.377 85.0771 117.73 86.429C117.083 87.7809 116.133 88.9655 114.954 89.8907C113.711 90.8725 112.243 91.5292 110.682 91.8016C109.122 92.074 107.518 91.9536 106.015 91.4511C104.342 90.8738 103.624 93.5231 105.286 94.0963C111.794 96.3409 119.343 92.1136 121.016 85.4725C122.003 81.5601 121.108 77.3716 120.071 73.5656C118.958 69.4783 117.751 65.4647 117.033 61.2768C116.219 56.3274 115.79 51.3221 115.751 46.3063C115.726 44.5424 112.982 44.5373 113.007 46.3063V46.3091Z" fill="#211715"/>
<path d="M98.8043 7.89551C99.8764 8.55679 100.86 9.35111 101.733 10.2595C102.726 11.2518 103.766 12.2074 104.696 13.2608C106.51 15.3826 108.014 17.751 109.163 20.2951C110.397 22.9515 111.329 25.7378 111.941 28.6018C112.432 31.0452 112.725 33.5241 112.819 36.0144C113.008 39.4439 113.114 42.8784 113.007 46.3096C112.953 48.0757 115.696 48.0734 115.751 46.3096C115.85 43.1088 115.762 39.9034 115.599 36.7072C115.51 34.0081 115.226 31.3189 114.75 28.6606C113.579 22.7163 111.133 16.8371 107.302 12.1097C106.205 10.8367 105.043 9.6213 103.821 8.46823C102.739 7.33896 101.519 6.3509 100.189 5.5275C98.6682 4.62271 97.2868 6.99358 98.8043 7.89608V7.89551Z" fill="#211715"/>
<path d="M95.1046 3.02916C89.5921 0.792986 83.6612 -0.224801 77.7186 0.0455723C71.6946 0.396172 65.832 2.12812 60.5846 5.10739C56.6653 7.21854 53.2518 10.1564 50.5804 13.7175C47.8319 17.6092 45.8174 21.9702 44.6361 26.5858C42.846 33.1332 42.3344 40.0034 42.5488 46.7679C42.6059 48.5295 45.3494 48.5369 45.2923 46.7679C44.9671 36.5066 46.2302 25.4107 51.9225 16.5965C54.0691 13.3077 56.9194 10.5367 60.2674 8.48365C64.9458 5.50433 70.2324 3.61139 75.7386 2.944C82.0817 2.30591 88.4842 3.2442 94.3775 5.67553C94.7282 5.76979 95.1019 5.72211 95.4177 5.54281C95.7335 5.36352 95.966 5.06704 96.0648 4.71758C96.1527 4.36666 96.1019 3.99537 95.9231 3.68092C95.7442 3.36646 95.4511 3.13303 95.1046 3.02916Z" fill="#211715"/>
<path d="M42.5466 46.7664C42.5466 51.5104 42.4003 56.2596 41.9619 60.9848C41.7206 64.131 41.2227 67.2522 40.473 70.3173C39.4238 74.2202 38.8032 78.2258 38.6222 82.2632C38.5862 83.8067 38.8665 85.3412 39.4459 86.7724C40.0252 88.2035 40.8914 89.5009 41.9911 90.5846C45.1181 93.7946 49.5278 94.9331 53.8831 94.2455C54.2325 94.1466 54.5289 93.9142 54.7083 93.5984C54.8877 93.2827 54.9356 92.909 54.8416 92.5583C54.7373 92.2123 54.5038 91.9198 54.1895 91.7414C53.8752 91.563 53.5043 91.5125 53.1538 91.6003C51.5608 91.8709 49.927 91.7713 48.3787 91.3094C46.8303 90.8474 45.409 90.0354 44.2247 88.9362C43.2566 88.0104 42.4772 86.9055 41.9299 85.6829C41.6903 85.0935 41.5138 84.4804 41.4035 83.8538C41.3492 83.5566 41.3898 83.8481 41.3749 83.6252C41.3663 83.4955 41.3555 83.3657 41.3515 83.236C41.3383 82.8181 41.3589 82.398 41.3778 81.9785C41.5804 78.2624 42.1691 74.5775 43.1342 70.9832C43.8582 67.9959 44.3539 64.9578 44.6168 61.8953C45.0952 56.8664 45.3199 51.8167 45.2901 46.7653C45.2901 45.0002 42.5466 44.9974 42.5466 46.7653V46.7664Z" fill="#211715"/>
<path d="M75.1655 68.068C76.8025 68.9147 78.6259 69.3368 80.4685 69.2957C82.3774 69.3766 84.2593 68.8218 85.819 67.7182C86.0744 67.46 86.2177 67.1115 86.2177 66.7483C86.2177 66.3851 86.0744 66.0365 85.819 65.7783C85.5574 65.5294 85.2101 65.3906 84.849 65.3906C84.4879 65.3906 84.1407 65.5294 83.8791 65.7783C84.2946 65.4548 83.9705 65.7034 83.8636 65.772C83.7567 65.8406 83.6476 65.9029 83.5355 65.9618C83.4784 65.9921 83.4178 66.0189 83.3595 66.0492C83.1457 66.1595 83.4058 66.0612 83.4132 66.0321C83.3995 66.0858 83.0177 66.1784 82.9605 66.1967C82.547 66.3263 82.1236 66.4219 81.6945 66.4825C81.8957 66.4528 81.6522 66.4825 81.5716 66.4933C81.4474 66.5059 81.323 66.5162 81.1984 66.5242C80.8989 66.5436 80.5988 66.5511 80.2982 66.5494C80.0295 66.5494 79.7603 66.5385 79.4923 66.5202C79.3688 66.5122 79.2457 66.5021 79.123 66.4899C79.1104 66.4899 78.6658 66.4265 78.943 66.4699C78.5431 66.4092 78.1479 66.3215 77.7598 66.2076C77.5941 66.1578 77.4323 66.0984 77.2688 66.0424C76.9179 65.9223 77.4683 66.1458 77.1545 65.9967C76.9514 65.901 76.751 65.801 76.5532 65.6966C76.2373 65.5207 75.8656 65.4738 75.5158 65.5655C75.1661 65.6572 74.8652 65.8805 74.6762 66.1887C74.4966 66.5037 74.4475 66.8766 74.5395 67.2273C74.6315 67.5781 74.8572 67.8788 75.1683 68.0652L75.1655 68.068Z" fill="#211715"/>
<path d="M79.7745 55.5713C80.019 56.4536 80.2146 57.3487 80.3604 58.2525L80.3118 57.8879C80.329 58.0106 80.3323 58.1348 80.3215 58.2582L80.3707 57.8936C80.3626 57.9502 80.349 58.0059 80.3301 58.0599L80.4684 57.7324C80.4525 57.7696 80.4334 57.8054 80.4112 57.8393L80.6256 57.5615C80.5998 57.5935 80.5705 57.6224 80.5381 57.6478L80.8159 57.4335C80.7477 57.4764 80.6767 57.5146 80.6033 57.5478L80.9308 57.4095C80.8162 57.4586 80.6961 57.4935 80.573 57.5135L80.9377 57.4649C80.826 57.478 80.7132 57.478 80.6016 57.4649L80.9662 57.5135C80.8399 57.4958 80.7153 57.4655 80.589 57.4483C80.4122 57.3912 80.2232 57.3827 80.042 57.4238C79.8604 57.4314 79.6841 57.4877 79.5316 57.5866C79.2175 57.7702 78.9892 58.0711 78.8969 58.423C78.8046 58.7749 78.8559 59.149 79.0395 59.4631C79.1266 59.6178 79.2441 59.7533 79.385 59.8613C79.5258 59.9694 79.6871 60.0478 79.8591 60.0918C80.1449 60.1307 80.4273 60.2061 80.7199 60.217C81.1607 60.2196 81.5958 60.1161 81.9882 59.9152C82.2364 59.8025 82.4563 59.6357 82.6317 59.427C82.8071 59.2183 82.9337 58.9731 83.0022 58.7092C83.0923 58.2804 83.088 57.837 82.9896 57.41C82.8438 56.5458 82.6438 55.6902 82.422 54.8425C82.3253 54.4917 82.0932 54.1936 81.7767 54.0139C81.4602 53.8342 81.0853 53.7876 80.7345 53.8843C80.3836 53.981 80.0856 54.2131 79.9058 54.5296C79.7261 54.8461 79.6795 55.221 79.7762 55.5719L79.7745 55.5713Z" fill="#211715"/>
<path d="M65.5945 47.9792C65.147 49.4344 65.4385 52.7804 68.1952 53.0662C71.8389 53.0445 72.0327 48.9978 70.8061 47.095C69.8001 45.5369 66.8491 44.8893 65.5945 47.9792Z" fill="#211715"/>
<path d="M94.7708 47.9792C95.2189 49.4344 94.9269 52.7804 92.1702 53.0662C88.527 53.0445 88.3327 48.9978 89.5592 47.095C90.5635 45.5369 93.5162 44.8893 94.7708 47.9792Z" fill="#211715"/>
<path d="M78.9449 97.0688C79.4243 97.1351 79.8979 97.2026 80.3659 97.2711C86.1924 96.4138 93.0604 95.7433 99.358 95.038C99.2894 94.5568 99.2151 94.0361 99.1059 93.2907C98.9829 92.4436 99.1224 91.5792 99.5056 90.8138C99.8889 90.0484 100.497 89.4187 101.249 89.0097C102.039 88.6222 102.794 88.1691 103.507 87.6551C108.129 84.1656 110.64 81.8639 112.089 77.6777C117.254 79.7925 121.558 82.312 125.024 86.0329C128.868 90.6381 131.655 95.7879 131.983 106.819C132.452 120.002 129.918 133.119 124.573 145.179C122.489 149.605 119.097 153.285 114.856 155.723C112.267 157.208 109.4 158.146 106.434 158.479C103.468 158.812 100.465 158.534 97.6107 157.661L97.3781 157.584C92.7958 156.031 89.5253 153.489 87.147 149.602C86.3287 148.236 85.6409 146.797 85.0928 145.302H75.7699C75.2427 146.799 74.5676 148.239 73.7545 149.602C71.3745 153.488 68.1046 156.031 63.5234 157.584L63.2908 157.661C60.4366 158.534 57.4337 158.813 54.4676 158.479C51.5015 158.146 48.6353 157.208 46.046 155.723C41.937 153.346 38.6636 149.615 36.263 145.435C29.7362 134.085 27.9667 119.716 27.9341 106.819C28.5434 95.8239 32.0334 90.6381 35.8789 86.0329C39.194 82.4772 43.2693 80.016 48.1345 77.9607C49.596 81.9697 52.0972 84.2479 56.6132 87.6551C57.3264 88.1691 58.0816 88.6222 58.8709 89.0097C59.6228 89.4187 60.2313 90.0484 60.6145 90.8138C60.9977 91.5792 61.1372 92.4436 61.0142 93.2907C60.9102 94.0023 60.8382 94.5093 60.7719 94.9723C66.7299 95.6445 73.2515 96.2818 78.9449 97.0688Z" fill="#FFDA71"/>
<path d="M76.1085 138.586C75.3015 143.158 73.8634 147.935 70.6918 151.453C67.6503 154.714 63.5175 156.744 59.078 157.158C54.2067 157.636 49.3227 156.384 45.2826 153.62C41.2931 150.872 38.4278 146.829 36.2638 142.558C31.6913 133.527 29.9857 123.229 29.473 113.209C29.2824 110.689 29.2528 108.16 29.3844 105.636C29.5515 103.293 29.9317 100.97 30.5201 98.6958C31.4266 95.301 32.9627 92.1068 35.0487 89.2792C36.0162 87.9299 37.1114 86.677 38.3192 85.5377C39.8152 84.1743 41.4496 82.9711 43.1958 81.9477C47.1397 79.6008 51.4796 78.0147 55.8275 76.5967C57.045 76.2 58.267 75.8182 59.4913 75.4421C61.174 74.9277 60.4567 72.2762 58.762 72.7969C50.0547 75.4707 40.1608 78.5349 34.2079 85.9104C31.8464 88.7418 29.976 91.9489 28.6745 95.3985C26.9713 100.104 26.478 105.141 26.6095 110.111C26.8953 120.817 28.4059 131.719 32.7744 141.578C34.8824 146.336 37.7156 150.898 41.708 154.305C45.7437 157.768 50.8293 159.768 56.1425 159.982C61.2327 160.196 66.2381 158.627 70.2957 155.546C74.1823 152.529 76.4686 148.121 77.8072 143.463C78.1951 142.097 78.511 140.712 78.7537 139.314C78.8402 138.963 78.7891 138.593 78.6109 138.279C78.4327 137.965 78.141 137.732 77.7958 137.627C77.4451 137.533 77.0717 137.581 76.756 137.76C76.4404 137.939 76.2078 138.235 76.1085 138.585V138.586Z" fill="#211715"/>
<path d="M82.0624 139.315C82.9346 144.247 84.6916 149.249 88.0038 153.089C91.1783 156.632 95.483 158.965 100.185 159.689C105.395 160.528 110.736 159.589 115.348 157.025C119.762 154.559 123.324 150.814 125.567 146.283C130.426 136.103 132.855 124.649 133.32 113.417C133.683 104.612 133.236 95.1055 127.995 87.6516C125.636 84.3584 122.601 81.6063 119.093 79.5793C114.987 77.1359 110.445 75.4692 105.919 73.9894C104.662 73.579 103.404 73.1852 102.14 72.7977C100.449 72.2781 99.7256 74.9251 101.411 75.4429C105.899 76.821 110.416 78.2493 114.647 80.3052C118.191 82.0268 121.812 84.2531 124.336 87.339C126.263 89.6774 127.77 92.3327 128.788 95.1866C130.243 99.4797 130.596 104.033 130.648 108.538C130.807 119.279 128.968 129.956 125.226 140.026C124.411 142.408 123.367 144.706 122.109 146.888C120.873 148.861 119.339 150.633 117.564 152.14C113.991 155.231 109.48 157.027 104.761 157.238C100.267 157.458 95.8383 156.091 92.2512 153.375C88.7983 150.655 86.8087 146.64 85.6078 142.493C85.2384 141.207 84.9381 139.902 84.7082 138.584C84.6087 138.235 84.3761 137.939 84.0603 137.76C83.7446 137.581 83.3711 137.533 83.0203 137.626C82.6739 137.73 82.3808 137.963 82.2023 138.277C82.0238 138.592 81.9737 138.963 82.0624 139.314V139.315Z" fill="#211715"/>
<path d="M101.252 89.0114C102.04 88.6227 102.795 88.17 103.509 87.6579C108.363 83.9907 110.89 81.6359 112.301 77.0353C113.688 72.4988 114.166 66.4041 114.183 59.1006C114.126 56.7349 114.133 55.5089 113.966 53.7153C113.904 53.0471 113.818 52.3001 113.694 51.3856C113.612 51.0338 113.462 50.7017 113.251 50.4082C113.041 50.1147 112.775 49.8657 112.468 49.6754C112.094 49.4486 111.665 49.3282 111.228 49.3272C110.791 49.3261 110.361 49.4446 109.986 49.6697C108.317 50.5505 107.54 53.8153 107.54 53.8153C107.54 53.8153 107.254 55.007 106.989 56.1256C104.28 54.5006 103.323 61.352 102.817 63.2033C102.14 66.3023 100.765 69.2061 98.7973 71.6937C96.8292 74.1814 94.3197 76.1873 91.4596 77.5589C81.6857 80.7837 82.7906 88.5621 83.4427 96.8505C88.5343 96.1875 94.1311 95.6222 99.3621 95.0369C99.2918 94.5556 99.2175 94.0338 99.1129 93.289C98.9894 92.4428 99.1282 91.5791 99.5107 90.8142C99.8933 90.0493 100.501 89.4202 101.252 89.0114Z" fill="white"/>
<path d="M84.807 96.8451C84.4852 92.7373 83.7993 88.2716 85.2539 84.4238C85.9245 82.7476 87.1089 81.3269 88.6371 80.3657C89.7658 79.7403 90.939 79.1987 92.1471 78.7453C93.3404 78.1922 94.4719 77.5146 95.5228 76.7236C99.8851 73.481 102.946 68.7869 104.153 63.4872C104.472 61.7725 104.923 60.0851 105.503 58.4403C105.654 58.0928 105.836 57.7596 106.047 57.4446C106.184 57.2485 105.862 57.6858 106.093 57.3943C106.142 57.338 106.195 57.2854 106.251 57.2371C105.965 57.5012 106.223 57.2617 106.223 57.2617C106.357 57.1893 106.336 57.1921 106.16 57.2702L106.252 57.2417L106.345 57.22C106.157 57.2411 106.117 57.252 106.223 57.2514C106.395 57.3085 105.921 57.2079 106.307 57.2611C106.39 57.2768 106.47 57.3003 106.548 57.3314C106.314 57.244 106.499 57.3223 106.548 57.3428C106.857 57.4743 106.459 57.24 106.601 57.3651C106.674 57.4291 106.743 57.4972 106.808 57.5692C106.627 57.3731 106.939 57.7921 106.99 57.8887C107.111 58.1173 107.026 57.9607 107.004 57.9058C107.052 58.0259 107.091 58.1516 107.127 58.2751C107.191 58.4917 107.235 58.7117 107.277 58.9329C107.306 59.1101 107.325 59.2887 107.334 59.4679C107.352 59.7234 107.361 59.9795 107.362 60.2356C107.358 61.05 107.307 61.8636 107.208 62.6722C106.896 66.0106 106.386 69.3277 105.682 72.606C105.286 74.3247 107.93 75.0581 108.328 73.3354C109.066 69.9107 109.598 66.4447 109.921 62.9562C110.175 61.291 110.158 59.5955 109.871 57.9356C109.437 55.9499 107.674 53.9466 105.431 54.625C103.39 55.2423 102.666 57.9973 102.199 59.8017C101.652 61.9091 101.32 64.0651 100.503 66.0953C99.4708 68.6132 97.926 70.8889 95.9669 72.7775C94.9821 73.737 93.8956 74.5862 92.7266 75.3101C91.5065 75.981 90.2445 76.5728 88.9486 77.082C86.7214 78.0515 84.8373 79.6684 83.541 81.7226C80.834 86.1974 81.6742 91.9039 82.0617 96.8469C82.0706 97.2079 82.2179 97.5517 82.4733 97.8071C82.7287 98.0624 83.0725 98.2098 83.4335 98.2186C83.7964 98.2158 84.1437 98.0704 84.4003 97.8137C84.657 97.5571 84.8024 97.2098 84.8053 96.8469L84.807 96.8451Z" fill="#211715"/>
<path d="M108.862 54.1771C109.06 53.2099 109.452 52.2927 110.013 51.4805C110.073 51.3964 110.422 51.0112 110.428 51.0066C110.698 50.7863 111.042 50.6784 111.389 50.7054C112.285 50.8363 112.373 51.7342 112.457 52.4293C112.884 56.642 112.956 60.883 112.673 65.1078C112.482 69.0219 112.122 73.0092 110.947 76.7678C109.918 80.0664 107.772 82.4772 105.148 84.6441C104.23 85.4319 103.27 86.1698 102.273 86.8543C101.283 87.5059 100.142 87.9197 99.2977 88.7805C98.5127 89.5768 97.9871 90.592 97.7899 91.6927C97.5818 92.9392 97.8602 94.1641 98.0368 95.3993C98.1353 95.7489 98.3677 96.0456 98.6835 96.2251C98.9994 96.4045 99.3733 96.4522 99.724 96.3578C100.07 96.2531 100.362 96.0195 100.541 95.7054C100.719 95.3912 100.77 95.0205 100.683 94.67C100.549 93.7406 100.28 92.7523 100.568 91.8304C100.708 91.4345 100.928 91.0715 101.214 90.7637C101.5 90.4559 101.845 90.2099 102.23 90.0408C104.268 88.8771 106.169 87.4872 107.896 85.8975C109.319 84.6934 110.572 83.3022 111.622 81.7616C112.633 80.1696 113.385 78.4274 113.851 76.5998C115.015 72.3359 115.337 67.8371 115.482 63.4371C115.563 60.9984 115.563 58.5597 115.482 56.121C115.452 55.1928 115.394 54.2669 115.3 53.3432C115.186 52.2224 115.183 50.9706 114.601 49.9744C114.282 49.4247 113.835 48.9602 113.297 48.6203C112.76 48.2804 112.149 48.075 111.516 48.0217C110.882 47.9684 110.246 48.0687 109.659 48.3142C109.073 48.5596 108.554 48.9428 108.148 49.4314C107.203 50.6037 106.541 51.9781 106.213 53.4478C105.798 55.1625 108.442 55.8953 108.859 54.1771H108.862Z" fill="#211715"/>
<path d="M58.8682 89.0106C58.0801 88.6218 57.3253 88.1691 56.6111 87.6571C51.7579 83.9899 49.2298 81.6351 47.8198 77.0345C46.432 72.498 45.9542 66.4033 45.937 59.0998C45.9942 56.7341 45.9867 55.5081 46.1542 53.7145C46.2159 53.0463 46.3028 52.2993 46.4263 51.3848C46.508 51.033 46.6584 50.7009 46.8688 50.4075C47.0792 50.114 47.3455 49.865 47.6523 49.6746C48.0262 49.4477 48.455 49.3272 48.8924 49.3262C49.3298 49.3252 49.7591 49.4437 50.134 49.6689C51.8036 50.5497 52.5809 53.8145 52.5809 53.8145L53.1308 56.1248C55.84 54.4998 56.7974 61.3512 57.3032 63.2025C57.9801 66.3015 59.3549 69.2052 61.3231 71.6929C63.2912 74.1805 65.8008 76.1864 68.6609 77.5581C78.4347 80.7829 77.3293 88.5613 76.6777 96.8497C71.5862 96.1866 65.986 95.6214 60.7584 95.0361C60.8281 94.5548 60.903 94.033 61.0076 93.2882C61.1309 92.442 60.992 91.5783 60.6095 90.8135C60.227 90.0487 59.6193 89.4195 58.8682 89.0106Z" fill="white"/>
<path d="M78.0563 96.8452C78.405 92.4024 79.1052 87.5131 77.3413 83.2698C76.431 81.0919 74.8681 79.2496 72.8676 77.9965C71.6866 77.317 70.4477 76.7432 69.1656 76.2818C67.9081 75.7174 66.732 74.9869 65.6687 74.1098C63.473 72.3681 61.6675 70.1846 60.3691 67.7008C59.3807 65.6405 58.6696 63.4583 58.2543 61.2112C57.8222 59.2868 57.3718 56.9348 55.9629 55.4538C54.3625 53.7734 51.7482 54.5753 50.7576 56.5038C49.8117 58.3448 49.9374 60.5917 50.1552 62.5887C50.4868 66.1997 51.0322 69.7878 51.7887 73.3342C52.1888 75.0541 54.8318 74.3265 54.4345 72.6049C53.7443 69.4318 53.2467 66.2198 52.9444 62.9865C52.8799 62.3824 52.8113 61.7794 52.7798 61.1724C52.7587 60.7683 52.7495 60.3636 52.761 59.9589C52.7603 59.57 52.7955 59.1817 52.8661 58.7992C52.909 58.602 52.9513 58.4066 53.0102 58.2139C53.0361 58.1312 53.0635 58.0489 53.0925 57.967C53.1725 57.7452 52.9439 58.2294 53.1285 57.8899C53.2003 57.7453 53.2838 57.6069 53.3783 57.476C53.2297 57.6675 53.6915 57.2474 53.52 57.3743C53.58 57.3303 53.8161 57.2411 53.5697 57.3326C53.6477 57.3015 53.7285 57.278 53.8109 57.2623C54.107 57.2211 53.8841 57.2314 53.8447 57.2537C54.0127 57.1577 53.8007 57.2125 53.8195 57.232C53.8687 57.284 54.1625 57.2823 53.8087 57.2125C53.8706 57.2402 53.9283 57.2763 53.9801 57.32C53.7921 56.9719 54.2333 57.6578 54.0373 57.3943C54.5328 58.1065 54.8824 58.9098 55.0661 59.7577C55.3296 60.6528 55.5319 61.5639 55.7337 62.4744C56.1924 64.7697 56.9553 66.9935 58.0023 69.0869C59.9086 72.7091 62.7718 75.7391 66.2803 77.8473C67.4497 78.4591 68.6506 79.009 69.8778 79.4946C71.746 80.279 73.3166 81.6369 74.3629 83.3721C75.3671 85.16 75.6609 87.2794 75.7072 89.3856C75.7009 91.8779 75.5693 94.3684 75.3128 96.8475C75.316 97.2103 75.4615 97.5574 75.7181 97.814C75.9746 98.0706 76.3217 98.2161 76.6846 98.2192C77.0462 98.2123 77.3912 98.0656 77.647 97.8098C77.9027 97.554 78.0495 97.2091 78.0563 96.8475V96.8452Z" fill="#211715"/>
<path d="M53.9046 53.4478C53.6283 52.2554 53.1447 51.1209 52.4756 50.0961C51.1342 48.1219 48.5415 47.1811 46.5142 48.8192C44.7709 50.2281 44.8338 52.679 44.7006 54.7338C44.556 56.9629 44.5463 59.2097 44.5863 61.4423C44.6669 66.036 44.9161 70.7017 45.9209 75.196C46.3068 77.0797 46.9446 78.9028 47.8173 80.6162C48.706 82.2301 49.8442 83.6934 51.1896 84.9521C51.9961 85.7277 52.854 86.4479 53.7285 87.1452C54.7858 88.0499 55.9105 88.8726 57.0928 89.6064C58.0376 90.1465 59.0207 90.5209 59.4739 91.5943C59.8883 92.5745 59.5848 93.6634 59.4408 94.6693C59.3561 95.0197 59.408 95.3892 59.586 95.7027C59.7639 96.0162 60.0545 96.2502 60.3987 96.3572C60.7496 96.4513 61.1234 96.4035 61.4392 96.2241C61.7551 96.0447 61.9877 95.7482 62.0866 95.3987C62.3146 94.3678 62.4226 93.3141 62.4084 92.2585C62.3267 91.2416 61.9679 90.2667 61.371 89.4395C60.7318 88.6242 59.9145 87.9659 58.9818 87.515C58.0078 86.9688 57.0822 86.3403 56.2154 85.6363C53.5473 83.554 50.9335 81.2672 49.6321 78.0578C48.2094 74.5472 47.8059 70.592 47.551 66.8465C47.2074 62.5597 47.1921 58.253 47.5053 53.9639C47.579 53.1065 47.5167 51.8154 47.9991 51.1866C48.111 51.0445 48.2538 50.9297 48.4166 50.851C48.5795 50.7723 48.7581 50.7317 48.939 50.7324C49.1199 50.7331 49.2982 50.7749 49.4605 50.8548C49.6228 50.9347 49.7647 51.0505 49.8756 51.1935C50.5844 52.0536 51.0616 53.0806 51.2616 54.1771C51.6766 55.8918 54.3229 55.1665 53.9074 53.4478H53.9046Z" fill="#211715"/>
<path d="M113.055 124.407C111.797 118.634 110.591 112.85 109.385 107.066C108.811 104.31 108.236 101.553 107.66 98.7972C107.423 97.662 107.238 96.4977 106.94 95.3769C106.756 94.6546 106.315 94.0244 105.699 93.605C104.949 93.1654 104.06 93.0281 103.213 93.2209C96.4868 94.0389 89.7355 94.6453 83.0172 95.5324C82.2275 95.5554 81.4492 95.727 80.723 96.0382C80.0273 96.454 79.5238 97.1275 79.322 97.9124C79.167 98.7431 79.1095 99.589 79.1506 100.433C79.1266 101.36 79.109 102.289 79.098 103.217C79.0542 106.879 79.1098 110.539 79.2649 114.2C79.617 122.632 80.8081 130.981 82.061 139.317C82.1598 139.667 82.3922 139.963 82.708 140.143C83.0238 140.322 83.3976 140.37 83.7483 140.275C84.0941 140.171 84.3866 139.938 84.5651 139.624C84.7435 139.309 84.7943 138.939 84.7068 138.588C83.6717 131.689 82.6606 124.781 82.2033 117.818C81.9747 114.335 81.8689 110.841 81.8392 107.351C81.8244 105.648 81.8314 103.945 81.8604 102.243C81.8741 101.404 81.8931 100.566 81.9175 99.7277C81.9261 99.4265 81.8106 98.5845 82.1096 98.4022C82.3653 98.3265 82.6305 98.288 82.8972 98.2879C83.2241 98.2441 83.5513 98.2014 83.8786 98.1599C84.7131 98.0524 85.5481 97.949 86.3838 97.8495C88.0127 97.6544 89.6431 97.4683 91.2747 97.2911C94.4818 96.9379 97.6911 96.6023 100.897 96.2337C101.63 96.1495 102.363 96.0632 103.095 95.9748C103.338 95.945 104.018 95.7193 104.244 95.9113C104.353 96.0045 104.4 96.5926 104.431 96.7372C104.477 96.9571 104.524 97.1772 104.57 97.3974C104.693 97.9831 104.817 98.5691 104.94 99.1555C105.473 101.704 106.005 104.252 106.535 106.801C107.809 112.917 109.079 119.032 110.412 125.135C110.788 126.858 113.434 126.129 113.057 124.405L113.055 124.407Z" fill="#211715"/>
<path d="M50.3198 125.136C51.4996 119.734 52.629 114.322 53.7578 108.91C54.3168 106.225 54.8762 103.542 55.436 100.859C55.6715 99.7338 55.9075 98.6087 56.1441 97.4839C56.1705 96.9787 56.2778 96.481 56.4619 96.0098C56.6946 95.7166 57.1381 95.9161 57.5165 95.9618C63.9181 96.7397 70.3356 97.3284 76.7298 98.1457C77.0979 98.1926 77.4662 98.2406 77.8346 98.2898C78.1011 98.2874 78.3663 98.326 78.6211 98.4041C78.8995 98.6019 78.8006 99.2546 78.8103 99.5872C78.8629 101.348 78.8926 103.109 78.8995 104.871C78.912 108.301 78.8381 111.728 78.6777 115.153C78.2225 123.002 77.364 130.822 76.1056 138.583C76.0204 138.933 76.0721 139.303 76.2501 139.617C76.4282 139.93 76.7191 140.164 77.0636 140.27C77.4143 140.365 77.7879 140.317 78.1037 140.137C78.4195 139.958 78.6519 139.662 78.7509 139.312C79.8643 131.899 80.8862 124.46 81.3229 116.972C81.5373 113.311 81.6344 109.641 81.6407 105.974C81.6434 104.125 81.6211 102.277 81.5738 100.43C81.5321 98.8053 81.6184 96.9672 80.0037 96.0349C79.3185 95.7319 78.5807 95.5657 77.8318 95.5457C76.923 95.4253 76.0136 95.3098 75.1037 95.1993C73.3951 94.9905 71.6851 94.7929 69.9738 94.6066C66.5936 94.2322 63.211 93.8796 59.8319 93.4915C59.0591 93.4023 58.2864 93.311 57.5136 93.2177C56.6975 93.0333 55.8421 93.1517 55.1067 93.5509C53.8664 94.3248 53.7167 95.704 53.4418 97.0089C52.8896 99.6301 52.3417 102.252 51.7979 104.875C50.441 111.391 49.0915 117.907 47.6718 124.407C47.2957 126.128 49.9403 126.864 50.317 125.136L50.3198 125.136Z" fill="#211715"/>
<path d="M85.094 143.933H75.7717C75.4079 143.933 75.0589 144.077 74.8017 144.334C74.5444 144.592 74.3999 144.941 74.3999 145.304C74.3999 145.668 74.5444 146.017 74.8017 146.274C75.0589 146.532 75.4079 146.676 75.7717 146.676H85.094C85.4578 146.676 85.8067 146.532 86.0639 146.274C86.3212 146.017 86.4657 145.668 86.4657 145.304C86.4657 144.941 86.3212 144.592 86.0639 144.334C85.8067 144.077 85.4578 143.933 85.094 143.933Z" fill="#211715"/>
</g>
<defs>
<clipPath id="clip0_296_1552">
<rect width="160" height="160" fill="white"/>
</clipPath>
</defs>
</svg>
